<?xml version="1.0" encoding="utf-8"?>
<svg xmlns="http://www.w3.org/2000/svg" xmlns:xlink="http://www.w3.org/1999/xlink" width="600" height="400" viewBox="0 0 2400 1600">
<defs>
  <clipPath id="clip380">
    <rect x="0" y="0" width="2400" height="1600"/>
  </clipPath>
</defs>
<path clip-path="url(#clip380)" d="
M0 1600 L2400 1600 L2400 0 L0 0  Z
  " fill="#ffffff" fill-rule="evenodd" fill-opacity="1"/>
<defs>
  <clipPath id="clip381">
    <rect x="480" y="0" width="1681" height="1600"/>
  </clipPath>
</defs>
<path clip-path="url(#clip380)" d="
M200.63 1423.18 L2352.76 1423.18 L2352.76 47.2441 L200.63 47.2441  Z
  " fill="#ffffff" fill-rule="evenodd" fill-opacity="1"/>
<defs>
  <clipPath id="clip382">
    <rect x="200" y="47" width="2153" height="1377"/>
  </clipPath>
</defs>
<polyline clip-path="url(#clip382)" style="stroke:#000000; stroke-linecap:butt; stroke-linejoin:round; stroke-width:2; stroke-opacity:0.1; fill:none" points="
  261.539,1423.18 261.539,47.2441 
  "/>
<polyline clip-path="url(#clip382)" style="stroke:#000000; stroke-linecap:butt; stroke-linejoin:round; stroke-width:2; stroke-opacity:0.1; fill:none" points="
  599.924,1423.18 599.924,47.2441 
  "/>
<polyline clip-path="url(#clip382)" style="stroke:#000000; stroke-linecap:butt; stroke-linejoin:round; stroke-width:2; stroke-opacity:0.1; fill:none" points="
  938.309,1423.18 938.309,47.2441 
  "/>
<polyline clip-path="url(#clip382)" style="stroke:#000000; stroke-linecap:butt; stroke-linejoin:round; stroke-width:2; stroke-opacity:0.1; fill:none" points="
  1276.69,1423.18 1276.69,47.2441 
  "/>
<polyline clip-path="url(#clip382)" style="stroke:#000000; stroke-linecap:butt; stroke-linejoin:round; stroke-width:2; stroke-opacity:0.1; fill:none" points="
  1615.08,1423.18 1615.08,47.2441 
  "/>
<polyline clip-path="url(#clip382)" style="stroke:#000000; stroke-linecap:butt; stroke-linejoin:round; stroke-width:2; stroke-opacity:0.1; fill:none" points="
  1953.46,1423.18 1953.46,47.2441 
  "/>
<polyline clip-path="url(#clip382)" style="stroke:#000000; stroke-linecap:butt; stroke-linejoin:round; stroke-width:2; stroke-opacity:0.1; fill:none" points="
  2291.85,1423.18 2291.85,47.2441 
  "/>
<polyline clip-path="url(#clip380)" style="stroke:#000000; stroke-linecap:butt; stroke-linejoin:round; stroke-width:4; stroke-opacity:1; fill:none" points="
  200.63,1423.18 2352.76,1423.18 
  "/>
<polyline clip-path="url(#clip380)" style="stroke:#000000; stroke-linecap:butt; stroke-linejoin:round; stroke-width:4; stroke-opacity:1; fill:none" points="
  261.539,1423.18 261.539,1406.67 
  "/>
<polyline clip-path="url(#clip380)" style="stroke:#000000; stroke-linecap:butt; stroke-linejoin:round; stroke-width:4; stroke-opacity:1; fill:none" points="
  599.924,1423.18 599.924,1406.67 
  "/>
<polyline clip-path="url(#clip380)" style="stroke:#000000; stroke-linecap:butt; stroke-linejoin:round; stroke-width:4; stroke-opacity:1; fill:none" points="
  938.309,1423.18 938.309,1406.67 
  "/>
<polyline clip-path="url(#clip380)" style="stroke:#000000; stroke-linecap:butt; stroke-linejoin:round; stroke-width:4; stroke-opacity:1; fill:none" points="
  1276.69,1423.18 1276.69,1406.67 
  "/>
<polyline clip-path="url(#clip380)" style="stroke:#000000; stroke-linecap:butt; stroke-linejoin:round; stroke-width:4; stroke-opacity:1; fill:none" points="
  1615.08,1423.18 1615.08,1406.67 
  "/>
<polyline clip-path="url(#clip380)" style="stroke:#000000; stroke-linecap:butt; stroke-linejoin:round; stroke-width:4; stroke-opacity:1; fill:none" points="
  1953.46,1423.18 1953.46,1406.67 
  "/>
<polyline clip-path="url(#clip380)" style="stroke:#000000; stroke-linecap:butt; stroke-linejoin:round; stroke-width:4; stroke-opacity:1; fill:none" points="
  2291.85,1423.18 2291.85,1406.67 
  "/>
<path clip-path="url(#clip380)" d="M256.192 1479.92 L272.512 1479.92 L272.512 1483.85 L250.567 1483.85 L250.567 1479.92 Q253.229 1477.16 257.813 1472.53 Q262.419 1467.88 263.6 1466.54 Q265.845 1464.01 266.725 1462.28 Q267.627 1460.52 267.627 1458.83 Q267.627 1456.07 265.683 1454.34 Q263.762 1452.6 260.66 1452.6 Q258.461 1452.6 256.007 1453.37 Q253.577 1454.13 250.799 1455.68 L250.799 1450.96 Q253.623 1449.82 256.077 1449.25 Q258.53 1448.67 260.567 1448.67 Q265.938 1448.67 269.132 1451.35 Q272.326 1454.04 272.326 1458.53 Q272.326 1460.66 271.516 1462.58 Q270.729 1464.48 268.623 1467.07 Q268.044 1467.74 264.942 1470.96 Q261.84 1474.15 256.192 1479.92 Z" fill="#000000" fill-rule="evenodd" fill-opacity="1" /><path clip-path="url(#clip380)" d="M604.172 1465.22 Q607.528 1465.94 609.403 1468.2 Q611.301 1470.47 611.301 1473.81 Q611.301 1478.92 607.783 1481.72 Q604.264 1484.52 597.783 1484.52 Q595.607 1484.52 593.292 1484.08 Q591 1483.67 588.547 1482.81 L588.547 1478.3 Q590.491 1479.43 592.806 1480.01 Q595.121 1480.59 597.644 1480.59 Q602.042 1480.59 604.334 1478.85 Q606.649 1477.12 606.649 1473.81 Q606.649 1470.75 604.496 1469.04 Q602.366 1467.3 598.547 1467.3 L594.519 1467.3 L594.519 1463.46 L598.732 1463.46 Q602.181 1463.46 604.01 1462.09 Q605.838 1460.7 605.838 1458.11 Q605.838 1455.45 603.94 1454.04 Q602.065 1452.6 598.547 1452.6 Q596.625 1452.6 594.426 1453.02 Q592.227 1453.44 589.588 1454.31 L589.588 1450.15 Q592.25 1449.41 594.565 1449.04 Q596.903 1448.67 598.963 1448.67 Q604.287 1448.67 607.389 1451.1 Q610.491 1453.5 610.491 1457.63 Q610.491 1460.5 608.848 1462.49 Q607.204 1464.45 604.172 1465.22 Z" fill="#000000" fill-rule="evenodd" fill-opacity="1" /><path clip-path="url(#clip380)" d="M941.318 1453.37 L929.512 1471.81 L941.318 1471.81 L941.318 1453.37 M940.091 1449.29 L945.971 1449.29 L945.971 1471.81 L950.901 1471.81 L950.901 1475.7 L945.971 1475.7 L945.971 1483.85 L941.318 1483.85 L941.318 1475.7 L925.716 1475.7 L925.716 1471.19 L940.091 1449.29 Z" fill="#000000" fill-rule="evenodd" fill-opacity="1" /><path clip-path="url(#clip380)" d="M1266.97 1449.29 L1285.33 1449.29 L1285.33 1453.23 L1271.25 1453.23 L1271.25 1461.7 Q1272.27 1461.35 1273.29 1461.19 Q1274.31 1461 1275.33 1461 Q1281.11 1461 1284.49 1464.18 Q1287.87 1467.35 1287.87 1472.76 Q1287.87 1478.34 1284.4 1481.44 Q1280.93 1484.52 1274.61 1484.52 Q1272.43 1484.52 1270.17 1484.15 Q1267.92 1483.78 1265.51 1483.04 L1265.51 1478.34 Q1267.6 1479.48 1269.82 1480.03 Q1272.04 1480.59 1274.52 1480.59 Q1278.52 1480.59 1280.86 1478.48 Q1283.2 1476.38 1283.2 1472.76 Q1283.2 1469.15 1280.86 1467.05 Q1278.52 1464.94 1274.52 1464.94 Q1272.64 1464.94 1270.77 1465.36 Q1268.92 1465.77 1266.97 1466.65 L1266.97 1449.29 Z" fill="#000000" fill-rule="evenodd" fill-opacity="1" /><path clip-path="url(#clip380)" d="M1615.48 1464.71 Q1612.33 1464.71 1610.48 1466.86 Q1608.65 1469.01 1608.65 1472.76 Q1608.65 1476.49 1610.48 1478.67 Q1612.33 1480.82 1615.48 1480.82 Q1618.63 1480.82 1620.46 1478.67 Q1622.31 1476.49 1622.31 1472.76 Q1622.31 1469.01 1620.46 1466.86 Q1618.63 1464.71 1615.48 1464.71 M1624.77 1450.06 L1624.77 1454.31 Q1623.01 1453.48 1621.2 1453.04 Q1619.42 1452.6 1617.66 1452.6 Q1613.03 1452.6 1610.58 1455.73 Q1608.14 1458.85 1607.8 1465.17 Q1609.16 1463.16 1611.22 1462.09 Q1613.28 1461 1615.76 1461 Q1620.97 1461 1623.98 1464.18 Q1627.01 1467.32 1627.01 1472.76 Q1627.01 1478.09 1623.86 1481.31 Q1620.71 1484.52 1615.48 1484.52 Q1609.49 1484.52 1606.32 1479.94 Q1603.14 1475.33 1603.14 1466.61 Q1603.14 1458.41 1607.03 1453.55 Q1610.92 1448.67 1617.47 1448.67 Q1619.23 1448.67 1621.02 1449.01 Q1622.82 1449.36 1624.77 1450.06 Z" fill="#000000" fill-rule="evenodd" fill-opacity="1" /><path clip-path="url(#clip380)" d="M1942.35 1449.29 L1964.57 1449.29 L1964.57 1451.28 L1952.03 1483.85 L1947.14 1483.85 L1958.95 1453.23 L1942.35 1453.23 L1942.35 1449.29 Z" fill="#000000" fill-rule="evenodd" fill-opacity="1" /><path clip-path="url(#clip380)" d="M2291.85 1467.44 Q2288.51 1467.44 2286.59 1469.22 Q2284.69 1471 2284.69 1474.13 Q2284.69 1477.25 2286.59 1479.04 Q2288.51 1480.82 2291.85 1480.82 Q2295.18 1480.82 2297.1 1479.04 Q2299.02 1477.23 2299.02 1474.13 Q2299.02 1471 2297.1 1469.22 Q2295.2 1467.44 2291.85 1467.44 M2287.17 1465.45 Q2284.16 1464.71 2282.47 1462.65 Q2280.81 1460.59 2280.81 1457.63 Q2280.81 1453.48 2283.74 1451.07 Q2286.71 1448.67 2291.85 1448.67 Q2297.01 1448.67 2299.95 1451.07 Q2302.89 1453.48 2302.89 1457.63 Q2302.89 1460.59 2301.2 1462.65 Q2299.53 1464.71 2296.55 1465.45 Q2299.93 1466.24 2301.8 1468.53 Q2303.7 1470.82 2303.7 1474.13 Q2303.7 1479.15 2300.62 1481.84 Q2297.56 1484.52 2291.85 1484.52 Q2286.13 1484.52 2283.05 1481.84 Q2279.99 1479.15 2279.99 1474.13 Q2279.99 1470.82 2281.89 1468.53 Q2283.79 1466.24 2287.17 1465.45 M2285.46 1458.06 Q2285.46 1460.75 2287.12 1462.25 Q2288.81 1463.76 2291.85 1463.76 Q2294.86 1463.76 2296.55 1462.25 Q2298.26 1460.75 2298.26 1458.06 Q2298.26 1455.38 2296.55 1453.88 Q2294.86 1452.37 2291.85 1452.37 Q2288.81 1452.37 2287.12 1453.88 Q2285.46 1455.38 2285.46 1458.06 Z" fill="#000000" fill-rule="evenodd" fill-opacity="1" /><path clip-path="url(#clip380)" d="M1207.94 1536.5 Q1203.23 1536.5 1200.5 1540.19 Q1197.76 1543.85 1197.76 1550.25 Q1197.76 1556.65 1200.46 1560.34 Q1203.2 1564 1207.94 1564 Q1212.62 1564 1215.36 1560.31 Q1218.1 1556.62 1218.1 1550.25 Q1218.1 1543.92 1215.36 1540.23 Q1212.62 1536.5 1207.94 1536.5 M1207.94 1531.54 Q1215.58 1531.54 1219.94 1536.5 Q1224.3 1541.47 1224.3 1550.25 Q1224.3 1559 1219.94 1564 Q1215.58 1568.97 1207.94 1568.97 Q1200.27 1568.97 1195.91 1564 Q1191.58 1559 1191.58 1550.25 Q1191.58 1541.47 1195.91 1536.5 Q1200.27 1531.54 1207.94 1531.54 Z" fill="#000000" fill-rule="evenodd" fill-opacity="1" /><path clip-path="url(#clip380)" d="M1254.67 1537.87 Q1253.68 1537.3 1252.5 1537.04 Q1251.36 1536.76 1249.96 1536.76 Q1244.99 1536.76 1242.32 1540 Q1239.68 1543.22 1239.68 1549.27 L1239.68 1568.04 L1233.79 1568.04 L1233.79 1532.4 L1239.68 1532.4 L1239.68 1537.93 Q1241.52 1534.69 1244.48 1533.13 Q1247.44 1531.54 1251.68 1531.54 Q1252.28 1531.54 1253.01 1531.63 Q1253.74 1531.7 1254.64 1531.85 L1254.67 1537.87 Z" fill="#000000" fill-rule="evenodd" fill-opacity="1" /><path clip-path="url(#clip380)" d="M1283.12 1537.81 L1283.12 1518.52 L1288.98 1518.52 L1288.98 1568.04 L1283.12 1568.04 L1283.12 1562.7 Q1281.28 1565.88 1278.44 1567.44 Q1275.64 1568.97 1271.7 1568.97 Q1265.23 1568.97 1261.16 1563.81 Q1257.12 1558.65 1257.12 1550.25 Q1257.12 1541.85 1261.16 1536.69 Q1265.23 1531.54 1271.7 1531.54 Q1275.64 1531.54 1278.44 1533.1 Q1281.28 1534.62 1283.12 1537.81 M1263.17 1550.25 Q1263.17 1556.71 1265.81 1560.4 Q1268.48 1564.07 1273.13 1564.07 Q1277.78 1564.07 1280.45 1560.4 Q1283.12 1556.71 1283.12 1550.25 Q1283.12 1543.79 1280.45 1540.13 Q1277.78 1536.44 1273.13 1536.44 Q1268.48 1536.44 1265.81 1540.13 Q1263.17 1543.79 1263.17 1550.25 Z" fill="#000000" fill-rule="evenodd" fill-opacity="1" /><path clip-path="url(#clip380)" d="M1331.53 1548.76 L1331.53 1551.62 L1304.61 1551.62 Q1304.99 1557.67 1308.24 1560.85 Q1311.51 1564 1317.34 1564 Q1320.71 1564 1323.86 1563.17 Q1327.05 1562.35 1330.17 1560.69 L1330.17 1566.23 Q1327.01 1567.57 1323.7 1568.27 Q1320.39 1568.97 1316.99 1568.97 Q1308.46 1568.97 1303.46 1564 Q1298.5 1559.04 1298.5 1550.57 Q1298.5 1541.82 1303.21 1536.69 Q1307.95 1531.54 1315.97 1531.54 Q1323.16 1531.54 1327.33 1536.18 Q1331.53 1540.8 1331.53 1548.76 M1325.68 1547.04 Q1325.61 1542.23 1322.97 1539.37 Q1320.36 1536.5 1316.03 1536.5 Q1311.13 1536.5 1308.17 1539.27 Q1305.24 1542.04 1304.8 1547.07 L1325.68 1547.04 Z" fill="#000000" fill-rule="evenodd" fill-opacity="1" /><path clip-path="url(#clip380)" d="M1361.8 1537.87 Q1360.82 1537.3 1359.64 1537.04 Q1358.49 1536.76 1357.09 1536.76 Q1352.13 1536.76 1349.45 1540 Q1346.81 1543.22 1346.81 1549.27 L1346.81 1568.04 L1340.92 1568.04 L1340.92 1532.4 L1346.81 1532.4 L1346.81 1537.93 Q1348.66 1534.69 1351.62 1533.13 Q1354.58 1531.54 1358.81 1531.54 Q1359.42 1531.54 1360.15 1531.63 Q1360.88 1531.7 1361.77 1531.85 L1361.8 1537.87 Z" fill="#000000" fill-rule="evenodd" fill-opacity="1" /><polyline clip-path="url(#clip382)" style="stroke:#000000; stroke-linecap:butt; stroke-linejoin:round; stroke-width:2; stroke-opacity:0.1; fill:none" points="
  200.63,1339.16 2352.76,1339.16 
  "/>
<polyline clip-path="url(#clip382)" style="stroke:#000000; stroke-linecap:butt; stroke-linejoin:round; stroke-width:2; stroke-opacity:0.1; fill:none" points="
  200.63,1073.36 2352.76,1073.36 
  "/>
<polyline clip-path="url(#clip382)" style="stroke:#000000; stroke-linecap:butt; stroke-linejoin:round; stroke-width:2; stroke-opacity:0.1; fill:none" points="
  200.63,807.566 2352.76,807.566 
  "/>
<polyline clip-path="url(#clip382)" style="stroke:#000000; stroke-linecap:butt; stroke-linejoin:round; stroke-width:2; stroke-opacity:0.1; fill:none" points="
  200.63,541.771 2352.76,541.771 
  "/>
<polyline clip-path="url(#clip382)" style="stroke:#000000; stroke-linecap:butt; stroke-linejoin:round; stroke-width:2; stroke-opacity:0.1; fill:none" points="
  200.63,275.976 2352.76,275.976 
  "/>
<polyline clip-path="url(#clip380)" style="stroke:#000000; stroke-linecap:butt; stroke-linejoin:round; stroke-width:4; stroke-opacity:1; fill:none" points="
  200.63,1423.18 200.63,47.2441 
  "/>
<polyline clip-path="url(#clip380)" style="stroke:#000000; stroke-linecap:butt; stroke-linejoin:round; stroke-width:4; stroke-opacity:1; fill:none" points="
  200.63,1339.16 226.456,1339.16 
  "/>
<polyline clip-path="url(#clip380)" style="stroke:#000000; stroke-linecap:butt; stroke-linejoin:round; stroke-width:4; stroke-opacity:1; fill:none" points="
  200.63,1073.36 226.456,1073.36 
  "/>
<polyline clip-path="url(#clip380)" style="stroke:#000000; stroke-linecap:butt; stroke-linejoin:round; stroke-width:4; stroke-opacity:1; fill:none" points="
  200.63,807.566 226.456,807.566 
  "/>
<polyline clip-path="url(#clip380)" style="stroke:#000000; stroke-linecap:butt; stroke-linejoin:round; stroke-width:4; stroke-opacity:1; fill:none" points="
  200.63,541.771 226.456,541.771 
  "/>
<polyline clip-path="url(#clip380)" style="stroke:#000000; stroke-linecap:butt; stroke-linejoin:round; stroke-width:4; stroke-opacity:1; fill:none" points="
  200.63,275.976 226.456,275.976 
  "/>
<path clip-path="url(#clip380)" d="M152.686 1324.96 Q149.075 1324.96 147.246 1328.52 Q145.441 1332.06 145.441 1339.19 Q145.441 1346.3 147.246 1349.86 Q149.075 1353.4 152.686 1353.4 Q156.32 1353.4 158.126 1349.86 Q159.954 1346.3 159.954 1339.19 Q159.954 1332.06 158.126 1328.52 Q156.32 1324.96 152.686 1324.96 M152.686 1321.25 Q158.496 1321.25 161.552 1325.86 Q164.63 1330.44 164.63 1339.19 Q164.63 1347.92 161.552 1352.52 Q158.496 1357.11 152.686 1357.11 Q146.876 1357.11 143.797 1352.52 Q140.741 1347.92 140.741 1339.19 Q140.741 1330.44 143.797 1325.86 Q146.876 1321.25 152.686 1321.25 Z" fill="#000000" fill-rule="evenodd" fill-opacity="1" /><path clip-path="url(#clip380)" d="M157.501 1072.01 Q160.857 1072.72 162.732 1074.99 Q164.63 1077.26 164.63 1080.6 Q164.63 1085.71 161.112 1088.51 Q157.593 1091.31 151.112 1091.31 Q148.936 1091.31 146.621 1090.87 Q144.329 1090.46 141.876 1089.6 L141.876 1085.09 Q143.82 1086.22 146.135 1086.8 Q148.45 1087.38 150.973 1087.38 Q155.371 1087.38 157.663 1085.64 Q159.978 1083.91 159.978 1080.6 Q159.978 1077.54 157.825 1075.83 Q155.695 1074.09 151.876 1074.09 L147.848 1074.09 L147.848 1070.25 L152.061 1070.25 Q155.51 1070.25 157.339 1068.88 Q159.167 1067.49 159.167 1064.9 Q159.167 1062.24 157.269 1060.83 Q155.394 1059.39 151.876 1059.39 Q149.954 1059.39 147.755 1059.81 Q145.556 1060.22 142.917 1061.1 L142.917 1056.94 Q145.579 1056.2 147.894 1055.83 Q150.232 1055.46 152.292 1055.46 Q157.616 1055.46 160.718 1057.89 Q163.82 1060.29 163.82 1064.41 Q163.82 1067.28 162.177 1069.28 Q160.533 1071.24 157.501 1072.01 Z" fill="#000000" fill-rule="evenodd" fill-opacity="1" /><path clip-path="url(#clip380)" d="M153.103 805.703 Q149.954 805.703 148.103 807.855 Q146.274 810.008 146.274 813.758 Q146.274 817.485 148.103 819.661 Q149.954 821.814 153.103 821.814 Q156.251 821.814 158.079 819.661 Q159.931 817.485 159.931 813.758 Q159.931 810.008 158.079 807.855 Q156.251 805.703 153.103 805.703 M162.385 791.05 L162.385 795.309 Q160.626 794.476 158.82 794.036 Q157.038 793.596 155.278 793.596 Q150.649 793.596 148.195 796.721 Q145.765 799.846 145.417 806.166 Q146.783 804.152 148.843 803.087 Q150.903 801.999 153.38 801.999 Q158.589 801.999 161.598 805.17 Q164.63 808.318 164.63 813.758 Q164.63 819.082 161.482 822.3 Q158.334 825.517 153.103 825.517 Q147.107 825.517 143.936 820.934 Q140.765 816.328 140.765 807.601 Q140.765 799.406 144.654 794.545 Q148.542 789.661 155.093 789.661 Q156.853 789.661 158.635 790.008 Q160.44 790.356 162.385 791.05 Z" fill="#000000" fill-rule="evenodd" fill-opacity="1" /><path clip-path="url(#clip380)" d="M143.01 558.333 L143.01 554.074 Q144.769 554.907 146.575 555.347 Q148.38 555.787 150.116 555.787 Q154.746 555.787 157.177 552.685 Q159.63 549.56 159.978 543.218 Q158.635 545.208 156.575 546.273 Q154.515 547.338 152.015 547.338 Q146.829 547.338 143.797 544.213 Q140.788 541.065 140.788 535.625 Q140.788 530.301 143.936 527.083 Q147.084 523.866 152.316 523.866 Q158.311 523.866 161.459 528.472 Q164.63 533.056 164.63 541.806 Q164.63 549.977 160.741 554.861 Q156.876 559.722 150.325 559.722 Q148.566 559.722 146.76 559.375 Q144.954 559.028 143.01 558.333 M152.316 543.681 Q155.464 543.681 157.292 541.528 Q159.144 539.375 159.144 535.625 Q159.144 531.898 157.292 529.745 Q155.464 527.57 152.316 527.57 Q149.167 527.57 147.316 529.745 Q145.487 531.898 145.487 535.625 Q145.487 539.375 147.316 541.528 Q149.167 543.681 152.316 543.681 Z" fill="#000000" fill-rule="evenodd" fill-opacity="1" /><path clip-path="url(#clip380)" d="M114.931 289.32 L122.57 289.32 L122.57 262.955 L114.26 264.622 L114.26 260.362 L122.524 258.696 L127.2 258.696 L127.2 289.32 L134.839 289.32 L134.839 293.256 L114.931 293.256 L114.931 289.32 Z" fill="#000000" fill-rule="evenodd" fill-opacity="1" /><path clip-path="url(#clip380)" d="M148.311 289.32 L164.63 289.32 L164.63 293.256 L142.686 293.256 L142.686 289.32 Q145.348 286.566 149.931 281.936 Q154.538 277.283 155.718 275.941 Q157.964 273.418 158.843 271.682 Q159.746 269.922 159.746 268.233 Q159.746 265.478 157.802 263.742 Q155.88 262.006 152.778 262.006 Q150.579 262.006 148.126 262.77 Q145.695 263.534 142.917 265.084 L142.917 260.362 Q145.741 259.228 148.195 258.649 Q150.649 258.071 152.686 258.071 Q158.056 258.071 161.251 260.756 Q164.445 263.441 164.445 267.932 Q164.445 270.061 163.635 271.983 Q162.848 273.881 160.741 276.473 Q160.163 277.145 157.061 280.362 Q153.959 283.557 148.311 289.32 Z" fill="#000000" fill-rule="evenodd" fill-opacity="1" /><path clip-path="url(#clip380)" d="M35.1993 1013.14 Q31.2526 1010.94 29.3747 1007.89 Q27.4968 1004.83 27.4968 1000.69 Q27.4968 995.124 31.4117 992.1 Q35.2948 989.076 42.4881 989.076 L64.0042 989.076 L64.0042 994.965 L42.679 994.965 Q37.5546 994.965 35.072 996.779 Q32.5894 998.593 32.5894 1002.32 Q32.5894 1006.87 35.6131 1009.51 Q38.6368 1012.15 43.8567 1012.15 L64.0042 1012.15 L64.0042 1018.04 L42.679 1018.04 Q37.5228 1018.04 35.072 1019.85 Q32.5894 1021.67 32.5894 1025.46 Q32.5894 1029.94 35.6449 1032.59 Q38.6686 1035.23 43.8567 1035.23 L64.0042 1035.23 L64.0042 1041.12 L28.3562 1041.12 L28.3562 1035.23 L33.8944 1035.23 Q30.616 1033.22 29.0564 1030.42 Q27.4968 1027.62 27.4968 1023.77 Q27.4968 1019.89 29.4702 1017.18 Q31.4436 1014.44 35.1993 1013.14 Z" fill="#000000" fill-rule="evenodd" fill-opacity="1" /><path clip-path="url(#clip380)" d="M32.4621 963.582 Q32.4621 968.292 36.1542 971.03 Q39.8145 973.767 46.212 973.767 Q52.6095 973.767 56.3017 971.061 Q59.9619 968.324 59.9619 963.582 Q59.9619 958.903 56.2698 956.166 Q52.5777 953.428 46.212 953.428 Q39.8781 953.428 36.186 956.166 Q32.4621 958.903 32.4621 963.582 M27.4968 963.582 Q27.4968 955.943 32.4621 951.582 Q37.4273 947.222 46.212 947.222 Q54.9649 947.222 59.9619 951.582 Q64.9272 955.943 64.9272 963.582 Q64.9272 971.252 59.9619 975.613 Q54.9649 979.942 46.212 979.942 Q37.4273 979.942 32.4621 975.613 Q27.4968 971.252 27.4968 963.582 Z" fill="#000000" fill-rule="evenodd" fill-opacity="1" /><path clip-path="url(#clip380)" d="M14.479 937.514 L14.479 931.658 L64.0042 931.658 L64.0042 937.514 L14.479 937.514 Z" fill="#000000" fill-rule="evenodd" fill-opacity="1" /><path clip-path="url(#clip380)" d="M44.7161 888.912 L47.5806 888.912 L47.5806 915.839 Q53.6281 915.457 56.8109 912.21 Q59.9619 908.932 59.9619 903.107 Q59.9619 899.734 59.1344 896.583 Q58.3069 893.4 56.6518 890.281 L62.1899 890.281 Q63.5267 893.432 64.227 896.742 Q64.9272 900.052 64.9272 903.458 Q64.9272 911.988 59.9619 916.985 Q54.9967 921.95 46.5303 921.95 Q37.7774 921.95 32.6531 917.239 Q27.4968 912.497 27.4968 904.476 Q27.4968 897.283 32.1438 893.113 Q36.7589 888.912 44.7161 888.912 M42.9973 894.768 Q38.1912 894.832 35.3266 897.474 Q32.4621 900.084 32.4621 904.412 Q32.4621 909.314 35.2312 912.274 Q38.0002 915.202 43.0292 915.648 L42.9973 894.768 Z" fill="#000000" fill-rule="evenodd" fill-opacity="1" /><path clip-path="url(#clip380)" d="M29.7248 853.646 L35.1993 853.646 Q33.8307 856.129 33.1623 858.643 Q32.4621 861.126 32.4621 863.672 Q32.4621 869.369 36.0905 872.52 Q39.6872 875.671 46.212 875.671 Q52.7369 875.671 56.3653 872.52 Q59.9619 869.369 59.9619 863.672 Q59.9619 861.126 59.2935 858.643 Q58.5933 856.129 57.2247 853.646 L62.6355 853.646 Q63.7814 856.097 64.3543 858.739 Q64.9272 861.348 64.9272 864.308 Q64.9272 872.361 59.8664 877.104 Q54.8057 881.846 46.212 881.846 Q37.491 881.846 32.4939 877.072 Q27.4968 872.266 27.4968 863.927 Q27.4968 861.221 28.0697 858.643 Q28.6108 856.065 29.7248 853.646 Z" fill="#000000" fill-rule="evenodd" fill-opacity="1" /><path clip-path="url(#clip380)" d="M49.9359 844.066 L28.3562 844.066 L28.3562 838.209 L49.7131 838.209 Q54.7739 838.209 57.3202 836.236 Q59.8346 834.262 59.8346 830.316 Q59.8346 825.573 56.8109 822.836 Q53.7872 820.067 48.5673 820.067 L28.3562 820.067 L28.3562 814.21 L64.0042 814.21 L64.0042 820.067 L58.5296 820.067 Q61.7762 822.199 63.3676 825.032 Q64.9272 827.833 64.9272 831.557 Q64.9272 837.7 61.1078 840.883 Q57.2883 844.066 49.9359 844.066 M27.4968 829.329 L27.4968 829.329 Z" fill="#000000" fill-rule="evenodd" fill-opacity="1" /><path clip-path="url(#clip380)" d="M14.479 802.147 L14.479 796.291 L64.0042 796.291 L64.0042 802.147 L14.479 802.147 Z" fill="#000000" fill-rule="evenodd" fill-opacity="1" /><path clip-path="url(#clip380)" d="M46.0847 767.836 Q46.0847 774.934 47.7079 777.671 Q49.3312 780.408 53.2461 780.408 Q56.3653 780.408 58.2114 778.371 Q60.0256 776.303 60.0256 772.77 Q60.0256 767.9 56.5881 764.972 Q53.1188 762.012 47.3897 762.012 L46.0847 762.012 L46.0847 767.836 M43.6657 756.155 L64.0042 756.155 L64.0042 762.012 L58.5933 762.012 Q61.8398 764.017 63.3994 767.009 Q64.9272 770.001 64.9272 774.329 Q64.9272 779.804 61.8716 783.05 Q58.7843 786.265 53.6281 786.265 Q47.6125 786.265 44.5569 782.255 Q41.5014 778.212 41.5014 770.223 L41.5014 762.012 L40.9285 762.012 Q36.8862 762.012 34.6901 764.685 Q32.4621 767.327 32.4621 772.133 Q32.4621 775.189 33.1941 778.085 Q33.9262 780.981 35.3903 783.655 L29.9795 783.655 Q28.7381 780.44 28.1334 777.417 Q27.4968 774.393 27.4968 771.528 Q27.4968 763.794 31.5072 759.975 Q35.5176 756.155 43.6657 756.155 Z" fill="#000000" fill-rule="evenodd" fill-opacity="1" /><path clip-path="url(#clip380)" d="M33.8307 723.435 Q33.2578 724.422 33.0032 725.6 Q32.7167 726.746 32.7167 728.146 Q32.7167 733.111 35.9632 735.785 Q39.1779 738.427 45.2253 738.427 L64.0042 738.427 L64.0042 744.315 L28.3562 744.315 L28.3562 738.427 L33.8944 738.427 Q30.6479 736.581 29.0883 733.621 Q27.4968 730.66 27.4968 726.427 Q27.4968 725.823 27.5923 725.09 Q27.656 724.358 27.8151 723.467 L33.8307 723.435 Z" fill="#000000" fill-rule="evenodd" fill-opacity="1" /><path clip-path="url(#clip380)" d="M29.7248 670.918 L35.1993 670.918 Q33.8307 673.401 33.1623 675.915 Q32.4621 678.398 32.4621 680.944 Q32.4621 686.642 36.0905 689.793 Q39.6872 692.944 46.212 692.944 Q52.7369 692.944 56.3653 689.793 Q59.9619 686.642 59.9619 680.944 Q59.9619 678.398 59.2935 675.915 Q58.5933 673.401 57.2247 670.918 L62.6355 670.918 Q63.7814 673.369 64.3543 676.011 Q64.9272 678.621 64.9272 681.581 Q64.9272 689.634 59.8664 694.376 Q54.8057 699.118 46.212 699.118 Q37.491 699.118 32.4939 694.344 Q27.4968 689.538 27.4968 681.199 Q27.4968 678.494 28.0697 675.915 Q28.6108 673.337 29.7248 670.918 Z" fill="#000000" fill-rule="evenodd" fill-opacity="1" /><path clip-path="url(#clip380)" d="M32.4621 646.92 Q32.4621 651.63 36.1542 654.367 Q39.8145 657.105 46.212 657.105 Q52.6095 657.105 56.3017 654.399 Q59.9619 651.662 59.9619 646.92 Q59.9619 642.241 56.2698 639.504 Q52.5777 636.766 46.212 636.766 Q39.8781 636.766 36.186 639.504 Q32.4621 642.241 32.4621 646.92 M27.4968 646.92 Q27.4968 639.281 32.4621 634.92 Q37.4273 630.56 46.212 630.56 Q54.9649 630.56 59.9619 634.92 Q64.9272 639.281 64.9272 646.92 Q64.9272 654.59 59.9619 658.951 Q54.9649 663.279 46.212 663.279 Q37.4273 663.279 32.4621 658.951 Q27.4968 654.59 27.4968 646.92 Z" fill="#000000" fill-rule="evenodd" fill-opacity="1" /><path clip-path="url(#clip380)" d="M49.9359 621.457 L28.3562 621.457 L28.3562 615.6 L49.7131 615.6 Q54.7739 615.6 57.3202 613.627 Q59.8346 611.654 59.8346 607.707 Q59.8346 602.964 56.8109 600.227 Q53.7872 597.458 48.5673 597.458 L28.3562 597.458 L28.3562 591.602 L64.0042 591.602 L64.0042 597.458 L58.5296 597.458 Q61.7762 599.591 63.3676 602.423 Q64.9272 605.224 64.9272 608.948 Q64.9272 615.091 61.1078 618.274 Q57.2883 621.457 49.9359 621.457 M27.4968 606.72 L27.4968 606.72 Z" fill="#000000" fill-rule="evenodd" fill-opacity="1" /><path clip-path="url(#clip380)" d="M42.4881 549.906 L64.0042 549.906 L64.0042 555.763 L42.679 555.763 Q37.6183 555.763 35.1038 557.736 Q32.5894 559.709 32.5894 563.656 Q32.5894 568.399 35.6131 571.136 Q38.6368 573.873 43.8567 573.873 L64.0042 573.873 L64.0042 579.761 L28.3562 579.761 L28.3562 573.873 L33.8944 573.873 Q30.6797 571.772 29.0883 568.94 Q27.4968 566.075 27.4968 562.351 Q27.4968 556.208 31.3163 553.057 Q35.1038 549.906 42.4881 549.906 Z" fill="#000000" fill-rule="evenodd" fill-opacity="1" /><path clip-path="url(#clip380)" d="M18.2347 532.432 L28.3562 532.432 L28.3562 520.369 L32.9077 520.369 L32.9077 532.432 L52.2594 532.432 Q56.6199 532.432 57.8613 531.255 Q59.1026 530.045 59.1026 526.385 L59.1026 520.369 L64.0042 520.369 L64.0042 526.385 Q64.0042 533.164 61.4897 535.743 Q58.9434 538.321 52.2594 538.321 L32.9077 538.321 L32.9077 542.618 L28.3562 542.618 L28.3562 538.321 L18.2347 538.321 L18.2347 532.432 Z" fill="#000000" fill-rule="evenodd" fill-opacity="1" /><path clip-path="url(#clip380)" d="M14.479 492.488 L14.479 478.992 L19.0304 478.992 L19.0304 486.631 L68.0464 486.631 L68.0464 478.992 L72.5979 478.992 L72.5979 492.488 L14.479 492.488 Z" fill="#000000" fill-rule="evenodd" fill-opacity="1" /><path clip-path="url(#clip380)" d="M43.5384 469.476 L43.5384 452.32 L48.7583 452.32 L48.7583 469.476 L43.5384 469.476 Z" fill="#000000" fill-rule="evenodd" fill-opacity="1" /><path clip-path="url(#clip380)" d="M14.479 429.308 L72.5979 429.308 L72.5979 442.803 L68.0464 442.803 L68.0464 435.196 L19.0304 435.196 L19.0304 442.803 L14.479 442.803 L14.479 429.308 Z" fill="#000000" fill-rule="evenodd" fill-opacity="1" /><polyline clip-path="url(#clip382)" style="stroke:#ff0000; stroke-linecap:butt; stroke-linejoin:round; stroke-width:4; stroke-opacity:1; fill:none" points="
  261.539,86.1857 938.309,701.498 1615.08,712.671 2291.85,712.975 
  "/>
<path clip-path="url(#clip382)" d="M277.539 70.1857 L245.539 70.1857 L261.539 102.186 L277.539 70.1857 Z" fill="#ff0000" fill-rule="evenodd" fill-opacity="1" stroke="#000000" stroke-opacity="1" stroke-width="3.2"/>
<path clip-path="url(#clip382)" d="M954.309 685.498 L922.309 685.498 L938.309 717.498 L954.309 685.498 Z" fill="#ff0000" fill-rule="evenodd" fill-opacity="1" stroke="#000000" stroke-opacity="1" stroke-width="3.2"/>
<path clip-path="url(#clip382)" d="M1631.08 696.671 L1599.08 696.671 L1615.08 728.671 L1631.08 696.671 Z" fill="#ff0000" fill-rule="evenodd" fill-opacity="1" stroke="#000000" stroke-opacity="1" stroke-width="3.2"/>
<path clip-path="url(#clip382)" d="M2307.85 696.975 L2275.85 696.975 L2291.85 728.975 L2307.85 696.975 Z" fill="#ff0000" fill-rule="evenodd" fill-opacity="1" stroke="#000000" stroke-opacity="1" stroke-width="3.2"/>
<polyline clip-path="url(#clip382)" style="stroke:#0000ff; stroke-linecap:butt; stroke-linejoin:round; stroke-width:4; stroke-opacity:1; fill:none" points="
  261.539,1384.24 938.309,724.85 1615.08,713.313 2291.85,713 
  "/>
<path clip-path="url(#clip382)" d="M261.539 1368.24 L245.539 1400.24 L277.539 1400.24 L261.539 1368.24 Z" fill="#0000ff" fill-rule="evenodd" fill-opacity="1" stroke="#000000" stroke-opacity="1" stroke-width="3.2"/>
<path clip-path="url(#clip382)" d="M938.309 708.85 L922.309 740.85 L954.309 740.85 L938.309 708.85 Z" fill="#0000ff" fill-rule="evenodd" fill-opacity="1" stroke="#000000" stroke-opacity="1" stroke-width="3.2"/>
<path clip-path="url(#clip382)" d="M1615.08 697.313 L1599.08 729.313 L1631.08 729.313 L1615.08 697.313 Z" fill="#0000ff" fill-rule="evenodd" fill-opacity="1" stroke="#000000" stroke-opacity="1" stroke-width="3.2"/>
<path clip-path="url(#clip382)" d="M2291.85 697 L2275.85 729 L2307.85 729 L2291.85 697 Z" fill="#0000ff" fill-rule="evenodd" fill-opacity="1" stroke="#000000" stroke-opacity="1" stroke-width="3.2"/>
<path clip-path="url(#clip380)" d="
M1746.99 274.549 L2281.02 274.549 L2281.02 93.1086 L1746.99 93.1086  Z
  " fill="#ffffff" fill-rule="evenodd" fill-opacity="1"/>
<polyline clip-path="url(#clip380)" style="stroke:#000000; stroke-linecap:butt; stroke-linejoin:round; stroke-width:4; stroke-opacity:1; fill:none" points="
  1746.99,274.549 2281.02,274.549 2281.02,93.1086 1746.99,93.1086 1746.99,274.549 
  "/>
<polyline clip-path="url(#clip380)" style="stroke:#ff0000; stroke-linecap:butt; stroke-linejoin:round; stroke-width:4; stroke-opacity:1; fill:none" points="
  1770.9,153.589 1914.38,153.589 
  "/>
<path clip-path="url(#clip380)" d="M1868.24 127.989 L1817.04 127.989 L1842.64 179.189 L1868.24 127.989 Z" fill="#ff0000" fill-rule="evenodd" fill-opacity="1" stroke="#000000" stroke-opacity="1" stroke-width="5.12"/>
<path clip-path="url(#clip380)" d="M1938.29 160.637 L1938.29 144.943 L1942.55 144.943 L1942.55 160.475 Q1942.55 164.156 1943.98 166.008 Q1945.42 167.836 1948.29 167.836 Q1951.74 167.836 1953.73 165.637 Q1955.74 163.438 1955.74 159.642 L1955.74 144.943 L1960 144.943 L1960 170.869 L1955.74 170.869 L1955.74 166.887 Q1954.19 169.248 1952.13 170.406 Q1950.09 171.54 1947.38 171.54 Q1942.92 171.54 1940.6 168.762 Q1938.29 165.984 1938.29 160.637 M1949.01 144.318 L1949.01 144.318 Z" fill="#000000" fill-rule="evenodd" fill-opacity="1" /><path clip-path="url(#clip380)" d="M1972.89 166.98 L1972.89 180.73 L1968.61 180.73 L1968.61 144.943 L1972.89 144.943 L1972.89 148.878 Q1974.24 146.563 1976.27 145.452 Q1978.33 144.318 1981.18 144.318 Q1985.9 144.318 1988.84 148.068 Q1991.81 151.818 1991.81 157.929 Q1991.81 164.04 1988.84 167.79 Q1985.9 171.54 1981.18 171.54 Q1978.33 171.54 1976.27 170.429 Q1974.24 169.295 1972.89 166.98 M1987.38 157.929 Q1987.38 153.23 1985.44 150.568 Q1983.52 147.883 1980.14 147.883 Q1976.76 147.883 1974.82 150.568 Q1972.89 153.23 1972.89 157.929 Q1972.89 162.628 1974.82 165.313 Q1976.76 167.975 1980.14 167.975 Q1983.52 167.975 1985.44 165.313 Q1987.38 162.628 1987.38 157.929 Z" fill="#000000" fill-rule="evenodd" fill-opacity="1" /><path clip-path="url(#clip380)" d="M2002.99 166.98 L2002.99 180.73 L1998.7 180.73 L1998.7 144.943 L2002.99 144.943 L2002.99 148.878 Q2004.33 146.563 2006.37 145.452 Q2008.43 144.318 2011.27 144.318 Q2016 144.318 2018.94 148.068 Q2021.9 151.818 2021.9 157.929 Q2021.9 164.04 2018.94 167.79 Q2016 171.54 2011.27 171.54 Q2008.43 171.54 2006.37 170.429 Q2004.33 169.295 2002.99 166.98 M2017.48 157.929 Q2017.48 153.23 2015.53 150.568 Q2013.61 147.883 2010.23 147.883 Q2006.85 147.883 2004.91 150.568 Q2002.99 153.23 2002.99 157.929 Q2002.99 162.628 2004.91 165.313 Q2006.85 167.975 2010.23 167.975 Q2013.61 167.975 2015.53 165.313 Q2017.48 162.628 2017.48 157.929 Z" fill="#000000" fill-rule="evenodd" fill-opacity="1" /><path clip-path="url(#clip380)" d="M2051.13 156.841 L2051.13 158.924 L2031.55 158.924 Q2031.83 163.322 2034.19 165.637 Q2036.57 167.929 2040.81 167.929 Q2043.26 167.929 2045.56 167.327 Q2047.87 166.725 2050.14 165.521 L2050.14 169.549 Q2047.85 170.521 2045.44 171.031 Q2043.03 171.54 2040.56 171.54 Q2034.35 171.54 2030.72 167.929 Q2027.11 164.318 2027.11 158.16 Q2027.11 151.795 2030.53 148.068 Q2033.98 144.318 2039.81 144.318 Q2045.05 144.318 2048.08 147.697 Q2051.13 151.054 2051.13 156.841 M2046.87 155.591 Q2046.83 152.096 2044.91 150.012 Q2043.01 147.929 2039.86 147.929 Q2036.3 147.929 2034.14 149.943 Q2032.01 151.957 2031.69 155.614 L2046.87 155.591 Z" fill="#000000" fill-rule="evenodd" fill-opacity="1" /><path clip-path="url(#clip380)" d="M2073.15 148.924 Q2072.43 148.508 2071.57 148.322 Q2070.74 148.114 2069.72 148.114 Q2066.11 148.114 2064.17 150.475 Q2062.25 152.813 2062.25 157.211 L2062.25 170.869 L2057.96 170.869 L2057.96 144.943 L2062.25 144.943 L2062.25 148.971 Q2063.59 146.609 2065.74 145.475 Q2067.89 144.318 2070.97 144.318 Q2071.41 144.318 2071.94 144.387 Q2072.48 144.434 2073.12 144.549 L2073.15 148.924 Z" fill="#000000" fill-rule="evenodd" fill-opacity="1" /><path clip-path="url(#clip380)" d="M2111.3 157.929 Q2111.3 153.23 2109.35 150.568 Q2107.43 147.883 2104.05 147.883 Q2100.67 147.883 2098.73 150.568 Q2096.81 153.23 2096.81 157.929 Q2096.81 162.628 2098.73 165.313 Q2100.67 167.975 2104.05 167.975 Q2107.43 167.975 2109.35 165.313 Q2111.3 162.628 2111.3 157.929 M2096.81 148.878 Q2098.15 146.563 2100.18 145.452 Q2102.24 144.318 2105.09 144.318 Q2109.81 144.318 2112.75 148.068 Q2115.72 151.818 2115.72 157.929 Q2115.72 164.04 2112.75 167.79 Q2109.81 171.54 2105.09 171.54 Q2102.24 171.54 2100.18 170.429 Q2098.15 169.295 2096.81 166.98 L2096.81 170.869 L2092.52 170.869 L2092.52 134.85 L2096.81 134.85 L2096.81 148.878 Z" fill="#000000" fill-rule="evenodd" fill-opacity="1" /><path clip-path="url(#clip380)" d="M2132.82 147.929 Q2129.4 147.929 2127.41 150.614 Q2125.42 153.276 2125.42 157.929 Q2125.42 162.582 2127.38 165.267 Q2129.37 167.929 2132.82 167.929 Q2136.23 167.929 2138.22 165.244 Q2140.21 162.558 2140.21 157.929 Q2140.21 153.322 2138.22 150.637 Q2136.23 147.929 2132.82 147.929 M2132.82 144.318 Q2138.38 144.318 2141.55 147.929 Q2144.72 151.54 2144.72 157.929 Q2144.72 164.295 2141.55 167.929 Q2138.38 171.54 2132.82 171.54 Q2127.24 171.54 2124.07 167.929 Q2120.93 164.295 2120.93 157.929 Q2120.93 151.54 2124.07 147.929 Q2127.24 144.318 2132.82 144.318 Z" fill="#000000" fill-rule="evenodd" fill-opacity="1" /><path clip-path="url(#clip380)" d="M2151.34 160.637 L2151.34 144.943 L2155.6 144.943 L2155.6 160.475 Q2155.6 164.156 2157.04 166.008 Q2158.47 167.836 2161.34 167.836 Q2164.79 167.836 2166.78 165.637 Q2168.8 163.438 2168.8 159.642 L2168.8 144.943 L2173.05 144.943 L2173.05 170.869 L2168.8 170.869 L2168.8 166.887 Q2167.24 169.248 2165.18 170.406 Q2163.15 171.54 2160.44 171.54 Q2155.97 171.54 2153.66 168.762 Q2151.34 165.984 2151.34 160.637 M2162.06 144.318 L2162.06 144.318 Z" fill="#000000" fill-rule="evenodd" fill-opacity="1" /><path clip-path="url(#clip380)" d="M2203.38 155.221 L2203.38 170.869 L2199.12 170.869 L2199.12 155.359 Q2199.12 151.679 2197.68 149.85 Q2196.25 148.022 2193.38 148.022 Q2189.93 148.022 2187.94 150.221 Q2185.95 152.42 2185.95 156.216 L2185.95 170.869 L2181.67 170.869 L2181.67 144.943 L2185.95 144.943 L2185.95 148.971 Q2187.48 146.633 2189.54 145.475 Q2191.62 144.318 2194.33 144.318 Q2198.8 144.318 2201.09 147.096 Q2203.38 149.85 2203.38 155.221 Z" fill="#000000" fill-rule="evenodd" fill-opacity="1" /><path clip-path="url(#clip380)" d="M2228.93 148.878 L2228.93 134.85 L2233.19 134.85 L2233.19 170.869 L2228.93 170.869 L2228.93 166.98 Q2227.59 169.295 2225.53 170.429 Q2223.49 171.54 2220.62 171.54 Q2215.92 171.54 2212.96 167.79 Q2210.02 164.04 2210.02 157.929 Q2210.02 151.818 2212.96 148.068 Q2215.92 144.318 2220.62 144.318 Q2223.49 144.318 2225.53 145.452 Q2227.59 146.563 2228.93 148.878 M2214.42 157.929 Q2214.42 162.628 2216.34 165.313 Q2218.29 167.975 2221.67 167.975 Q2225.05 167.975 2226.99 165.313 Q2228.93 162.628 2228.93 157.929 Q2228.93 153.23 2226.99 150.568 Q2225.05 147.883 2221.67 147.883 Q2218.29 147.883 2216.34 150.568 Q2214.42 153.23 2214.42 157.929 Z" fill="#000000" fill-rule="evenodd" fill-opacity="1" /><polyline clip-path="url(#clip380)" style="stroke:#0000ff; stroke-linecap:butt; stroke-linejoin:round; stroke-width:4; stroke-opacity:1; fill:none" points="
  1770.9,214.069 1914.38,214.069 
  "/>
<path clip-path="url(#clip380)" d="M1842.64 188.469 L1817.04 239.669 L1868.24 239.669 L1842.64 188.469 Z" fill="#0000ff" fill-rule="evenodd" fill-opacity="1" stroke="#000000" stroke-opacity="1" stroke-width="5.12"/>
<path clip-path="url(#clip380)" d="M1938.29 195.33 L1942.55 195.33 L1942.55 231.349 L1938.29 231.349 L1938.29 195.33 Z" fill="#000000" fill-rule="evenodd" fill-opacity="1" /><path clip-path="url(#clip380)" d="M1961.51 208.409 Q1958.08 208.409 1956.09 211.094 Q1954.1 213.756 1954.1 218.409 Q1954.1 223.062 1956.07 225.747 Q1958.06 228.409 1961.51 228.409 Q1964.91 228.409 1966.9 225.724 Q1968.89 223.038 1968.89 218.409 Q1968.89 213.802 1966.9 211.117 Q1964.91 208.409 1961.51 208.409 M1961.51 204.798 Q1967.06 204.798 1970.23 208.409 Q1973.4 212.02 1973.4 218.409 Q1973.4 224.775 1970.23 228.409 Q1967.06 232.02 1961.51 232.02 Q1955.93 232.02 1952.76 228.409 Q1949.61 224.775 1949.61 218.409 Q1949.61 212.02 1952.76 208.409 Q1955.93 204.798 1961.51 204.798 Z" fill="#000000" fill-rule="evenodd" fill-opacity="1" /><path clip-path="url(#clip380)" d="M1977.99 205.423 L1982.25 205.423 L1987.57 225.654 L1992.87 205.423 L1997.89 205.423 L2003.22 225.654 L2008.52 205.423 L2012.78 205.423 L2006 231.349 L2000.97 231.349 L1995.39 210.099 L1989.79 231.349 L1984.77 231.349 L1977.99 205.423 Z" fill="#000000" fill-rule="evenodd" fill-opacity="1" /><path clip-path="url(#clip380)" d="M2041.41 217.321 L2041.41 219.404 L2021.83 219.404 Q2022.11 223.802 2024.47 226.117 Q2026.85 228.409 2031.09 228.409 Q2033.54 228.409 2035.83 227.807 Q2038.15 227.205 2040.42 226.001 L2040.42 230.029 Q2038.12 231.001 2035.72 231.511 Q2033.31 232.02 2030.83 232.02 Q2024.63 232.02 2021 228.409 Q2017.38 224.798 2017.38 218.64 Q2017.38 212.275 2020.81 208.548 Q2024.26 204.798 2030.09 204.798 Q2035.32 204.798 2038.36 208.177 Q2041.41 211.534 2041.41 217.321 M2037.15 216.071 Q2037.11 212.576 2035.19 210.492 Q2033.29 208.409 2030.14 208.409 Q2026.57 208.409 2024.42 210.423 Q2022.29 212.437 2021.97 216.094 L2037.15 216.071 Z" fill="#000000" fill-rule="evenodd" fill-opacity="1" /><path clip-path="url(#clip380)" d="M2063.43 209.404 Q2062.71 208.988 2061.85 208.802 Q2061.02 208.594 2060 208.594 Q2056.39 208.594 2054.44 210.955 Q2052.52 213.293 2052.52 217.691 L2052.52 231.349 L2048.24 231.349 L2048.24 205.423 L2052.52 205.423 L2052.52 209.451 Q2053.87 207.089 2056.02 205.955 Q2058.17 204.798 2061.25 204.798 Q2061.69 204.798 2062.22 204.867 Q2062.75 204.914 2063.4 205.029 L2063.43 209.404 Z" fill="#000000" fill-rule="evenodd" fill-opacity="1" /><path clip-path="url(#clip380)" d="M2101.57 218.409 Q2101.57 213.71 2099.63 211.048 Q2097.71 208.363 2094.33 208.363 Q2090.95 208.363 2089 211.048 Q2087.08 213.71 2087.08 218.409 Q2087.08 223.108 2089 225.793 Q2090.95 228.455 2094.33 228.455 Q2097.71 228.455 2099.63 225.793 Q2101.57 223.108 2101.57 218.409 M2087.08 209.358 Q2088.43 207.043 2090.46 205.932 Q2092.52 204.798 2095.37 204.798 Q2100.09 204.798 2103.03 208.548 Q2105.99 212.298 2105.99 218.409 Q2105.99 224.52 2103.03 228.27 Q2100.09 232.02 2095.37 232.02 Q2092.52 232.02 2090.46 230.909 Q2088.43 229.775 2087.08 227.46 L2087.08 231.349 L2082.8 231.349 L2082.8 195.33 L2087.08 195.33 L2087.08 209.358 Z" fill="#000000" fill-rule="evenodd" fill-opacity="1" /><path clip-path="url(#clip380)" d="M2123.1 208.409 Q2119.68 208.409 2117.68 211.094 Q2115.69 213.756 2115.69 218.409 Q2115.69 223.062 2117.66 225.747 Q2119.65 228.409 2123.1 228.409 Q2126.5 228.409 2128.49 225.724 Q2130.49 223.038 2130.49 218.409 Q2130.49 213.802 2128.49 211.117 Q2126.5 208.409 2123.1 208.409 M2123.1 204.798 Q2128.66 204.798 2131.83 208.409 Q2135 212.02 2135 218.409 Q2135 224.775 2131.83 228.409 Q2128.66 232.02 2123.1 232.02 Q2117.52 232.02 2114.35 228.409 Q2111.2 224.775 2111.2 218.409 Q2111.2 212.02 2114.35 208.409 Q2117.52 204.798 2123.1 204.798 Z" fill="#000000" fill-rule="evenodd" fill-opacity="1" /><path clip-path="url(#clip380)" d="M2141.62 221.117 L2141.62 205.423 L2145.88 205.423 L2145.88 220.955 Q2145.88 224.636 2147.31 226.488 Q2148.75 228.316 2151.62 228.316 Q2155.07 228.316 2157.06 226.117 Q2159.07 223.918 2159.07 220.122 L2159.07 205.423 L2163.33 205.423 L2163.33 231.349 L2159.07 231.349 L2159.07 227.367 Q2157.52 229.728 2155.46 230.886 Q2153.43 232.02 2150.72 232.02 Q2146.25 232.02 2143.93 229.242 Q2141.62 226.464 2141.62 221.117 M2152.34 204.798 L2152.34 204.798 Z" fill="#000000" fill-rule="evenodd" fill-opacity="1" /><path clip-path="url(#clip380)" d="M2193.66 215.701 L2193.66 231.349 L2189.4 231.349 L2189.4 215.839 Q2189.4 212.159 2187.96 210.33 Q2186.53 208.502 2183.66 208.502 Q2180.21 208.502 2178.22 210.701 Q2176.23 212.9 2176.23 216.696 L2176.23 231.349 L2171.94 231.349 L2171.94 205.423 L2176.23 205.423 L2176.23 209.451 Q2177.75 207.113 2179.81 205.955 Q2181.9 204.798 2184.61 204.798 Q2189.07 204.798 2191.36 207.576 Q2193.66 210.33 2193.66 215.701 Z" fill="#000000" fill-rule="evenodd" fill-opacity="1" /><path clip-path="url(#clip380)" d="M2219.21 209.358 L2219.21 195.33 L2223.47 195.33 L2223.47 231.349 L2219.21 231.349 L2219.21 227.46 Q2217.87 229.775 2215.81 230.909 Q2213.77 232.02 2210.9 232.02 Q2206.2 232.02 2203.24 228.27 Q2200.3 224.52 2200.3 218.409 Q2200.3 212.298 2203.24 208.548 Q2206.2 204.798 2210.9 204.798 Q2213.77 204.798 2215.81 205.932 Q2217.87 207.043 2219.21 209.358 M2204.7 218.409 Q2204.7 223.108 2206.62 225.793 Q2208.56 228.455 2211.94 228.455 Q2215.32 228.455 2217.27 225.793 Q2219.21 223.108 2219.21 218.409 Q2219.21 213.71 2217.27 211.048 Q2215.32 208.363 2211.94 208.363 Q2208.56 208.363 2206.62 211.048 Q2204.7 213.71 2204.7 218.409 Z" fill="#000000" fill-rule="evenodd" fill-opacity="1" /></svg>
