<?xml version="1.0" encoding="utf-8"?>
<svg xmlns="http://www.w3.org/2000/svg" xmlns:xlink="http://www.w3.org/1999/xlink" width="600" height="400" viewBox="0 0 2400 1600">
<defs>
  <clipPath id="clip220">
    <rect x="0" y="0" width="2400" height="1600"/>
  </clipPath>
</defs>
<path clip-path="url(#clip220)" d="
M0 1600 L2400 1600 L2400 0 L0 0  Z
  " fill="#ffffff" fill-rule="evenodd" fill-opacity="1"/>
<defs>
  <clipPath id="clip221">
    <rect x="480" y="0" width="1681" height="1600"/>
  </clipPath>
</defs>
<path clip-path="url(#clip220)" d="
M247.945 1423.18 L2352.76 1423.18 L2352.76 47.2441 L247.945 47.2441  Z
  " fill="#ffffff" fill-rule="evenodd" fill-opacity="1"/>
<defs>
  <clipPath id="clip222">
    <rect x="247" y="47" width="2106" height="1377"/>
  </clipPath>
</defs>
<polyline clip-path="url(#clip222)" style="stroke:#000000; stroke-linecap:butt; stroke-linejoin:round; stroke-width:2; stroke-opacity:0.1; fill:none" points="
  307.515,1423.18 307.515,47.2441 
  "/>
<polyline clip-path="url(#clip222)" style="stroke:#000000; stroke-linecap:butt; stroke-linejoin:round; stroke-width:2; stroke-opacity:0.1; fill:none" points="
  638.46,1423.18 638.46,47.2441 
  "/>
<polyline clip-path="url(#clip222)" style="stroke:#000000; stroke-linecap:butt; stroke-linejoin:round; stroke-width:2; stroke-opacity:0.1; fill:none" points="
  969.405,1423.18 969.405,47.2441 
  "/>
<polyline clip-path="url(#clip222)" style="stroke:#000000; stroke-linecap:butt; stroke-linejoin:round; stroke-width:2; stroke-opacity:0.1; fill:none" points="
  1300.35,1423.18 1300.35,47.2441 
  "/>
<polyline clip-path="url(#clip222)" style="stroke:#000000; stroke-linecap:butt; stroke-linejoin:round; stroke-width:2; stroke-opacity:0.1; fill:none" points="
  1631.3,1423.18 1631.3,47.2441 
  "/>
<polyline clip-path="url(#clip222)" style="stroke:#000000; stroke-linecap:butt; stroke-linejoin:round; stroke-width:2; stroke-opacity:0.1; fill:none" points="
  1962.24,1423.18 1962.24,47.2441 
  "/>
<polyline clip-path="url(#clip222)" style="stroke:#000000; stroke-linecap:butt; stroke-linejoin:round; stroke-width:2; stroke-opacity:0.1; fill:none" points="
  2293.19,1423.18 2293.19,47.2441 
  "/>
<polyline clip-path="url(#clip220)" style="stroke:#000000; stroke-linecap:butt; stroke-linejoin:round; stroke-width:4; stroke-opacity:1; fill:none" points="
  247.945,1423.18 2352.76,1423.18 
  "/>
<polyline clip-path="url(#clip220)" style="stroke:#000000; stroke-linecap:butt; stroke-linejoin:round; stroke-width:4; stroke-opacity:1; fill:none" points="
  307.515,1423.18 307.515,1406.67 
  "/>
<polyline clip-path="url(#clip220)" style="stroke:#000000; stroke-linecap:butt; stroke-linejoin:round; stroke-width:4; stroke-opacity:1; fill:none" points="
  638.46,1423.18 638.46,1406.67 
  "/>
<polyline clip-path="url(#clip220)" style="stroke:#000000; stroke-linecap:butt; stroke-linejoin:round; stroke-width:4; stroke-opacity:1; fill:none" points="
  969.405,1423.18 969.405,1406.67 
  "/>
<polyline clip-path="url(#clip220)" style="stroke:#000000; stroke-linecap:butt; stroke-linejoin:round; stroke-width:4; stroke-opacity:1; fill:none" points="
  1300.35,1423.18 1300.35,1406.67 
  "/>
<polyline clip-path="url(#clip220)" style="stroke:#000000; stroke-linecap:butt; stroke-linejoin:round; stroke-width:4; stroke-opacity:1; fill:none" points="
  1631.3,1423.18 1631.3,1406.67 
  "/>
<polyline clip-path="url(#clip220)" style="stroke:#000000; stroke-linecap:butt; stroke-linejoin:round; stroke-width:4; stroke-opacity:1; fill:none" points="
  1962.24,1423.18 1962.24,1406.67 
  "/>
<polyline clip-path="url(#clip220)" style="stroke:#000000; stroke-linecap:butt; stroke-linejoin:round; stroke-width:4; stroke-opacity:1; fill:none" points="
  2293.19,1423.18 2293.19,1406.67 
  "/>
<path clip-path="url(#clip220)" d="M302.168 1479.92 L318.487 1479.92 L318.487 1483.85 L296.543 1483.85 L296.543 1479.92 Q299.205 1477.16 303.788 1472.53 Q308.395 1467.88 309.575 1466.54 Q311.82 1464.01 312.7 1462.28 Q313.603 1460.52 313.603 1458.83 Q313.603 1456.07 311.658 1454.34 Q309.737 1452.6 306.635 1452.6 Q304.436 1452.6 301.983 1453.37 Q299.552 1454.13 296.774 1455.68 L296.774 1450.96 Q299.598 1449.82 302.052 1449.25 Q304.506 1448.67 306.543 1448.67 Q311.913 1448.67 315.107 1451.35 Q318.302 1454.04 318.302 1458.53 Q318.302 1460.66 317.492 1462.58 Q316.705 1464.48 314.598 1467.07 Q314.02 1467.74 310.918 1470.96 Q307.816 1474.15 302.168 1479.92 Z" fill="#000000" fill-rule="evenodd" fill-opacity="1" /><path clip-path="url(#clip220)" d="M642.708 1465.22 Q646.064 1465.94 647.939 1468.2 Q649.837 1470.47 649.837 1473.81 Q649.837 1478.92 646.319 1481.72 Q642.8 1484.52 636.319 1484.52 Q634.143 1484.52 631.828 1484.08 Q629.537 1483.67 627.083 1482.81 L627.083 1478.3 Q629.027 1479.43 631.342 1480.01 Q633.657 1480.59 636.18 1480.59 Q640.578 1480.59 642.87 1478.85 Q645.185 1477.12 645.185 1473.81 Q645.185 1470.75 643.032 1469.04 Q640.902 1467.3 637.083 1467.3 L633.055 1467.3 L633.055 1463.46 L637.268 1463.46 Q640.717 1463.46 642.546 1462.09 Q644.374 1460.7 644.374 1458.11 Q644.374 1455.45 642.476 1454.04 Q640.601 1452.6 637.083 1452.6 Q635.161 1452.6 632.962 1453.02 Q630.763 1453.44 628.124 1454.31 L628.124 1450.15 Q630.787 1449.41 633.101 1449.04 Q635.439 1448.67 637.499 1448.67 Q642.823 1448.67 645.925 1451.1 Q649.027 1453.5 649.027 1457.63 Q649.027 1460.5 647.384 1462.49 Q645.74 1464.45 642.708 1465.22 Z" fill="#000000" fill-rule="evenodd" fill-opacity="1" /><path clip-path="url(#clip220)" d="M972.414 1453.37 L960.609 1471.81 L972.414 1471.81 L972.414 1453.37 M971.188 1449.29 L977.067 1449.29 L977.067 1471.81 L981.998 1471.81 L981.998 1475.7 L977.067 1475.7 L977.067 1483.85 L972.414 1483.85 L972.414 1475.7 L956.813 1475.7 L956.813 1471.19 L971.188 1449.29 Z" fill="#000000" fill-rule="evenodd" fill-opacity="1" /><path clip-path="url(#clip220)" d="M1290.63 1449.29 L1308.98 1449.29 L1308.98 1453.23 L1294.91 1453.23 L1294.91 1461.7 Q1295.93 1461.35 1296.95 1461.19 Q1297.97 1461 1298.98 1461 Q1304.77 1461 1308.15 1464.18 Q1311.53 1467.35 1311.53 1472.76 Q1311.53 1478.34 1308.06 1481.44 Q1304.59 1484.52 1298.27 1484.52 Q1296.09 1484.52 1293.82 1484.15 Q1291.58 1483.78 1289.17 1483.04 L1289.17 1478.34 Q1291.25 1479.48 1293.48 1480.03 Q1295.7 1480.59 1298.17 1480.59 Q1302.18 1480.59 1304.52 1478.48 Q1306.85 1476.38 1306.85 1472.76 Q1306.85 1469.15 1304.52 1467.05 Q1302.18 1464.94 1298.17 1464.94 Q1296.3 1464.94 1294.42 1465.36 Q1292.57 1465.77 1290.63 1466.65 L1290.63 1449.29 Z" fill="#000000" fill-rule="evenodd" fill-opacity="1" /><path clip-path="url(#clip220)" d="M1631.7 1464.71 Q1628.55 1464.71 1626.7 1466.86 Q1624.87 1469.01 1624.87 1472.76 Q1624.87 1476.49 1626.7 1478.67 Q1628.55 1480.82 1631.7 1480.82 Q1634.85 1480.82 1636.68 1478.67 Q1638.53 1476.49 1638.53 1472.76 Q1638.53 1469.01 1636.68 1466.86 Q1634.85 1464.71 1631.7 1464.71 M1640.98 1450.06 L1640.98 1454.31 Q1639.22 1453.48 1637.42 1453.04 Q1635.64 1452.6 1633.88 1452.6 Q1629.25 1452.6 1626.79 1455.73 Q1624.36 1458.85 1624.02 1465.17 Q1625.38 1463.16 1627.44 1462.09 Q1629.5 1461 1631.98 1461 Q1637.19 1461 1640.2 1464.18 Q1643.23 1467.32 1643.23 1472.76 Q1643.23 1478.09 1640.08 1481.31 Q1636.93 1484.52 1631.7 1484.52 Q1625.71 1484.52 1622.53 1479.94 Q1619.36 1475.33 1619.36 1466.61 Q1619.36 1458.41 1623.25 1453.55 Q1627.14 1448.67 1633.69 1448.67 Q1635.45 1448.67 1637.23 1449.01 Q1639.04 1449.36 1640.98 1450.06 Z" fill="#000000" fill-rule="evenodd" fill-opacity="1" /><path clip-path="url(#clip220)" d="M1951.13 1449.29 L1973.35 1449.29 L1973.35 1451.28 L1960.81 1483.85 L1955.92 1483.85 L1967.73 1453.23 L1951.13 1453.23 L1951.13 1449.29 Z" fill="#000000" fill-rule="evenodd" fill-opacity="1" /><path clip-path="url(#clip220)" d="M2293.19 1467.44 Q2289.85 1467.44 2287.93 1469.22 Q2286.03 1471 2286.03 1474.13 Q2286.03 1477.25 2287.93 1479.04 Q2289.85 1480.82 2293.19 1480.82 Q2296.52 1480.82 2298.44 1479.04 Q2300.36 1477.23 2300.36 1474.13 Q2300.36 1471 2298.44 1469.22 Q2296.54 1467.44 2293.19 1467.44 M2288.51 1465.45 Q2285.5 1464.71 2283.81 1462.65 Q2282.14 1460.59 2282.14 1457.63 Q2282.14 1453.48 2285.08 1451.07 Q2288.05 1448.67 2293.19 1448.67 Q2298.35 1448.67 2301.29 1451.07 Q2304.23 1453.48 2304.23 1457.63 Q2304.23 1460.59 2302.54 1462.65 Q2300.87 1464.71 2297.88 1465.45 Q2301.26 1466.24 2303.14 1468.53 Q2305.04 1470.82 2305.04 1474.13 Q2305.04 1479.15 2301.96 1481.84 Q2298.9 1484.52 2293.19 1484.52 Q2287.47 1484.52 2284.39 1481.84 Q2281.33 1479.15 2281.33 1474.13 Q2281.33 1470.82 2283.23 1468.53 Q2285.13 1466.24 2288.51 1465.45 M2286.8 1458.06 Q2286.8 1460.75 2288.46 1462.25 Q2290.15 1463.76 2293.19 1463.76 Q2296.2 1463.76 2297.88 1462.25 Q2299.6 1460.75 2299.6 1458.06 Q2299.6 1455.38 2297.88 1453.88 Q2296.2 1452.37 2293.19 1452.37 Q2290.15 1452.37 2288.46 1453.88 Q2286.8 1455.38 2286.8 1458.06 Z" fill="#000000" fill-rule="evenodd" fill-opacity="1" /><path clip-path="url(#clip220)" d="M1231.6 1536.5 Q1226.89 1536.5 1224.15 1540.19 Q1221.42 1543.85 1221.42 1550.25 Q1221.42 1556.65 1224.12 1560.34 Q1226.86 1564 1231.6 1564 Q1236.28 1564 1239.02 1560.31 Q1241.75 1556.62 1241.75 1550.25 Q1241.75 1543.92 1239.02 1540.23 Q1236.28 1536.5 1231.6 1536.5 M1231.6 1531.54 Q1239.24 1531.54 1243.6 1536.5 Q1247.96 1541.47 1247.96 1550.25 Q1247.96 1559 1243.6 1564 Q1239.24 1568.97 1231.6 1568.97 Q1223.93 1568.97 1219.57 1564 Q1215.24 1559 1215.24 1550.25 Q1215.24 1541.47 1219.57 1536.5 Q1223.93 1531.54 1231.6 1531.54 Z" fill="#000000" fill-rule="evenodd" fill-opacity="1" /><path clip-path="url(#clip220)" d="M1278.33 1537.87 Q1277.34 1537.3 1276.16 1537.04 Q1275.01 1536.76 1273.61 1536.76 Q1268.65 1536.76 1265.98 1540 Q1263.33 1543.22 1263.33 1549.27 L1263.33 1568.04 L1257.45 1568.04 L1257.45 1532.4 L1263.33 1532.4 L1263.33 1537.93 Q1265.18 1534.69 1268.14 1533.13 Q1271.1 1531.54 1275.33 1531.54 Q1275.94 1531.54 1276.67 1531.63 Q1277.4 1531.7 1278.29 1531.85 L1278.33 1537.87 Z" fill="#000000" fill-rule="evenodd" fill-opacity="1" /><path clip-path="url(#clip220)" d="M1306.78 1537.81 L1306.78 1518.52 L1312.64 1518.52 L1312.64 1568.04 L1306.78 1568.04 L1306.78 1562.7 Q1304.93 1565.88 1302.1 1567.44 Q1299.3 1568.97 1295.35 1568.97 Q1288.89 1568.97 1284.82 1563.81 Q1280.78 1558.65 1280.78 1550.25 Q1280.78 1541.85 1284.82 1536.69 Q1288.89 1531.54 1295.35 1531.54 Q1299.3 1531.54 1302.1 1533.1 Q1304.93 1534.62 1306.78 1537.81 M1286.82 1550.25 Q1286.82 1556.71 1289.47 1560.4 Q1292.14 1564.07 1296.79 1564.07 Q1301.43 1564.07 1304.11 1560.4 Q1306.78 1556.71 1306.78 1550.25 Q1306.78 1543.79 1304.11 1540.13 Q1301.43 1536.44 1296.79 1536.44 Q1292.14 1536.44 1289.47 1540.13 Q1286.82 1543.79 1286.82 1550.25 Z" fill="#000000" fill-rule="evenodd" fill-opacity="1" /><path clip-path="url(#clip220)" d="M1355.19 1548.76 L1355.19 1551.62 L1328.26 1551.62 Q1328.65 1557.67 1331.89 1560.85 Q1335.17 1564 1341 1564 Q1344.37 1564 1347.52 1563.17 Q1350.7 1562.35 1353.82 1560.69 L1353.82 1566.23 Q1350.67 1567.57 1347.36 1568.27 Q1344.05 1568.97 1340.65 1568.97 Q1332.12 1568.97 1327.12 1564 Q1322.15 1559.04 1322.15 1550.57 Q1322.15 1541.82 1326.86 1536.69 Q1331.61 1531.54 1339.63 1531.54 Q1346.82 1531.54 1350.99 1536.18 Q1355.19 1540.8 1355.19 1548.76 M1349.33 1547.04 Q1349.27 1542.23 1346.63 1539.37 Q1344.02 1536.5 1339.69 1536.5 Q1334.79 1536.5 1331.83 1539.27 Q1328.9 1542.04 1328.45 1547.07 L1349.33 1547.04 Z" fill="#000000" fill-rule="evenodd" fill-opacity="1" /><path clip-path="url(#clip220)" d="M1385.46 1537.87 Q1384.47 1537.3 1383.3 1537.04 Q1382.15 1536.76 1380.75 1536.76 Q1375.78 1536.76 1373.11 1540 Q1370.47 1543.22 1370.47 1549.27 L1370.47 1568.04 L1364.58 1568.04 L1364.58 1532.4 L1370.47 1532.4 L1370.47 1537.93 Q1372.31 1534.69 1375.27 1533.13 Q1378.23 1531.54 1382.47 1531.54 Q1383.07 1531.54 1383.8 1531.63 Q1384.54 1531.7 1385.43 1531.85 L1385.46 1537.87 Z" fill="#000000" fill-rule="evenodd" fill-opacity="1" /><polyline clip-path="url(#clip222)" style="stroke:#000000; stroke-linecap:butt; stroke-linejoin:round; stroke-width:2; stroke-opacity:0.1; fill:none" points="
  247.945,1236.62 2352.76,1236.62 
  "/>
<polyline clip-path="url(#clip222)" style="stroke:#000000; stroke-linecap:butt; stroke-linejoin:round; stroke-width:2; stroke-opacity:0.1; fill:none" points="
  247.945,981.523 2352.76,981.523 
  "/>
<polyline clip-path="url(#clip222)" style="stroke:#000000; stroke-linecap:butt; stroke-linejoin:round; stroke-width:2; stroke-opacity:0.1; fill:none" points="
  247.945,726.42 2352.76,726.42 
  "/>
<polyline clip-path="url(#clip222)" style="stroke:#000000; stroke-linecap:butt; stroke-linejoin:round; stroke-width:2; stroke-opacity:0.1; fill:none" points="
  247.945,471.318 2352.76,471.318 
  "/>
<polyline clip-path="url(#clip222)" style="stroke:#000000; stroke-linecap:butt; stroke-linejoin:round; stroke-width:2; stroke-opacity:0.1; fill:none" points="
  247.945,216.215 2352.76,216.215 
  "/>
<polyline clip-path="url(#clip220)" style="stroke:#000000; stroke-linecap:butt; stroke-linejoin:round; stroke-width:4; stroke-opacity:1; fill:none" points="
  247.945,1423.18 247.945,47.2441 
  "/>
<polyline clip-path="url(#clip220)" style="stroke:#000000; stroke-linecap:butt; stroke-linejoin:round; stroke-width:4; stroke-opacity:1; fill:none" points="
  247.945,1236.62 273.203,1236.62 
  "/>
<polyline clip-path="url(#clip220)" style="stroke:#000000; stroke-linecap:butt; stroke-linejoin:round; stroke-width:4; stroke-opacity:1; fill:none" points="
  247.945,981.523 273.203,981.523 
  "/>
<polyline clip-path="url(#clip220)" style="stroke:#000000; stroke-linecap:butt; stroke-linejoin:round; stroke-width:4; stroke-opacity:1; fill:none" points="
  247.945,726.42 273.203,726.42 
  "/>
<polyline clip-path="url(#clip220)" style="stroke:#000000; stroke-linecap:butt; stroke-linejoin:round; stroke-width:4; stroke-opacity:1; fill:none" points="
  247.945,471.318 273.203,471.318 
  "/>
<polyline clip-path="url(#clip220)" style="stroke:#000000; stroke-linecap:butt; stroke-linejoin:round; stroke-width:4; stroke-opacity:1; fill:none" points="
  247.945,216.215 273.203,216.215 
  "/>
<path clip-path="url(#clip220)" d="M117.015 1249.97 L124.654 1249.97 L124.654 1223.6 L116.343 1225.27 L116.343 1221.01 L124.607 1219.34 L129.283 1219.34 L129.283 1249.97 L136.922 1249.97 L136.922 1253.9 L117.015 1253.9 L117.015 1249.97 Z" fill="#000000" fill-rule="evenodd" fill-opacity="1" /><path clip-path="url(#clip220)" d="M159.214 1223.42 L147.408 1241.87 L159.214 1241.87 L159.214 1223.42 M157.987 1219.34 L163.866 1219.34 L163.866 1241.87 L168.797 1241.87 L168.797 1245.76 L163.866 1245.76 L163.866 1253.9 L159.214 1253.9 L159.214 1245.76 L143.612 1245.76 L143.612 1241.24 L157.987 1219.34 Z" fill="#000000" fill-rule="evenodd" fill-opacity="1" /><path clip-path="url(#clip220)" d="M176.528 1248.03 L181.413 1248.03 L181.413 1253.9 L176.528 1253.9 L176.528 1248.03 Z" fill="#000000" fill-rule="evenodd" fill-opacity="1" /><path clip-path="url(#clip220)" d="M195.625 1249.97 L211.945 1249.97 L211.945 1253.9 L190 1253.9 L190 1249.97 Q192.663 1247.22 197.246 1242.59 Q201.852 1237.93 203.033 1236.59 Q205.278 1234.07 206.158 1232.33 Q207.061 1230.57 207.061 1228.88 Q207.061 1226.13 205.116 1224.39 Q203.195 1222.66 200.093 1222.66 Q197.894 1222.66 195.44 1223.42 Q193.01 1224.18 190.232 1225.73 L190.232 1221.01 Q193.056 1219.88 195.51 1219.3 Q197.963 1218.72 200 1218.72 Q205.371 1218.72 208.565 1221.41 Q211.76 1224.09 211.76 1228.58 Q211.76 1230.71 210.949 1232.63 Q210.162 1234.53 208.056 1237.12 Q207.477 1237.79 204.375 1241.01 Q201.274 1244.21 195.625 1249.97 Z" fill="#000000" fill-rule="evenodd" fill-opacity="1" /><path clip-path="url(#clip220)" d="M116.066 994.867 L123.705 994.867 L123.705 968.502 L115.394 970.168 L115.394 965.909 L123.658 964.243 L128.334 964.243 L128.334 994.867 L135.973 994.867 L135.973 998.803 L116.066 998.803 L116.066 994.867 Z" fill="#000000" fill-rule="evenodd" fill-opacity="1" /><path clip-path="url(#clip220)" d="M158.265 968.317 L146.459 986.766 L158.265 986.766 L158.265 968.317 M157.038 964.243 L162.917 964.243 L162.917 986.766 L167.848 986.766 L167.848 990.654 L162.917 990.654 L162.917 998.803 L158.265 998.803 L158.265 990.654 L142.663 990.654 L142.663 986.141 L157.038 964.243 Z" fill="#000000" fill-rule="evenodd" fill-opacity="1" /><path clip-path="url(#clip220)" d="M175.579 992.923 L180.464 992.923 L180.464 998.803 L175.579 998.803 L175.579 992.923 Z" fill="#000000" fill-rule="evenodd" fill-opacity="1" /><path clip-path="url(#clip220)" d="M204.815 980.168 Q208.172 980.886 210.047 983.154 Q211.945 985.423 211.945 988.756 Q211.945 993.872 208.426 996.673 Q204.908 999.474 198.426 999.474 Q196.25 999.474 193.936 999.034 Q191.644 998.617 189.19 997.761 L189.19 993.247 Q191.135 994.381 193.45 994.96 Q195.764 995.539 198.287 995.539 Q202.686 995.539 204.977 993.803 Q207.292 992.066 207.292 988.756 Q207.292 985.701 205.139 983.988 Q203.01 982.252 199.19 982.252 L195.163 982.252 L195.163 978.409 L199.375 978.409 Q202.824 978.409 204.653 977.043 Q206.482 975.654 206.482 973.062 Q206.482 970.4 204.584 968.988 Q202.709 967.553 199.19 967.553 Q197.269 967.553 195.07 967.969 Q192.871 968.386 190.232 969.266 L190.232 965.099 Q192.894 964.358 195.209 963.988 Q197.547 963.618 199.607 963.618 Q204.931 963.618 208.033 966.048 Q211.135 968.455 211.135 972.576 Q211.135 975.446 209.491 977.437 Q207.848 979.404 204.815 980.168 Z" fill="#000000" fill-rule="evenodd" fill-opacity="1" /><path clip-path="url(#clip220)" d="M114.931 739.765 L122.57 739.765 L122.57 713.399 L114.26 715.066 L114.26 710.807 L122.524 709.14 L127.2 709.14 L127.2 739.765 L134.839 739.765 L134.839 743.7 L114.931 743.7 L114.931 739.765 Z" fill="#000000" fill-rule="evenodd" fill-opacity="1" /><path clip-path="url(#clip220)" d="M157.13 713.214 L145.325 731.663 L157.13 731.663 L157.13 713.214 M155.903 709.14 L161.783 709.14 L161.783 731.663 L166.714 731.663 L166.714 735.552 L161.783 735.552 L161.783 743.7 L157.13 743.7 L157.13 735.552 L141.529 735.552 L141.529 731.038 L155.903 709.14 Z" fill="#000000" fill-rule="evenodd" fill-opacity="1" /><path clip-path="url(#clip220)" d="M174.445 737.821 L179.329 737.821 L179.329 743.7 L174.445 743.7 L174.445 737.821 Z" fill="#000000" fill-rule="evenodd" fill-opacity="1" /><path clip-path="url(#clip220)" d="M202.362 713.214 L190.556 731.663 L202.362 731.663 L202.362 713.214 M201.135 709.14 L207.014 709.14 L207.014 731.663 L211.945 731.663 L211.945 735.552 L207.014 735.552 L207.014 743.7 L202.362 743.7 L202.362 735.552 L186.76 735.552 L186.76 731.038 L201.135 709.14 Z" fill="#000000" fill-rule="evenodd" fill-opacity="1" /><path clip-path="url(#clip220)" d="M116.413 484.663 L124.052 484.663 L124.052 458.297 L115.742 459.964 L115.742 455.704 L124.005 454.038 L128.681 454.038 L128.681 484.663 L136.32 484.663 L136.32 488.598 L116.413 488.598 L116.413 484.663 Z" fill="#000000" fill-rule="evenodd" fill-opacity="1" /><path clip-path="url(#clip220)" d="M158.612 458.112 L146.806 476.561 L158.612 476.561 L158.612 458.112 M157.385 454.038 L163.265 454.038 L163.265 476.561 L168.195 476.561 L168.195 480.45 L163.265 480.45 L163.265 488.598 L158.612 488.598 L158.612 480.45 L143.01 480.45 L143.01 475.936 L157.385 454.038 Z" fill="#000000" fill-rule="evenodd" fill-opacity="1" /><path clip-path="url(#clip220)" d="M175.926 482.718 L180.811 482.718 L180.811 488.598 L175.926 488.598 L175.926 482.718 Z" fill="#000000" fill-rule="evenodd" fill-opacity="1" /><path clip-path="url(#clip220)" d="M191.042 454.038 L209.399 454.038 L209.399 457.973 L195.325 457.973 L195.325 466.445 Q196.343 466.098 197.362 465.936 Q198.38 465.751 199.399 465.751 Q205.186 465.751 208.565 468.922 Q211.945 472.093 211.945 477.51 Q211.945 483.089 208.473 486.19 Q205 489.269 198.681 489.269 Q196.505 489.269 194.237 488.899 Q191.991 488.528 189.584 487.788 L189.584 483.089 Q191.667 484.223 193.889 484.778 Q196.112 485.334 198.588 485.334 Q202.593 485.334 204.931 483.227 Q207.269 481.121 207.269 477.51 Q207.269 473.899 204.931 471.792 Q202.593 469.686 198.588 469.686 Q196.713 469.686 194.838 470.102 Q192.987 470.519 191.042 471.399 L191.042 454.038 Z" fill="#000000" fill-rule="evenodd" fill-opacity="1" /><path clip-path="url(#clip220)" d="M115.256 229.56 L122.894 229.56 L122.894 203.195 L114.584 204.861 L114.584 200.602 L122.848 198.935 L127.524 198.935 L127.524 229.56 L135.163 229.56 L135.163 233.495 L115.256 233.495 L115.256 229.56 Z" fill="#000000" fill-rule="evenodd" fill-opacity="1" /><path clip-path="url(#clip220)" d="M157.454 203.009 L145.649 221.458 L157.454 221.458 L157.454 203.009 M156.228 198.935 L162.107 198.935 L162.107 221.458 L167.038 221.458 L167.038 225.347 L162.107 225.347 L162.107 233.495 L157.454 233.495 L157.454 225.347 L141.853 225.347 L141.853 220.833 L156.228 198.935 Z" fill="#000000" fill-rule="evenodd" fill-opacity="1" /><path clip-path="url(#clip220)" d="M174.769 227.616 L179.653 227.616 L179.653 233.495 L174.769 233.495 L174.769 227.616 Z" fill="#000000" fill-rule="evenodd" fill-opacity="1" /><path clip-path="url(#clip220)" d="M200.417 214.352 Q197.269 214.352 195.417 216.505 Q193.588 218.657 193.588 222.407 Q193.588 226.134 195.417 228.31 Q197.269 230.463 200.417 230.463 Q203.565 230.463 205.394 228.31 Q207.246 226.134 207.246 222.407 Q207.246 218.657 205.394 216.505 Q203.565 214.352 200.417 214.352 M209.699 199.699 L209.699 203.958 Q207.94 203.125 206.135 202.685 Q204.352 202.246 202.593 202.246 Q197.963 202.246 195.51 205.371 Q193.079 208.496 192.732 214.815 Q194.098 212.801 196.158 211.736 Q198.218 210.648 200.695 210.648 Q205.903 210.648 208.912 213.82 Q211.945 216.968 211.945 222.407 Q211.945 227.732 208.797 230.949 Q205.649 234.167 200.417 234.167 Q194.422 234.167 191.25 229.583 Q188.079 224.977 188.079 216.25 Q188.079 208.056 191.968 203.195 Q195.857 198.31 202.408 198.31 Q204.167 198.31 205.949 198.658 Q207.755 199.005 209.699 199.699 Z" fill="#000000" fill-rule="evenodd" fill-opacity="1" /><path clip-path="url(#clip220)" d="M35.1993 1013.14 Q31.2526 1010.94 29.3747 1007.89 Q27.4968 1004.83 27.4968 1000.69 Q27.4968 995.124 31.4117 992.1 Q35.2948 989.076 42.4881 989.076 L64.0042 989.076 L64.0042 994.965 L42.679 994.965 Q37.5546 994.965 35.072 996.779 Q32.5894 998.593 32.5894 1002.32 Q32.5894 1006.87 35.6131 1009.51 Q38.6368 1012.15 43.8567 1012.15 L64.0042 1012.15 L64.0042 1018.04 L42.679 1018.04 Q37.5228 1018.04 35.072 1019.85 Q32.5894 1021.67 32.5894 1025.46 Q32.5894 1029.94 35.6449 1032.59 Q38.6686 1035.23 43.8567 1035.23 L64.0042 1035.23 L64.0042 1041.12 L28.3562 1041.12 L28.3562 1035.23 L33.8944 1035.23 Q30.616 1033.22 29.0564 1030.42 Q27.4968 1027.62 27.4968 1023.77 Q27.4968 1019.89 29.4702 1017.18 Q31.4436 1014.44 35.1993 1013.14 Z" fill="#000000" fill-rule="evenodd" fill-opacity="1" /><path clip-path="url(#clip220)" d="M32.4621 963.582 Q32.4621 968.292 36.1542 971.03 Q39.8145 973.767 46.212 973.767 Q52.6095 973.767 56.3017 971.061 Q59.9619 968.324 59.9619 963.582 Q59.9619 958.903 56.2698 956.166 Q52.5777 953.428 46.212 953.428 Q39.8781 953.428 36.186 956.166 Q32.4621 958.903 32.4621 963.582 M27.4968 963.582 Q27.4968 955.943 32.4621 951.582 Q37.4273 947.222 46.212 947.222 Q54.9649 947.222 59.9619 951.582 Q64.9272 955.943 64.9272 963.582 Q64.9272 971.252 59.9619 975.613 Q54.9649 979.942 46.212 979.942 Q37.4273 979.942 32.4621 975.613 Q27.4968 971.252 27.4968 963.582 Z" fill="#000000" fill-rule="evenodd" fill-opacity="1" /><path clip-path="url(#clip220)" d="M14.479 937.514 L14.479 931.658 L64.0042 931.658 L64.0042 937.514 L14.479 937.514 Z" fill="#000000" fill-rule="evenodd" fill-opacity="1" /><path clip-path="url(#clip220)" d="M44.7161 888.912 L47.5806 888.912 L47.5806 915.839 Q53.6281 915.457 56.8109 912.21 Q59.9619 908.932 59.9619 903.107 Q59.9619 899.734 59.1344 896.583 Q58.3069 893.4 56.6518 890.281 L62.1899 890.281 Q63.5267 893.432 64.227 896.742 Q64.9272 900.052 64.9272 903.458 Q64.9272 911.988 59.9619 916.985 Q54.9967 921.95 46.5303 921.95 Q37.7774 921.95 32.6531 917.239 Q27.4968 912.497 27.4968 904.476 Q27.4968 897.283 32.1438 893.113 Q36.7589 888.912 44.7161 888.912 M42.9973 894.768 Q38.1912 894.832 35.3266 897.474 Q32.4621 900.084 32.4621 904.412 Q32.4621 909.314 35.2312 912.274 Q38.0002 915.202 43.0292 915.648 L42.9973 894.768 Z" fill="#000000" fill-rule="evenodd" fill-opacity="1" /><path clip-path="url(#clip220)" d="M29.7248 853.646 L35.1993 853.646 Q33.8307 856.129 33.1623 858.643 Q32.4621 861.126 32.4621 863.672 Q32.4621 869.369 36.0905 872.52 Q39.6872 875.671 46.212 875.671 Q52.7369 875.671 56.3653 872.52 Q59.9619 869.369 59.9619 863.672 Q59.9619 861.126 59.2935 858.643 Q58.5933 856.129 57.2247 853.646 L62.6355 853.646 Q63.7814 856.097 64.3543 858.739 Q64.9272 861.348 64.9272 864.308 Q64.9272 872.361 59.8664 877.104 Q54.8057 881.846 46.212 881.846 Q37.491 881.846 32.4939 877.072 Q27.4968 872.266 27.4968 863.927 Q27.4968 861.221 28.0697 858.643 Q28.6108 856.065 29.7248 853.646 Z" fill="#000000" fill-rule="evenodd" fill-opacity="1" /><path clip-path="url(#clip220)" d="M49.9359 844.066 L28.3562 844.066 L28.3562 838.209 L49.7131 838.209 Q54.7739 838.209 57.3202 836.236 Q59.8346 834.262 59.8346 830.316 Q59.8346 825.573 56.8109 822.836 Q53.7872 820.067 48.5673 820.067 L28.3562 820.067 L28.3562 814.21 L64.0042 814.21 L64.0042 820.067 L58.5296 820.067 Q61.7762 822.199 63.3676 825.032 Q64.9272 827.833 64.9272 831.557 Q64.9272 837.7 61.1078 840.883 Q57.2883 844.066 49.9359 844.066 M27.4968 829.329 L27.4968 829.329 Z" fill="#000000" fill-rule="evenodd" fill-opacity="1" /><path clip-path="url(#clip220)" d="M14.479 802.147 L14.479 796.291 L64.0042 796.291 L64.0042 802.147 L14.479 802.147 Z" fill="#000000" fill-rule="evenodd" fill-opacity="1" /><path clip-path="url(#clip220)" d="M46.0847 767.836 Q46.0847 774.934 47.7079 777.671 Q49.3312 780.408 53.2461 780.408 Q56.3653 780.408 58.2114 778.371 Q60.0256 776.303 60.0256 772.77 Q60.0256 767.9 56.5881 764.972 Q53.1188 762.012 47.3897 762.012 L46.0847 762.012 L46.0847 767.836 M43.6657 756.155 L64.0042 756.155 L64.0042 762.012 L58.5933 762.012 Q61.8398 764.017 63.3994 767.009 Q64.9272 770.001 64.9272 774.329 Q64.9272 779.804 61.8716 783.05 Q58.7843 786.265 53.6281 786.265 Q47.6125 786.265 44.5569 782.255 Q41.5014 778.212 41.5014 770.223 L41.5014 762.012 L40.9285 762.012 Q36.8862 762.012 34.6901 764.685 Q32.4621 767.327 32.4621 772.133 Q32.4621 775.189 33.1941 778.085 Q33.9262 780.981 35.3903 783.655 L29.9795 783.655 Q28.7381 780.44 28.1334 777.417 Q27.4968 774.393 27.4968 771.528 Q27.4968 763.794 31.5072 759.975 Q35.5176 756.155 43.6657 756.155 Z" fill="#000000" fill-rule="evenodd" fill-opacity="1" /><path clip-path="url(#clip220)" d="M33.8307 723.435 Q33.2578 724.422 33.0032 725.6 Q32.7167 726.746 32.7167 728.146 Q32.7167 733.111 35.9632 735.785 Q39.1779 738.427 45.2253 738.427 L64.0042 738.427 L64.0042 744.315 L28.3562 744.315 L28.3562 738.427 L33.8944 738.427 Q30.6479 736.581 29.0883 733.621 Q27.4968 730.66 27.4968 726.427 Q27.4968 725.823 27.5923 725.09 Q27.656 724.358 27.8151 723.467 L33.8307 723.435 Z" fill="#000000" fill-rule="evenodd" fill-opacity="1" /><path clip-path="url(#clip220)" d="M29.7248 670.918 L35.1993 670.918 Q33.8307 673.401 33.1623 675.915 Q32.4621 678.398 32.4621 680.944 Q32.4621 686.642 36.0905 689.793 Q39.6872 692.944 46.212 692.944 Q52.7369 692.944 56.3653 689.793 Q59.9619 686.642 59.9619 680.944 Q59.9619 678.398 59.2935 675.915 Q58.5933 673.401 57.2247 670.918 L62.6355 670.918 Q63.7814 673.369 64.3543 676.011 Q64.9272 678.621 64.9272 681.581 Q64.9272 689.634 59.8664 694.376 Q54.8057 699.118 46.212 699.118 Q37.491 699.118 32.4939 694.344 Q27.4968 689.538 27.4968 681.199 Q27.4968 678.494 28.0697 675.915 Q28.6108 673.337 29.7248 670.918 Z" fill="#000000" fill-rule="evenodd" fill-opacity="1" /><path clip-path="url(#clip220)" d="M32.4621 646.92 Q32.4621 651.63 36.1542 654.367 Q39.8145 657.105 46.212 657.105 Q52.6095 657.105 56.3017 654.399 Q59.9619 651.662 59.9619 646.92 Q59.9619 642.241 56.2698 639.504 Q52.5777 636.766 46.212 636.766 Q39.8781 636.766 36.186 639.504 Q32.4621 642.241 32.4621 646.92 M27.4968 646.92 Q27.4968 639.281 32.4621 634.92 Q37.4273 630.56 46.212 630.56 Q54.9649 630.56 59.9619 634.92 Q64.9272 639.281 64.9272 646.92 Q64.9272 654.59 59.9619 658.951 Q54.9649 663.279 46.212 663.279 Q37.4273 663.279 32.4621 658.951 Q27.4968 654.59 27.4968 646.92 Z" fill="#000000" fill-rule="evenodd" fill-opacity="1" /><path clip-path="url(#clip220)" d="M49.9359 621.457 L28.3562 621.457 L28.3562 615.6 L49.7131 615.6 Q54.7739 615.6 57.3202 613.627 Q59.8346 611.654 59.8346 607.707 Q59.8346 602.964 56.8109 600.227 Q53.7872 597.458 48.5673 597.458 L28.3562 597.458 L28.3562 591.602 L64.0042 591.602 L64.0042 597.458 L58.5296 597.458 Q61.7762 599.591 63.3676 602.423 Q64.9272 605.224 64.9272 608.948 Q64.9272 615.091 61.1078 618.274 Q57.2883 621.457 49.9359 621.457 M27.4968 606.72 L27.4968 606.72 Z" fill="#000000" fill-rule="evenodd" fill-opacity="1" /><path clip-path="url(#clip220)" d="M42.4881 549.906 L64.0042 549.906 L64.0042 555.763 L42.679 555.763 Q37.6183 555.763 35.1038 557.736 Q32.5894 559.709 32.5894 563.656 Q32.5894 568.399 35.6131 571.136 Q38.6368 573.873 43.8567 573.873 L64.0042 573.873 L64.0042 579.761 L28.3562 579.761 L28.3562 573.873 L33.8944 573.873 Q30.6797 571.772 29.0883 568.94 Q27.4968 566.075 27.4968 562.351 Q27.4968 556.208 31.3163 553.057 Q35.1038 549.906 42.4881 549.906 Z" fill="#000000" fill-rule="evenodd" fill-opacity="1" /><path clip-path="url(#clip220)" d="M18.2347 532.432 L28.3562 532.432 L28.3562 520.369 L32.9077 520.369 L32.9077 532.432 L52.2594 532.432 Q56.6199 532.432 57.8613 531.255 Q59.1026 530.045 59.1026 526.385 L59.1026 520.369 L64.0042 520.369 L64.0042 526.385 Q64.0042 533.164 61.4897 535.743 Q58.9434 538.321 52.2594 538.321 L32.9077 538.321 L32.9077 542.618 L28.3562 542.618 L28.3562 538.321 L18.2347 538.321 L18.2347 532.432 Z" fill="#000000" fill-rule="evenodd" fill-opacity="1" /><path clip-path="url(#clip220)" d="M14.479 492.488 L14.479 478.992 L19.0304 478.992 L19.0304 486.631 L68.0464 486.631 L68.0464 478.992 L72.5979 478.992 L72.5979 492.488 L14.479 492.488 Z" fill="#000000" fill-rule="evenodd" fill-opacity="1" /><path clip-path="url(#clip220)" d="M43.5384 469.476 L43.5384 452.32 L48.7583 452.32 L48.7583 469.476 L43.5384 469.476 Z" fill="#000000" fill-rule="evenodd" fill-opacity="1" /><path clip-path="url(#clip220)" d="M14.479 429.308 L72.5979 429.308 L72.5979 442.803 L68.0464 442.803 L68.0464 435.196 L19.0304 435.196 L19.0304 442.803 L14.479 442.803 L14.479 429.308 Z" fill="#000000" fill-rule="evenodd" fill-opacity="1" /><polyline clip-path="url(#clip222)" style="stroke:#0000ff; stroke-linecap:butt; stroke-linejoin:round; stroke-width:4; stroke-opacity:1; fill:none" points="
  307.515,1384.24 969.405,740.846 1631.3,729.271 2293.19,728.956 
  "/>
<path clip-path="url(#clip222)" d="M307.515 1368.24 L291.515 1400.24 L323.515 1400.24 L307.515 1368.24 Z" fill="#0000ff" fill-rule="evenodd" fill-opacity="1" stroke="#000000" stroke-opacity="1" stroke-width="3.2"/>
<path clip-path="url(#clip222)" d="M969.405 724.846 L953.405 756.846 L985.405 756.846 L969.405 724.846 Z" fill="#0000ff" fill-rule="evenodd" fill-opacity="1" stroke="#000000" stroke-opacity="1" stroke-width="3.2"/>
<path clip-path="url(#clip222)" d="M1631.3 713.271 L1615.3 745.271 L1647.3 745.271 L1631.3 713.271 Z" fill="#0000ff" fill-rule="evenodd" fill-opacity="1" stroke="#000000" stroke-opacity="1" stroke-width="3.2"/>
<path clip-path="url(#clip222)" d="M2293.19 712.956 L2277.19 744.956 L2309.19 744.956 L2293.19 712.956 Z" fill="#0000ff" fill-rule="evenodd" fill-opacity="1" stroke="#000000" stroke-opacity="1" stroke-width="3.2"/>
<polyline clip-path="url(#clip222)" style="stroke:#ff0000; stroke-linecap:butt; stroke-linejoin:round; stroke-width:4; stroke-opacity:1; fill:none" points="
  307.515,86.1857 969.405,717.498 1631.3,728.63 2293.19,728.933 
  "/>
<path clip-path="url(#clip222)" d="M323.515 70.1857 L291.515 70.1857 L307.515 102.186 L323.515 70.1857 Z" fill="#ff0000" fill-rule="evenodd" fill-opacity="1" stroke="#000000" stroke-opacity="1" stroke-width="3.2"/>
<path clip-path="url(#clip222)" d="M985.405 701.498 L953.405 701.498 L969.405 733.498 L985.405 701.498 Z" fill="#ff0000" fill-rule="evenodd" fill-opacity="1" stroke="#000000" stroke-opacity="1" stroke-width="3.2"/>
<path clip-path="url(#clip222)" d="M1647.3 712.63 L1615.3 712.63 L1631.3 744.63 L1647.3 712.63 Z" fill="#ff0000" fill-rule="evenodd" fill-opacity="1" stroke="#000000" stroke-opacity="1" stroke-width="3.2"/>
<path clip-path="url(#clip222)" d="M2309.19 712.933 L2277.19 712.933 L2293.19 744.933 L2309.19 712.933 Z" fill="#ff0000" fill-rule="evenodd" fill-opacity="1" stroke="#000000" stroke-opacity="1" stroke-width="3.2"/>
<path clip-path="url(#clip220)" d="
M1753.82 274.549 L2282.6 274.549 L2282.6 93.1086 L1753.82 93.1086  Z
  " fill="#ffffff" fill-rule="evenodd" fill-opacity="1"/>
<polyline clip-path="url(#clip220)" style="stroke:#000000; stroke-linecap:butt; stroke-linejoin:round; stroke-width:4; stroke-opacity:1; fill:none" points="
  1753.82,274.549 2282.6,274.549 2282.6,93.1086 1753.82,93.1086 1753.82,274.549 
  "/>
<polyline clip-path="url(#clip220)" style="stroke:#0000ff; stroke-linecap:butt; stroke-linejoin:round; stroke-width:4; stroke-opacity:1; fill:none" points="
  1777.21,153.589 1917.53,153.589 
  "/>
<path clip-path="url(#clip220)" d="M1847.37 127.989 L1821.77 179.189 L1872.97 179.189 L1847.37 127.989 Z" fill="#0000ff" fill-rule="evenodd" fill-opacity="1" stroke="#000000" stroke-opacity="1" stroke-width="5.12"/>
<path clip-path="url(#clip220)" d="M1940.92 134.85 L1945.18 134.85 L1945.18 170.869 L1940.92 170.869 L1940.92 134.85 Z" fill="#000000" fill-rule="evenodd" fill-opacity="1" /><path clip-path="url(#clip220)" d="M1964.13 147.929 Q1960.71 147.929 1958.72 150.614 Q1956.73 153.276 1956.73 157.929 Q1956.73 162.582 1958.69 165.267 Q1960.68 167.929 1964.13 167.929 Q1967.54 167.929 1969.53 165.244 Q1971.52 162.558 1971.52 157.929 Q1971.52 153.322 1969.53 150.637 Q1967.54 147.929 1964.13 147.929 M1964.13 144.318 Q1969.69 144.318 1972.86 147.929 Q1976.03 151.54 1976.03 157.929 Q1976.03 164.295 1972.86 167.929 Q1969.69 171.54 1964.13 171.54 Q1958.55 171.54 1955.38 167.929 Q1952.24 164.295 1952.24 157.929 Q1952.24 151.54 1955.38 147.929 Q1958.55 144.318 1964.13 144.318 Z" fill="#000000" fill-rule="evenodd" fill-opacity="1" /><path clip-path="url(#clip220)" d="M1980.61 144.943 L1984.87 144.943 L1990.2 165.174 L1995.5 144.943 L2000.52 144.943 L2005.85 165.174 L2011.15 144.943 L2015.41 144.943 L2008.62 170.869 L2003.6 170.869 L1998.02 149.619 L1992.42 170.869 L1987.4 170.869 L1980.61 144.943 Z" fill="#000000" fill-rule="evenodd" fill-opacity="1" /><path clip-path="url(#clip220)" d="M2044.04 156.841 L2044.04 158.924 L2024.46 158.924 Q2024.74 163.322 2027.1 165.637 Q2029.48 167.929 2033.72 167.929 Q2036.17 167.929 2038.46 167.327 Q2040.78 166.725 2043.05 165.521 L2043.05 169.549 Q2040.75 170.521 2038.35 171.031 Q2035.94 171.54 2033.46 171.54 Q2027.26 171.54 2023.62 167.929 Q2020.01 164.318 2020.01 158.16 Q2020.01 151.795 2023.44 148.068 Q2026.89 144.318 2032.72 144.318 Q2037.95 144.318 2040.99 147.697 Q2044.04 151.054 2044.04 156.841 M2039.78 155.591 Q2039.74 152.096 2037.81 150.012 Q2035.92 147.929 2032.77 147.929 Q2029.2 147.929 2027.05 149.943 Q2024.92 151.957 2024.6 155.614 L2039.78 155.591 Z" fill="#000000" fill-rule="evenodd" fill-opacity="1" /><path clip-path="url(#clip220)" d="M2066.05 148.924 Q2065.34 148.508 2064.48 148.322 Q2063.65 148.114 2062.63 148.114 Q2059.02 148.114 2057.07 150.475 Q2055.15 152.813 2055.15 157.211 L2055.15 170.869 L2050.87 170.869 L2050.87 144.943 L2055.15 144.943 L2055.15 148.971 Q2056.49 146.609 2058.65 145.475 Q2060.8 144.318 2063.88 144.318 Q2064.32 144.318 2064.85 144.387 Q2065.38 144.434 2066.03 144.549 L2066.05 148.924 Z" fill="#000000" fill-rule="evenodd" fill-opacity="1" /><path clip-path="url(#clip220)" d="M2104.2 157.929 Q2104.2 153.23 2102.26 150.568 Q2100.34 147.883 2096.96 147.883 Q2093.58 147.883 2091.63 150.568 Q2089.71 153.23 2089.71 157.929 Q2089.71 162.628 2091.63 165.313 Q2093.58 167.975 2096.96 167.975 Q2100.34 167.975 2102.26 165.313 Q2104.2 162.628 2104.2 157.929 M2089.71 148.878 Q2091.05 146.563 2093.09 145.452 Q2095.15 144.318 2098 144.318 Q2102.72 144.318 2105.66 148.068 Q2108.62 151.818 2108.62 157.929 Q2108.62 164.04 2105.66 167.79 Q2102.72 171.54 2098 171.54 Q2095.15 171.54 2093.09 170.429 Q2091.05 169.295 2089.71 166.98 L2089.71 170.869 L2085.43 170.869 L2085.43 134.85 L2089.71 134.85 L2089.71 148.878 Z" fill="#000000" fill-rule="evenodd" fill-opacity="1" /><path clip-path="url(#clip220)" d="M2125.73 147.929 Q2122.3 147.929 2120.31 150.614 Q2118.32 153.276 2118.32 157.929 Q2118.32 162.582 2120.29 165.267 Q2122.28 167.929 2125.73 167.929 Q2129.13 167.929 2131.12 165.244 Q2133.11 162.558 2133.11 157.929 Q2133.11 153.322 2131.12 150.637 Q2129.13 147.929 2125.73 147.929 M2125.73 144.318 Q2131.29 144.318 2134.46 147.929 Q2137.63 151.54 2137.63 157.929 Q2137.63 164.295 2134.46 167.929 Q2131.29 171.54 2125.73 171.54 Q2120.15 171.54 2116.98 167.929 Q2113.83 164.295 2113.83 157.929 Q2113.83 151.54 2116.98 147.929 Q2120.15 144.318 2125.73 144.318 Z" fill="#000000" fill-rule="evenodd" fill-opacity="1" /><path clip-path="url(#clip220)" d="M2144.25 160.637 L2144.25 144.943 L2148.51 144.943 L2148.51 160.475 Q2148.51 164.156 2149.94 166.008 Q2151.38 167.836 2154.25 167.836 Q2157.7 167.836 2159.69 165.637 Q2161.7 163.438 2161.7 159.642 L2161.7 144.943 L2165.96 144.943 L2165.96 170.869 L2161.7 170.869 L2161.7 166.887 Q2160.15 169.248 2158.09 170.406 Q2156.05 171.54 2153.35 171.54 Q2148.88 171.54 2146.56 168.762 Q2144.25 165.984 2144.25 160.637 M2154.97 144.318 L2154.97 144.318 Z" fill="#000000" fill-rule="evenodd" fill-opacity="1" /><path clip-path="url(#clip220)" d="M2196.29 155.221 L2196.29 170.869 L2192.03 170.869 L2192.03 155.359 Q2192.03 151.679 2190.59 149.85 Q2189.16 148.022 2186.29 148.022 Q2182.84 148.022 2180.85 150.221 Q2178.85 152.42 2178.85 156.216 L2178.85 170.869 L2174.57 170.869 L2174.57 144.943 L2178.85 144.943 L2178.85 148.971 Q2180.38 146.633 2182.44 145.475 Q2184.53 144.318 2187.23 144.318 Q2191.7 144.318 2193.99 147.096 Q2196.29 149.85 2196.29 155.221 Z" fill="#000000" fill-rule="evenodd" fill-opacity="1" /><path clip-path="url(#clip220)" d="M2221.84 148.878 L2221.84 134.85 L2226.1 134.85 L2226.1 170.869 L2221.84 170.869 L2221.84 166.98 Q2220.5 169.295 2218.44 170.429 Q2216.4 171.54 2213.53 171.54 Q2208.83 171.54 2205.87 167.79 Q2202.93 164.04 2202.93 157.929 Q2202.93 151.818 2205.87 148.068 Q2208.83 144.318 2213.53 144.318 Q2216.4 144.318 2218.44 145.452 Q2220.5 146.563 2221.84 148.878 M2207.33 157.929 Q2207.33 162.628 2209.25 165.313 Q2211.19 167.975 2214.57 167.975 Q2217.95 167.975 2219.9 165.313 Q2221.84 162.628 2221.84 157.929 Q2221.84 153.23 2219.9 150.568 Q2217.95 147.883 2214.57 147.883 Q2211.19 147.883 2209.25 150.568 Q2207.33 153.23 2207.33 157.929 Z" fill="#000000" fill-rule="evenodd" fill-opacity="1" /><polyline clip-path="url(#clip220)" style="stroke:#ff0000; stroke-linecap:butt; stroke-linejoin:round; stroke-width:4; stroke-opacity:1; fill:none" points="
  1777.21,214.069 1917.53,214.069 
  "/>
<path clip-path="url(#clip220)" d="M1872.97 188.469 L1821.77 188.469 L1847.37 239.669 L1872.97 188.469 Z" fill="#ff0000" fill-rule="evenodd" fill-opacity="1" stroke="#000000" stroke-opacity="1" stroke-width="5.12"/>
<path clip-path="url(#clip220)" d="M1940.92 221.117 L1940.92 205.423 L1945.18 205.423 L1945.18 220.955 Q1945.18 224.636 1946.61 226.488 Q1948.05 228.316 1950.92 228.316 Q1954.37 228.316 1956.36 226.117 Q1958.37 223.918 1958.37 220.122 L1958.37 205.423 L1962.63 205.423 L1962.63 231.349 L1958.37 231.349 L1958.37 227.367 Q1956.82 229.728 1954.76 230.886 Q1952.72 232.02 1950.01 232.02 Q1945.55 232.02 1943.23 229.242 Q1940.92 226.464 1940.92 221.117 M1951.63 204.798 L1951.63 204.798 Z" fill="#000000" fill-rule="evenodd" fill-opacity="1" /><path clip-path="url(#clip220)" d="M1975.52 227.46 L1975.52 241.21 L1971.24 241.21 L1971.24 205.423 L1975.52 205.423 L1975.52 209.358 Q1976.87 207.043 1978.9 205.932 Q1980.96 204.798 1983.81 204.798 Q1988.53 204.798 1991.47 208.548 Q1994.43 212.298 1994.43 218.409 Q1994.43 224.52 1991.47 228.27 Q1988.53 232.02 1983.81 232.02 Q1980.96 232.02 1978.9 230.909 Q1976.87 229.775 1975.52 227.46 M1990.01 218.409 Q1990.01 213.71 1988.07 211.048 Q1986.15 208.363 1982.77 208.363 Q1979.39 208.363 1977.44 211.048 Q1975.52 213.71 1975.52 218.409 Q1975.52 223.108 1977.44 225.793 Q1979.39 228.455 1982.77 228.455 Q1986.15 228.455 1988.07 225.793 Q1990.01 223.108 1990.01 218.409 Z" fill="#000000" fill-rule="evenodd" fill-opacity="1" /><path clip-path="url(#clip220)" d="M2005.61 227.46 L2005.61 241.21 L2001.33 241.21 L2001.33 205.423 L2005.61 205.423 L2005.61 209.358 Q2006.96 207.043 2008.99 205.932 Q2011.05 204.798 2013.9 204.798 Q2018.62 204.798 2021.56 208.548 Q2024.53 212.298 2024.53 218.409 Q2024.53 224.52 2021.56 228.27 Q2018.62 232.02 2013.9 232.02 Q2011.05 232.02 2008.99 230.909 Q2006.96 229.775 2005.61 227.46 M2020.11 218.409 Q2020.11 213.71 2018.16 211.048 Q2016.24 208.363 2012.86 208.363 Q2009.48 208.363 2007.54 211.048 Q2005.61 213.71 2005.61 218.409 Q2005.61 223.108 2007.54 225.793 Q2009.48 228.455 2012.86 228.455 Q2016.24 228.455 2018.16 225.793 Q2020.11 223.108 2020.11 218.409 Z" fill="#000000" fill-rule="evenodd" fill-opacity="1" /><path clip-path="url(#clip220)" d="M2053.76 217.321 L2053.76 219.404 L2034.18 219.404 Q2034.46 223.802 2036.82 226.117 Q2039.2 228.409 2043.44 228.409 Q2045.89 228.409 2048.18 227.807 Q2050.5 227.205 2052.77 226.001 L2052.77 230.029 Q2050.48 231.001 2048.07 231.511 Q2045.66 232.02 2043.18 232.02 Q2036.98 232.02 2033.35 228.409 Q2029.74 224.798 2029.74 218.64 Q2029.74 212.275 2033.16 208.548 Q2036.61 204.798 2042.44 204.798 Q2047.67 204.798 2050.71 208.177 Q2053.76 211.534 2053.76 217.321 M2049.5 216.071 Q2049.46 212.576 2047.54 210.492 Q2045.64 208.409 2042.49 208.409 Q2038.92 208.409 2036.77 210.423 Q2034.64 212.437 2034.32 216.094 L2049.5 216.071 Z" fill="#000000" fill-rule="evenodd" fill-opacity="1" /><path clip-path="url(#clip220)" d="M2075.78 209.404 Q2075.06 208.988 2074.2 208.802 Q2073.37 208.594 2072.35 208.594 Q2068.74 208.594 2066.8 210.955 Q2064.87 213.293 2064.87 217.691 L2064.87 231.349 L2060.59 231.349 L2060.59 205.423 L2064.87 205.423 L2064.87 209.451 Q2066.22 207.089 2068.37 205.955 Q2070.52 204.798 2073.6 204.798 Q2074.04 204.798 2074.57 204.867 Q2075.11 204.914 2075.75 205.029 L2075.78 209.404 Z" fill="#000000" fill-rule="evenodd" fill-opacity="1" /><path clip-path="url(#clip220)" d="M2113.92 218.409 Q2113.92 213.71 2111.98 211.048 Q2110.06 208.363 2106.68 208.363 Q2103.3 208.363 2101.36 211.048 Q2099.43 213.71 2099.43 218.409 Q2099.43 223.108 2101.36 225.793 Q2103.3 228.455 2106.68 228.455 Q2110.06 228.455 2111.98 225.793 Q2113.92 223.108 2113.92 218.409 M2099.43 209.358 Q2100.78 207.043 2102.81 205.932 Q2104.87 204.798 2107.72 204.798 Q2112.44 204.798 2115.38 208.548 Q2118.35 212.298 2118.35 218.409 Q2118.35 224.52 2115.38 228.27 Q2112.44 232.02 2107.72 232.02 Q2104.87 232.02 2102.81 230.909 Q2100.78 229.775 2099.43 227.46 L2099.43 231.349 L2095.15 231.349 L2095.15 195.33 L2099.43 195.33 L2099.43 209.358 Z" fill="#000000" fill-rule="evenodd" fill-opacity="1" /><path clip-path="url(#clip220)" d="M2135.45 208.409 Q2132.03 208.409 2130.04 211.094 Q2128.04 213.756 2128.04 218.409 Q2128.04 223.062 2130.01 225.747 Q2132 228.409 2135.45 228.409 Q2138.85 228.409 2140.85 225.724 Q2142.84 223.038 2142.84 218.409 Q2142.84 213.802 2140.85 211.117 Q2138.85 208.409 2135.45 208.409 M2135.45 204.798 Q2141.01 204.798 2144.18 208.409 Q2147.35 212.02 2147.35 218.409 Q2147.35 224.775 2144.18 228.409 Q2141.01 232.02 2135.45 232.02 Q2129.87 232.02 2126.7 228.409 Q2123.55 224.775 2123.55 218.409 Q2123.55 212.02 2126.7 208.409 Q2129.87 204.798 2135.45 204.798 Z" fill="#000000" fill-rule="evenodd" fill-opacity="1" /><path clip-path="url(#clip220)" d="M2153.97 221.117 L2153.97 205.423 L2158.23 205.423 L2158.23 220.955 Q2158.23 224.636 2159.66 226.488 Q2161.1 228.316 2163.97 228.316 Q2167.42 228.316 2169.41 226.117 Q2171.42 223.918 2171.42 220.122 L2171.42 205.423 L2175.68 205.423 L2175.68 231.349 L2171.42 231.349 L2171.42 227.367 Q2169.87 229.728 2167.81 230.886 Q2165.78 232.02 2163.07 232.02 Q2158.6 232.02 2156.29 229.242 Q2153.97 226.464 2153.97 221.117 M2164.69 204.798 L2164.69 204.798 Z" fill="#000000" fill-rule="evenodd" fill-opacity="1" /><path clip-path="url(#clip220)" d="M2206.01 215.701 L2206.01 231.349 L2201.75 231.349 L2201.75 215.839 Q2201.75 212.159 2200.31 210.33 Q2198.88 208.502 2196.01 208.502 Q2192.56 208.502 2190.57 210.701 Q2188.58 212.9 2188.58 216.696 L2188.58 231.349 L2184.29 231.349 L2184.29 205.423 L2188.58 205.423 L2188.58 209.451 Q2190.1 207.113 2192.16 205.955 Q2194.25 204.798 2196.96 204.798 Q2201.42 204.798 2203.72 207.576 Q2206.01 210.33 2206.01 215.701 Z" fill="#000000" fill-rule="evenodd" fill-opacity="1" /><path clip-path="url(#clip220)" d="M2231.56 209.358 L2231.56 195.33 L2235.82 195.33 L2235.82 231.349 L2231.56 231.349 L2231.56 227.46 Q2230.22 229.775 2228.16 230.909 Q2226.12 232.02 2223.25 232.02 Q2218.55 232.02 2215.59 228.27 Q2212.65 224.52 2212.65 218.409 Q2212.65 212.298 2215.59 208.548 Q2218.55 204.798 2223.25 204.798 Q2226.12 204.798 2228.16 205.932 Q2230.22 207.043 2231.56 209.358 M2217.05 218.409 Q2217.05 223.108 2218.97 225.793 Q2220.91 228.455 2224.29 228.455 Q2227.67 228.455 2229.62 225.793 Q2231.56 223.108 2231.56 218.409 Q2231.56 213.71 2229.62 211.048 Q2227.67 208.363 2224.29 208.363 Q2220.91 208.363 2218.97 211.048 Q2217.05 213.71 2217.05 218.409 Z" fill="#000000" fill-rule="evenodd" fill-opacity="1" /></svg>
