<?xml version="1.0" encoding="utf-8"?>
<svg xmlns="http://www.w3.org/2000/svg" xmlns:xlink="http://www.w3.org/1999/xlink" width="600" height="400" viewBox="0 0 2400 1600">
<defs>
  <clipPath id="clip420">
    <rect x="0" y="0" width="2400" height="1600"/>
  </clipPath>
</defs>
<path clip-path="url(#clip420)" d="
M0 1600 L2400 1600 L2400 0 L0 0  Z
  " fill="#ffffff" fill-rule="evenodd" fill-opacity="1"/>
<defs>
  <clipPath id="clip421">
    <rect x="480" y="0" width="1681" height="1600"/>
  </clipPath>
</defs>
<path clip-path="url(#clip420)" d="
M200.63 1423.18 L2352.76 1423.18 L2352.76 47.2441 L200.63 47.2441  Z
  " fill="#ffffff" fill-rule="evenodd" fill-opacity="1"/>
<defs>
  <clipPath id="clip422">
    <rect x="200" y="47" width="2153" height="1377"/>
  </clipPath>
</defs>
<polyline clip-path="url(#clip422)" style="stroke:#000000; stroke-linecap:butt; stroke-linejoin:round; stroke-width:2; stroke-opacity:0.1; fill:none" points="
  257.471,1423.18 257.471,47.2441 
  "/>
<polyline clip-path="url(#clip422)" style="stroke:#000000; stroke-linecap:butt; stroke-linejoin:round; stroke-width:2; stroke-opacity:0.1; fill:none" points="
  664.346,1423.18 664.346,47.2441 
  "/>
<polyline clip-path="url(#clip422)" style="stroke:#000000; stroke-linecap:butt; stroke-linejoin:round; stroke-width:2; stroke-opacity:0.1; fill:none" points="
  1071.22,1423.18 1071.22,47.2441 
  "/>
<polyline clip-path="url(#clip422)" style="stroke:#000000; stroke-linecap:butt; stroke-linejoin:round; stroke-width:2; stroke-opacity:0.1; fill:none" points="
  1478.1,1423.18 1478.1,47.2441 
  "/>
<polyline clip-path="url(#clip422)" style="stroke:#000000; stroke-linecap:butt; stroke-linejoin:round; stroke-width:2; stroke-opacity:0.1; fill:none" points="
  1884.97,1423.18 1884.97,47.2441 
  "/>
<polyline clip-path="url(#clip422)" style="stroke:#000000; stroke-linecap:butt; stroke-linejoin:round; stroke-width:2; stroke-opacity:0.1; fill:none" points="
  2291.85,1423.18 2291.85,47.2441 
  "/>
<polyline clip-path="url(#clip420)" style="stroke:#000000; stroke-linecap:butt; stroke-linejoin:round; stroke-width:4; stroke-opacity:1; fill:none" points="
  200.63,1423.18 2352.76,1423.18 
  "/>
<polyline clip-path="url(#clip420)" style="stroke:#000000; stroke-linecap:butt; stroke-linejoin:round; stroke-width:4; stroke-opacity:1; fill:none" points="
  257.471,1423.18 257.471,1406.67 
  "/>
<polyline clip-path="url(#clip420)" style="stroke:#000000; stroke-linecap:butt; stroke-linejoin:round; stroke-width:4; stroke-opacity:1; fill:none" points="
  664.346,1423.18 664.346,1406.67 
  "/>
<polyline clip-path="url(#clip420)" style="stroke:#000000; stroke-linecap:butt; stroke-linejoin:round; stroke-width:4; stroke-opacity:1; fill:none" points="
  1071.22,1423.18 1071.22,1406.67 
  "/>
<polyline clip-path="url(#clip420)" style="stroke:#000000; stroke-linecap:butt; stroke-linejoin:round; stroke-width:4; stroke-opacity:1; fill:none" points="
  1478.1,1423.18 1478.1,1406.67 
  "/>
<polyline clip-path="url(#clip420)" style="stroke:#000000; stroke-linecap:butt; stroke-linejoin:round; stroke-width:4; stroke-opacity:1; fill:none" points="
  1884.97,1423.18 1884.97,1406.67 
  "/>
<polyline clip-path="url(#clip420)" style="stroke:#000000; stroke-linecap:butt; stroke-linejoin:round; stroke-width:4; stroke-opacity:1; fill:none" points="
  2291.85,1423.18 2291.85,1406.67 
  "/>
<path clip-path="url(#clip420)" d="M257.471 1452.37 Q253.86 1452.37 252.031 1455.94 Q250.225 1459.48 250.225 1466.61 Q250.225 1473.71 252.031 1477.28 Q253.86 1480.82 257.471 1480.82 Q261.105 1480.82 262.911 1477.28 Q264.739 1473.71 264.739 1466.61 Q264.739 1459.48 262.911 1455.94 Q261.105 1452.37 257.471 1452.37 M257.471 1448.67 Q263.281 1448.67 266.336 1453.27 Q269.415 1457.86 269.415 1466.61 Q269.415 1475.33 266.336 1479.94 Q263.281 1484.52 257.471 1484.52 Q251.661 1484.52 248.582 1479.94 Q245.526 1475.33 245.526 1466.61 Q245.526 1457.86 248.582 1453.27 Q251.661 1448.67 257.471 1448.67 Z" fill="#000000" fill-rule="evenodd" fill-opacity="1" /><path clip-path="url(#clip420)" d="M639.034 1479.92 L646.672 1479.92 L646.672 1453.55 L638.362 1455.22 L638.362 1450.96 L646.626 1449.29 L651.302 1449.29 L651.302 1479.92 L658.941 1479.92 L658.941 1483.85 L639.034 1483.85 L639.034 1479.92 Z" fill="#000000" fill-rule="evenodd" fill-opacity="1" /><path clip-path="url(#clip420)" d="M678.385 1452.37 Q674.774 1452.37 672.945 1455.94 Q671.14 1459.48 671.14 1466.61 Q671.14 1473.71 672.945 1477.28 Q674.774 1480.82 678.385 1480.82 Q682.019 1480.82 683.825 1477.28 Q685.654 1473.71 685.654 1466.61 Q685.654 1459.48 683.825 1455.94 Q682.019 1452.37 678.385 1452.37 M678.385 1448.67 Q684.195 1448.67 687.251 1453.27 Q690.33 1457.86 690.33 1466.61 Q690.33 1475.33 687.251 1479.94 Q684.195 1484.52 678.385 1484.52 Q672.575 1484.52 669.496 1479.94 Q666.441 1475.33 666.441 1466.61 Q666.441 1457.86 669.496 1453.27 Q672.575 1448.67 678.385 1448.67 Z" fill="#000000" fill-rule="evenodd" fill-opacity="1" /><path clip-path="url(#clip420)" d="M1049.99 1479.92 L1066.31 1479.92 L1066.31 1483.85 L1044.37 1483.85 L1044.37 1479.92 Q1047.03 1477.16 1051.61 1472.53 Q1056.22 1467.88 1057.4 1466.54 Q1059.65 1464.01 1060.53 1462.28 Q1061.43 1460.52 1061.43 1458.83 Q1061.43 1456.07 1059.49 1454.34 Q1057.56 1452.6 1054.46 1452.6 Q1052.26 1452.6 1049.81 1453.37 Q1047.38 1454.13 1044.6 1455.68 L1044.6 1450.96 Q1047.42 1449.82 1049.88 1449.25 Q1052.33 1448.67 1054.37 1448.67 Q1059.74 1448.67 1062.93 1451.35 Q1066.13 1454.04 1066.13 1458.53 Q1066.13 1460.66 1065.32 1462.58 Q1064.53 1464.48 1062.42 1467.07 Q1061.85 1467.74 1058.74 1470.96 Q1055.64 1474.15 1049.99 1479.92 Z" fill="#000000" fill-rule="evenodd" fill-opacity="1" /><path clip-path="url(#clip420)" d="M1086.13 1452.37 Q1082.52 1452.37 1080.69 1455.94 Q1078.88 1459.48 1078.88 1466.61 Q1078.88 1473.71 1080.69 1477.28 Q1082.52 1480.82 1086.13 1480.82 Q1089.76 1480.82 1091.57 1477.28 Q1093.4 1473.71 1093.4 1466.61 Q1093.4 1459.48 1091.57 1455.94 Q1089.76 1452.37 1086.13 1452.37 M1086.13 1448.67 Q1091.94 1448.67 1094.99 1453.27 Q1098.07 1457.86 1098.07 1466.61 Q1098.07 1475.33 1094.99 1479.94 Q1091.94 1484.52 1086.13 1484.52 Q1080.32 1484.52 1077.24 1479.94 Q1074.18 1475.33 1074.18 1466.61 Q1074.18 1457.86 1077.24 1453.27 Q1080.32 1448.67 1086.13 1448.67 Z" fill="#000000" fill-rule="evenodd" fill-opacity="1" /><path clip-path="url(#clip420)" d="M1466.94 1465.22 Q1470.3 1465.94 1472.17 1468.2 Q1474.07 1470.47 1474.07 1473.81 Q1474.07 1478.92 1470.55 1481.72 Q1467.03 1484.52 1460.55 1484.52 Q1458.37 1484.52 1456.06 1484.08 Q1453.77 1483.67 1451.31 1482.81 L1451.31 1478.3 Q1453.26 1479.43 1455.57 1480.01 Q1457.89 1480.59 1460.41 1480.59 Q1464.81 1480.59 1467.1 1478.85 Q1469.42 1477.12 1469.42 1473.81 Q1469.42 1470.75 1467.26 1469.04 Q1465.13 1467.3 1461.31 1467.3 L1457.29 1467.3 L1457.29 1463.46 L1461.5 1463.46 Q1464.95 1463.46 1466.78 1462.09 Q1468.61 1460.7 1468.61 1458.11 Q1468.61 1455.45 1466.71 1454.04 Q1464.83 1452.6 1461.31 1452.6 Q1459.39 1452.6 1457.19 1453.02 Q1454.99 1453.44 1452.36 1454.31 L1452.36 1450.15 Q1455.02 1449.41 1457.33 1449.04 Q1459.67 1448.67 1461.73 1448.67 Q1467.05 1448.67 1470.16 1451.1 Q1473.26 1453.5 1473.26 1457.63 Q1473.26 1460.5 1471.61 1462.49 Q1469.97 1464.45 1466.94 1465.22 Z" fill="#000000" fill-rule="evenodd" fill-opacity="1" /><path clip-path="url(#clip420)" d="M1492.93 1452.37 Q1489.32 1452.37 1487.49 1455.94 Q1485.69 1459.48 1485.69 1466.61 Q1485.69 1473.71 1487.49 1477.28 Q1489.32 1480.82 1492.93 1480.82 Q1496.57 1480.82 1498.37 1477.28 Q1500.2 1473.71 1500.2 1466.61 Q1500.2 1459.48 1498.37 1455.94 Q1496.57 1452.37 1492.93 1452.37 M1492.93 1448.67 Q1498.74 1448.67 1501.8 1453.27 Q1504.88 1457.86 1504.88 1466.61 Q1504.88 1475.33 1501.8 1479.94 Q1498.74 1484.52 1492.93 1484.52 Q1487.12 1484.52 1484.05 1479.94 Q1480.99 1475.33 1480.99 1466.61 Q1480.99 1457.86 1484.05 1453.27 Q1487.12 1448.67 1492.93 1448.67 Z" fill="#000000" fill-rule="evenodd" fill-opacity="1" /><path clip-path="url(#clip420)" d="M1873.14 1453.37 L1861.34 1471.81 L1873.14 1471.81 L1873.14 1453.37 M1871.92 1449.29 L1877.8 1449.29 L1877.8 1471.81 L1882.73 1471.81 L1882.73 1475.7 L1877.8 1475.7 L1877.8 1483.85 L1873.14 1483.85 L1873.14 1475.7 L1857.54 1475.7 L1857.54 1471.19 L1871.92 1449.29 Z" fill="#000000" fill-rule="evenodd" fill-opacity="1" /><path clip-path="url(#clip420)" d="M1900.46 1452.37 Q1896.85 1452.37 1895.02 1455.94 Q1893.21 1459.48 1893.21 1466.61 Q1893.21 1473.71 1895.02 1477.28 Q1896.85 1480.82 1900.46 1480.82 Q1904.09 1480.82 1905.9 1477.28 Q1907.73 1473.71 1907.73 1466.61 Q1907.73 1459.48 1905.9 1455.94 Q1904.09 1452.37 1900.46 1452.37 M1900.46 1448.67 Q1906.27 1448.67 1909.32 1453.27 Q1912.4 1457.86 1912.4 1466.61 Q1912.4 1475.33 1909.32 1479.94 Q1906.27 1484.52 1900.46 1484.52 Q1894.65 1484.52 1891.57 1479.94 Q1888.51 1475.33 1888.51 1466.61 Q1888.51 1457.86 1891.57 1453.27 Q1894.65 1448.67 1900.46 1448.67 Z" fill="#000000" fill-rule="evenodd" fill-opacity="1" /><path clip-path="url(#clip420)" d="M2266.55 1449.29 L2284.9 1449.29 L2284.9 1453.23 L2270.83 1453.23 L2270.83 1461.7 Q2271.85 1461.35 2272.87 1461.19 Q2273.88 1461 2274.9 1461 Q2280.69 1461 2284.07 1464.18 Q2287.45 1467.35 2287.45 1472.76 Q2287.45 1478.34 2283.98 1481.44 Q2280.5 1484.52 2274.18 1484.52 Q2272.01 1484.52 2269.74 1484.15 Q2267.49 1483.78 2265.09 1483.04 L2265.09 1478.34 Q2267.17 1479.48 2269.39 1480.03 Q2271.62 1480.59 2274.09 1480.59 Q2278.1 1480.59 2280.43 1478.48 Q2282.77 1476.38 2282.77 1472.76 Q2282.77 1469.15 2280.43 1467.05 Q2278.1 1464.94 2274.09 1464.94 Q2272.22 1464.94 2270.34 1465.36 Q2268.49 1465.77 2266.55 1466.65 L2266.55 1449.29 Z" fill="#000000" fill-rule="evenodd" fill-opacity="1" /><path clip-path="url(#clip420)" d="M2306.66 1452.37 Q2303.05 1452.37 2301.22 1455.94 Q2299.42 1459.48 2299.42 1466.61 Q2299.42 1473.71 2301.22 1477.28 Q2303.05 1480.82 2306.66 1480.82 Q2310.3 1480.82 2312.1 1477.28 Q2313.93 1473.71 2313.93 1466.61 Q2313.93 1459.48 2312.1 1455.94 Q2310.3 1452.37 2306.66 1452.37 M2306.66 1448.67 Q2312.47 1448.67 2315.53 1453.27 Q2318.61 1457.86 2318.61 1466.61 Q2318.61 1475.33 2315.53 1479.94 Q2312.47 1484.52 2306.66 1484.52 Q2300.85 1484.52 2297.77 1479.94 Q2294.72 1475.33 2294.72 1466.61 Q2294.72 1457.86 2297.77 1453.27 Q2300.85 1448.67 2306.66 1448.67 Z" fill="#000000" fill-rule="evenodd" fill-opacity="1" /><path clip-path="url(#clip420)" d="M1215.85 1522.27 L1215.85 1532.4 L1227.92 1532.4 L1227.92 1536.95 L1215.85 1536.95 L1215.85 1556.3 Q1215.85 1560.66 1217.03 1561.9 Q1218.24 1563.14 1221.9 1563.14 L1227.92 1563.14 L1227.92 1568.04 L1221.9 1568.04 Q1215.12 1568.04 1212.54 1565.53 Q1209.96 1562.98 1209.96 1556.3 L1209.96 1536.95 L1205.67 1536.95 L1205.67 1532.4 L1209.96 1532.4 L1209.96 1522.27 L1215.85 1522.27 Z" fill="#000000" fill-rule="evenodd" fill-opacity="1" /><path clip-path="url(#clip420)" d="M1235.62 1532.4 L1241.47 1532.4 L1241.47 1568.04 L1235.62 1568.04 L1235.62 1532.4 M1235.62 1518.52 L1241.47 1518.52 L1241.47 1525.93 L1235.62 1525.93 L1235.62 1518.52 Z" fill="#000000" fill-rule="evenodd" fill-opacity="1" /><path clip-path="url(#clip420)" d="M1281.48 1539.24 Q1283.68 1535.29 1286.73 1533.41 Q1289.79 1531.54 1293.93 1531.54 Q1299.5 1531.54 1302.52 1535.45 Q1305.55 1539.33 1305.55 1546.53 L1305.55 1568.04 L1299.66 1568.04 L1299.66 1546.72 Q1299.66 1541.59 1297.84 1539.11 Q1296.03 1536.63 1292.3 1536.63 Q1287.75 1536.63 1285.11 1539.65 Q1282.47 1542.68 1282.47 1547.9 L1282.47 1568.04 L1276.58 1568.04 L1276.58 1546.72 Q1276.58 1541.56 1274.77 1539.11 Q1272.95 1536.63 1269.17 1536.63 Q1264.68 1536.63 1262.04 1539.68 Q1259.39 1542.71 1259.39 1547.9 L1259.39 1568.04 L1253.51 1568.04 L1253.51 1532.4 L1259.39 1532.4 L1259.39 1537.93 Q1261.4 1534.66 1264.2 1533.1 Q1267 1531.54 1270.85 1531.54 Q1274.74 1531.54 1277.44 1533.51 Q1280.18 1535.48 1281.48 1539.24 Z" fill="#000000" fill-rule="evenodd" fill-opacity="1" /><path clip-path="url(#clip420)" d="M1347.72 1548.76 L1347.72 1551.62 L1320.79 1551.62 Q1321.17 1557.67 1324.42 1560.85 Q1327.7 1564 1333.52 1564 Q1336.9 1564 1340.05 1563.17 Q1343.23 1562.35 1346.35 1560.69 L1346.35 1566.23 Q1343.2 1567.57 1339.89 1568.27 Q1336.58 1568.97 1333.17 1568.97 Q1324.64 1568.97 1319.65 1564 Q1314.68 1559.04 1314.68 1550.57 Q1314.68 1541.82 1319.39 1536.69 Q1324.13 1531.54 1332.15 1531.54 Q1339.35 1531.54 1343.52 1536.18 Q1347.72 1540.8 1347.72 1548.76 M1341.86 1547.04 Q1341.8 1542.23 1339.16 1539.37 Q1336.55 1536.5 1332.22 1536.5 Q1327.32 1536.5 1324.36 1539.27 Q1321.43 1542.04 1320.98 1547.07 L1341.86 1547.04 Z" fill="#000000" fill-rule="evenodd" fill-opacity="1" /><polyline clip-path="url(#clip422)" style="stroke:#000000; stroke-linecap:butt; stroke-linejoin:round; stroke-width:2; stroke-opacity:0.1; fill:none" points="
  200.63,1393.45 2352.76,1393.45 
  "/>
<polyline clip-path="url(#clip422)" style="stroke:#000000; stroke-linecap:butt; stroke-linejoin:round; stroke-width:2; stroke-opacity:0.1; fill:none" points="
  200.63,1119.63 2352.76,1119.63 
  "/>
<polyline clip-path="url(#clip422)" style="stroke:#000000; stroke-linecap:butt; stroke-linejoin:round; stroke-width:2; stroke-opacity:0.1; fill:none" points="
  200.63,845.804 2352.76,845.804 
  "/>
<polyline clip-path="url(#clip422)" style="stroke:#000000; stroke-linecap:butt; stroke-linejoin:round; stroke-width:2; stroke-opacity:0.1; fill:none" points="
  200.63,571.982 2352.76,571.982 
  "/>
<polyline clip-path="url(#clip422)" style="stroke:#000000; stroke-linecap:butt; stroke-linejoin:round; stroke-width:2; stroke-opacity:0.1; fill:none" points="
  200.63,298.16 2352.76,298.16 
  "/>
<polyline clip-path="url(#clip420)" style="stroke:#000000; stroke-linecap:butt; stroke-linejoin:round; stroke-width:4; stroke-opacity:1; fill:none" points="
  200.63,1423.18 200.63,47.2441 
  "/>
<polyline clip-path="url(#clip420)" style="stroke:#000000; stroke-linecap:butt; stroke-linejoin:round; stroke-width:4; stroke-opacity:1; fill:none" points="
  200.63,1393.45 226.456,1393.45 
  "/>
<polyline clip-path="url(#clip420)" style="stroke:#000000; stroke-linecap:butt; stroke-linejoin:round; stroke-width:4; stroke-opacity:1; fill:none" points="
  200.63,1119.63 226.456,1119.63 
  "/>
<polyline clip-path="url(#clip420)" style="stroke:#000000; stroke-linecap:butt; stroke-linejoin:round; stroke-width:4; stroke-opacity:1; fill:none" points="
  200.63,845.804 226.456,845.804 
  "/>
<polyline clip-path="url(#clip420)" style="stroke:#000000; stroke-linecap:butt; stroke-linejoin:round; stroke-width:4; stroke-opacity:1; fill:none" points="
  200.63,571.982 226.456,571.982 
  "/>
<polyline clip-path="url(#clip420)" style="stroke:#000000; stroke-linecap:butt; stroke-linejoin:round; stroke-width:4; stroke-opacity:1; fill:none" points="
  200.63,298.16 226.456,298.16 
  "/>
<path clip-path="url(#clip420)" d="M152.686 1379.25 Q149.075 1379.25 147.246 1382.81 Q145.441 1386.35 145.441 1393.48 Q145.441 1400.59 147.246 1404.15 Q149.075 1407.69 152.686 1407.69 Q156.32 1407.69 158.126 1404.15 Q159.954 1400.59 159.954 1393.48 Q159.954 1386.35 158.126 1382.81 Q156.32 1379.25 152.686 1379.25 M152.686 1375.54 Q158.496 1375.54 161.552 1380.15 Q164.63 1384.73 164.63 1393.48 Q164.63 1402.21 161.552 1406.82 Q158.496 1411.4 152.686 1411.4 Q146.876 1411.4 143.797 1406.82 Q140.741 1402.21 140.741 1393.48 Q140.741 1384.73 143.797 1380.15 Q146.876 1375.54 152.686 1375.54 Z" fill="#000000" fill-rule="evenodd" fill-opacity="1" /><path clip-path="url(#clip420)" d="M157.501 1118.27 Q160.857 1118.99 162.732 1121.26 Q164.63 1123.53 164.63 1126.86 Q164.63 1131.97 161.112 1134.78 Q157.593 1137.58 151.112 1137.58 Q148.936 1137.58 146.621 1137.14 Q144.329 1136.72 141.876 1135.86 L141.876 1131.35 Q143.82 1132.48 146.135 1133.06 Q148.45 1133.64 150.973 1133.64 Q155.371 1133.64 157.663 1131.91 Q159.978 1130.17 159.978 1126.86 Q159.978 1123.8 157.825 1122.09 Q155.695 1120.35 151.876 1120.35 L147.848 1120.35 L147.848 1116.51 L152.061 1116.51 Q155.51 1116.51 157.339 1115.15 Q159.167 1113.76 159.167 1111.16 Q159.167 1108.5 157.269 1107.09 Q155.394 1105.66 151.876 1105.66 Q149.954 1105.66 147.755 1106.07 Q145.556 1106.49 142.917 1107.37 L142.917 1103.2 Q145.579 1102.46 147.894 1102.09 Q150.232 1101.72 152.292 1101.72 Q157.616 1101.72 160.718 1104.15 Q163.82 1106.56 163.82 1110.68 Q163.82 1113.55 162.177 1115.54 Q160.533 1117.51 157.501 1118.27 Z" fill="#000000" fill-rule="evenodd" fill-opacity="1" /><path clip-path="url(#clip420)" d="M153.103 843.94 Q149.954 843.94 148.103 846.093 Q146.274 848.246 146.274 851.996 Q146.274 855.723 148.103 857.899 Q149.954 860.051 153.103 860.051 Q156.251 860.051 158.079 857.899 Q159.931 855.723 159.931 851.996 Q159.931 848.246 158.079 846.093 Q156.251 843.94 153.103 843.94 M162.385 829.288 L162.385 833.547 Q160.626 832.713 158.82 832.274 Q157.038 831.834 155.278 831.834 Q150.649 831.834 148.195 834.959 Q145.765 838.084 145.417 844.403 Q146.783 842.389 148.843 841.325 Q150.903 840.237 153.38 840.237 Q158.589 840.237 161.598 843.408 Q164.63 846.556 164.63 851.996 Q164.63 857.32 161.482 860.537 Q158.334 863.755 153.103 863.755 Q147.107 863.755 143.936 859.172 Q140.765 854.565 140.765 845.838 Q140.765 837.644 144.654 832.783 Q148.542 827.899 155.093 827.899 Q156.853 827.899 158.635 828.246 Q160.44 828.593 162.385 829.288 Z" fill="#000000" fill-rule="evenodd" fill-opacity="1" /><path clip-path="url(#clip420)" d="M143.01 588.544 L143.01 584.285 Q144.769 585.118 146.575 585.558 Q148.38 585.998 150.116 585.998 Q154.746 585.998 157.177 582.896 Q159.63 579.771 159.978 573.429 Q158.635 575.419 156.575 576.484 Q154.515 577.549 152.015 577.549 Q146.829 577.549 143.797 574.424 Q140.788 571.276 140.788 565.836 Q140.788 560.512 143.936 557.294 Q147.084 554.077 152.316 554.077 Q158.311 554.077 161.459 558.683 Q164.63 563.267 164.63 572.017 Q164.63 580.188 160.741 585.072 Q156.876 589.933 150.325 589.933 Q148.566 589.933 146.76 589.586 Q144.954 589.239 143.01 588.544 M152.316 573.892 Q155.464 573.892 157.292 571.739 Q159.144 569.586 159.144 565.836 Q159.144 562.109 157.292 559.956 Q155.464 557.781 152.316 557.781 Q149.167 557.781 147.316 559.956 Q145.487 562.109 145.487 565.836 Q145.487 569.586 147.316 571.739 Q149.167 573.892 152.316 573.892 Z" fill="#000000" fill-rule="evenodd" fill-opacity="1" /><path clip-path="url(#clip420)" d="M114.931 311.505 L122.57 311.505 L122.57 285.139 L114.26 286.806 L114.26 282.547 L122.524 280.88 L127.2 280.88 L127.2 311.505 L134.839 311.505 L134.839 315.44 L114.931 315.44 L114.931 311.505 Z" fill="#000000" fill-rule="evenodd" fill-opacity="1" /><path clip-path="url(#clip420)" d="M148.311 311.505 L164.63 311.505 L164.63 315.44 L142.686 315.44 L142.686 311.505 Q145.348 308.75 149.931 304.121 Q154.538 299.468 155.718 298.125 Q157.964 295.602 158.843 293.866 Q159.746 292.107 159.746 290.417 Q159.746 287.662 157.802 285.926 Q155.88 284.19 152.778 284.19 Q150.579 284.19 148.126 284.954 Q145.695 285.718 142.917 287.269 L142.917 282.547 Q145.741 281.412 148.195 280.834 Q150.649 280.255 152.686 280.255 Q158.056 280.255 161.251 282.94 Q164.445 285.625 164.445 290.116 Q164.445 292.246 163.635 294.167 Q162.848 296.065 160.741 298.658 Q160.163 299.329 157.061 302.547 Q153.959 305.741 148.311 311.505 Z" fill="#000000" fill-rule="evenodd" fill-opacity="1" /><path clip-path="url(#clip420)" d="M35.1993 967.608 Q31.2526 965.412 29.3747 962.356 Q27.4968 959.301 27.4968 955.163 Q27.4968 949.593 31.4117 946.569 Q35.2948 943.546 42.4881 943.546 L64.0042 943.546 L64.0042 949.434 L42.679 949.434 Q37.5546 949.434 35.072 951.248 Q32.5894 953.062 32.5894 956.786 Q32.5894 961.338 35.6131 963.98 Q38.6368 966.621 43.8567 966.621 L64.0042 966.621 L64.0042 972.51 L42.679 972.51 Q37.5228 972.51 35.072 974.324 Q32.5894 976.138 32.5894 979.926 Q32.5894 984.413 35.6449 987.055 Q38.6686 989.697 43.8567 989.697 L64.0042 989.697 L64.0042 995.585 L28.3562 995.585 L28.3562 989.697 L33.8944 989.697 Q30.616 987.692 29.0564 984.891 Q27.4968 982.09 27.4968 978.239 Q27.4968 974.356 29.4702 971.65 Q31.4436 968.913 35.1993 967.608 Z" fill="#000000" fill-rule="evenodd" fill-opacity="1" /><path clip-path="url(#clip420)" d="M32.4621 918.051 Q32.4621 922.762 36.1542 925.499 Q39.8145 928.236 46.212 928.236 Q52.6095 928.236 56.3017 925.531 Q59.9619 922.793 59.9619 918.051 Q59.9619 913.372 56.2698 910.635 Q52.5777 907.898 46.212 907.898 Q39.8781 907.898 36.186 910.635 Q32.4621 913.372 32.4621 918.051 M27.4968 918.051 Q27.4968 910.412 32.4621 906.052 Q37.4273 901.691 46.212 901.691 Q54.9649 901.691 59.9619 906.052 Q64.9272 910.412 64.9272 918.051 Q64.9272 925.722 59.9619 930.082 Q54.9649 934.411 46.212 934.411 Q37.4273 934.411 32.4621 930.082 Q27.4968 925.722 27.4968 918.051 Z" fill="#000000" fill-rule="evenodd" fill-opacity="1" /><path clip-path="url(#clip420)" d="M14.479 891.983 L14.479 886.127 L64.0042 886.127 L64.0042 891.983 L14.479 891.983 Z" fill="#000000" fill-rule="evenodd" fill-opacity="1" /><path clip-path="url(#clip420)" d="M44.7161 843.381 L47.5806 843.381 L47.5806 870.308 Q53.6281 869.926 56.8109 866.68 Q59.9619 863.401 59.9619 857.577 Q59.9619 854.203 59.1344 851.052 Q58.3069 847.869 56.6518 844.75 L62.1899 844.75 Q63.5267 847.901 64.227 851.211 Q64.9272 854.521 64.9272 857.927 Q64.9272 866.457 59.9619 871.454 Q54.9967 876.419 46.5303 876.419 Q37.7774 876.419 32.6531 871.709 Q27.4968 866.966 27.4968 858.945 Q27.4968 851.752 32.1438 847.583 Q36.7589 843.381 44.7161 843.381 M42.9973 849.238 Q38.1912 849.301 35.3266 851.943 Q32.4621 854.553 32.4621 858.882 Q32.4621 863.783 35.2312 866.743 Q38.0002 869.672 43.0292 870.117 L42.9973 849.238 Z" fill="#000000" fill-rule="evenodd" fill-opacity="1" /><path clip-path="url(#clip420)" d="M29.7248 808.115 L35.1993 808.115 Q33.8307 810.598 33.1623 813.112 Q32.4621 815.595 32.4621 818.141 Q32.4621 823.839 36.0905 826.99 Q39.6872 830.141 46.212 830.141 Q52.7369 830.141 56.3653 826.99 Q59.9619 823.839 59.9619 818.141 Q59.9619 815.595 59.2935 813.112 Q58.5933 810.598 57.2247 808.115 L62.6355 808.115 Q63.7814 810.566 64.3543 813.208 Q64.9272 815.818 64.9272 818.778 Q64.9272 826.83 59.8664 831.573 Q54.8057 836.315 46.212 836.315 Q37.491 836.315 32.4939 831.541 Q27.4968 826.735 27.4968 818.396 Q27.4968 815.69 28.0697 813.112 Q28.6108 810.534 29.7248 808.115 Z" fill="#000000" fill-rule="evenodd" fill-opacity="1" /><path clip-path="url(#clip420)" d="M49.9359 798.535 L28.3562 798.535 L28.3562 792.678 L49.7131 792.678 Q54.7739 792.678 57.3202 790.705 Q59.8346 788.732 59.8346 784.785 Q59.8346 780.042 56.8109 777.305 Q53.7872 774.536 48.5673 774.536 L28.3562 774.536 L28.3562 768.68 L64.0042 768.68 L64.0042 774.536 L58.5296 774.536 Q61.7762 776.669 63.3676 779.501 Q64.9272 782.302 64.9272 786.026 Q64.9272 792.169 61.1078 795.352 Q57.2883 798.535 49.9359 798.535 M27.4968 783.798 L27.4968 783.798 Z" fill="#000000" fill-rule="evenodd" fill-opacity="1" /><path clip-path="url(#clip420)" d="M14.479 756.617 L14.479 750.76 L64.0042 750.76 L64.0042 756.617 L14.479 756.617 Z" fill="#000000" fill-rule="evenodd" fill-opacity="1" /><path clip-path="url(#clip420)" d="M46.0847 722.305 Q46.0847 729.403 47.7079 732.141 Q49.3312 734.878 53.2461 734.878 Q56.3653 734.878 58.2114 732.841 Q60.0256 730.772 60.0256 727.239 Q60.0256 722.369 56.5881 719.441 Q53.1188 716.481 47.3897 716.481 L46.0847 716.481 L46.0847 722.305 M43.6657 710.624 L64.0042 710.624 L64.0042 716.481 L58.5933 716.481 Q61.8398 718.486 63.3994 721.478 Q64.9272 724.47 64.9272 728.799 Q64.9272 734.273 61.8716 737.52 Q58.7843 740.734 53.6281 740.734 Q47.6125 740.734 44.5569 736.724 Q41.5014 732.682 41.5014 724.693 L41.5014 716.481 L40.9285 716.481 Q36.8862 716.481 34.6901 719.154 Q32.4621 721.796 32.4621 726.602 Q32.4621 729.658 33.1941 732.554 Q33.9262 735.451 35.3903 738.124 L29.9795 738.124 Q28.7381 734.91 28.1334 731.886 Q27.4968 728.862 27.4968 725.998 Q27.4968 718.263 31.5072 714.444 Q35.5176 710.624 43.6657 710.624 Z" fill="#000000" fill-rule="evenodd" fill-opacity="1" /><path clip-path="url(#clip420)" d="M33.8307 677.905 Q33.2578 678.891 33.0032 680.069 Q32.7167 681.215 32.7167 682.615 Q32.7167 687.581 35.9632 690.254 Q39.1779 692.896 45.2253 692.896 L64.0042 692.896 L64.0042 698.784 L28.3562 698.784 L28.3562 692.896 L33.8944 692.896 Q30.6479 691.05 29.0883 688.09 Q27.4968 685.13 27.4968 680.897 Q27.4968 680.292 27.5923 679.56 Q27.656 678.828 27.8151 677.937 L33.8307 677.905 Z" fill="#000000" fill-rule="evenodd" fill-opacity="1" /><path clip-path="url(#clip420)" d="M29.7248 625.388 L35.1993 625.388 Q33.8307 627.87 33.1623 630.385 Q32.4621 632.867 32.4621 635.414 Q32.4621 641.111 36.0905 644.262 Q39.6872 647.413 46.212 647.413 Q52.7369 647.413 56.3653 644.262 Q59.9619 641.111 59.9619 635.414 Q59.9619 632.867 59.2935 630.385 Q58.5933 627.87 57.2247 625.388 L62.6355 625.388 Q63.7814 627.838 64.3543 630.48 Q64.9272 633.09 64.9272 636.05 Q64.9272 644.103 59.8664 648.845 Q54.8057 653.588 46.212 653.588 Q37.491 653.588 32.4939 648.813 Q27.4968 644.007 27.4968 635.668 Q27.4968 632.963 28.0697 630.385 Q28.6108 627.807 29.7248 625.388 Z" fill="#000000" fill-rule="evenodd" fill-opacity="1" /><path clip-path="url(#clip420)" d="M32.4621 601.389 Q32.4621 606.1 36.1542 608.837 Q39.8145 611.574 46.212 611.574 Q52.6095 611.574 56.3017 608.869 Q59.9619 606.131 59.9619 601.389 Q59.9619 596.71 56.2698 593.973 Q52.5777 591.236 46.212 591.236 Q39.8781 591.236 36.186 593.973 Q32.4621 596.71 32.4621 601.389 M27.4968 601.389 Q27.4968 593.75 32.4621 589.39 Q37.4273 585.029 46.212 585.029 Q54.9649 585.029 59.9619 589.39 Q64.9272 593.75 64.9272 601.389 Q64.9272 609.06 59.9619 613.42 Q54.9649 617.749 46.212 617.749 Q37.4273 617.749 32.4621 613.42 Q27.4968 609.06 27.4968 601.389 Z" fill="#000000" fill-rule="evenodd" fill-opacity="1" /><path clip-path="url(#clip420)" d="M49.9359 575.926 L28.3562 575.926 L28.3562 570.07 L49.7131 570.07 Q54.7739 570.07 57.3202 568.096 Q59.8346 566.123 59.8346 562.176 Q59.8346 557.434 56.8109 554.696 Q53.7872 551.927 48.5673 551.927 L28.3562 551.927 L28.3562 546.071 L64.0042 546.071 L64.0042 551.927 L58.5296 551.927 Q61.7762 554.06 63.3676 556.893 Q64.9272 559.694 64.9272 563.417 Q64.9272 569.56 61.1078 572.743 Q57.2883 575.926 49.9359 575.926 M27.4968 561.189 L27.4968 561.189 Z" fill="#000000" fill-rule="evenodd" fill-opacity="1" /><path clip-path="url(#clip420)" d="M42.4881 504.376 L64.0042 504.376 L64.0042 510.232 L42.679 510.232 Q37.6183 510.232 35.1038 512.205 Q32.5894 514.179 32.5894 518.125 Q32.5894 522.868 35.6131 525.605 Q38.6368 528.342 43.8567 528.342 L64.0042 528.342 L64.0042 534.231 L28.3562 534.231 L28.3562 528.342 L33.8944 528.342 Q30.6797 526.242 29.0883 523.409 Q27.4968 520.544 27.4968 516.82 Q27.4968 510.678 31.3163 507.527 Q35.1038 504.376 42.4881 504.376 Z" fill="#000000" fill-rule="evenodd" fill-opacity="1" /><path clip-path="url(#clip420)" d="M18.2347 486.902 L28.3562 486.902 L28.3562 474.839 L32.9077 474.839 L32.9077 486.902 L52.2594 486.902 Q56.6199 486.902 57.8613 485.724 Q59.1026 484.515 59.1026 480.854 L59.1026 474.839 L64.0042 474.839 L64.0042 480.854 Q64.0042 487.634 61.4897 490.212 Q58.9434 492.79 52.2594 492.79 L32.9077 492.79 L32.9077 497.087 L28.3562 497.087 L28.3562 492.79 L18.2347 492.79 L18.2347 486.902 Z" fill="#000000" fill-rule="evenodd" fill-opacity="1" /><polyline clip-path="url(#clip422)" style="stroke:#ff0000; stroke-linecap:butt; stroke-linejoin:round; stroke-width:4; stroke-opacity:1; fill:none" stroke-dasharray="16, 10" points="
  261.539,1384.24 277.814,1347.63 298.158,1302.56 318.502,1258.49 338.846,1215.67 460.908,994.606 664.346,786.613 867.784,720.521 1071.22,694.96 1478.1,639.666 
  1884.97,588.584 2291.85,542.836 
  "/>
<path clip-path="url(#clip422)" d="M277.539 1368.24 L245.539 1368.24 L261.539 1400.24 L277.539 1368.24 Z" fill="#ff0000" fill-rule="evenodd" fill-opacity="1" stroke="#000000" stroke-opacity="1" stroke-width="3.2"/>
<path clip-path="url(#clip422)" d="M293.814 1331.63 L261.814 1331.63 L277.814 1363.63 L293.814 1331.63 Z" fill="#ff0000" fill-rule="evenodd" fill-opacity="1" stroke="#000000" stroke-opacity="1" stroke-width="3.2"/>
<path clip-path="url(#clip422)" d="M314.158 1286.56 L282.158 1286.56 L298.158 1318.56 L314.158 1286.56 Z" fill="#ff0000" fill-rule="evenodd" fill-opacity="1" stroke="#000000" stroke-opacity="1" stroke-width="3.2"/>
<path clip-path="url(#clip422)" d="M334.502 1242.49 L302.502 1242.49 L318.502 1274.49 L334.502 1242.49 Z" fill="#ff0000" fill-rule="evenodd" fill-opacity="1" stroke="#000000" stroke-opacity="1" stroke-width="3.2"/>
<path clip-path="url(#clip422)" d="M354.846 1199.67 L322.846 1199.67 L338.846 1231.67 L354.846 1199.67 Z" fill="#ff0000" fill-rule="evenodd" fill-opacity="1" stroke="#000000" stroke-opacity="1" stroke-width="3.2"/>
<path clip-path="url(#clip422)" d="M476.908 978.606 L444.908 978.606 L460.908 1010.61 L476.908 978.606 Z" fill="#ff0000" fill-rule="evenodd" fill-opacity="1" stroke="#000000" stroke-opacity="1" stroke-width="3.2"/>
<path clip-path="url(#clip422)" d="M680.346 770.613 L648.346 770.613 L664.346 802.613 L680.346 770.613 Z" fill="#ff0000" fill-rule="evenodd" fill-opacity="1" stroke="#000000" stroke-opacity="1" stroke-width="3.2"/>
<path clip-path="url(#clip422)" d="M883.784 704.521 L851.784 704.521 L867.784 736.521 L883.784 704.521 Z" fill="#ff0000" fill-rule="evenodd" fill-opacity="1" stroke="#000000" stroke-opacity="1" stroke-width="3.2"/>
<path clip-path="url(#clip422)" d="M1087.22 678.96 L1055.22 678.96 L1071.22 710.96 L1087.22 678.96 Z" fill="#ff0000" fill-rule="evenodd" fill-opacity="1" stroke="#000000" stroke-opacity="1" stroke-width="3.2"/>
<path clip-path="url(#clip422)" d="M1494.1 623.666 L1462.1 623.666 L1478.1 655.666 L1494.1 623.666 Z" fill="#ff0000" fill-rule="evenodd" fill-opacity="1" stroke="#000000" stroke-opacity="1" stroke-width="3.2"/>
<path clip-path="url(#clip422)" d="M1900.97 572.584 L1868.97 572.584 L1884.97 604.584 L1900.97 572.584 Z" fill="#ff0000" fill-rule="evenodd" fill-opacity="1" stroke="#000000" stroke-opacity="1" stroke-width="3.2"/>
<path clip-path="url(#clip422)" d="M2307.85 526.836 L2275.85 526.836 L2291.85 558.836 L2307.85 526.836 Z" fill="#ff0000" fill-rule="evenodd" fill-opacity="1" stroke="#000000" stroke-opacity="1" stroke-width="3.2"/>
<polyline clip-path="url(#clip422)" style="stroke:#0000ff; stroke-linecap:butt; stroke-linejoin:round; stroke-width:4; stroke-opacity:1; fill:none" points="
  261.539,1201.87 277.814,1165.96 298.158,1121.59 318.502,1077.87 338.846,1034.9 460.908,797.036 664.346,494.186 867.784,304.828 1071.22,197.695 1478.1,111.23 
  1884.97,89.9623 2291.85,86.1857 
  "/>
<path clip-path="url(#clip422)" d="M261.539 1185.87 L245.539 1217.87 L277.539 1217.87 L261.539 1185.87 Z" fill="#0000ff" fill-rule="evenodd" fill-opacity="1" stroke="#000000" stroke-opacity="1" stroke-width="3.2"/>
<path clip-path="url(#clip422)" d="M277.814 1149.96 L261.814 1181.96 L293.814 1181.96 L277.814 1149.96 Z" fill="#0000ff" fill-rule="evenodd" fill-opacity="1" stroke="#000000" stroke-opacity="1" stroke-width="3.2"/>
<path clip-path="url(#clip422)" d="M298.158 1105.59 L282.158 1137.59 L314.158 1137.59 L298.158 1105.59 Z" fill="#0000ff" fill-rule="evenodd" fill-opacity="1" stroke="#000000" stroke-opacity="1" stroke-width="3.2"/>
<path clip-path="url(#clip422)" d="M318.502 1061.87 L302.502 1093.87 L334.502 1093.87 L318.502 1061.87 Z" fill="#0000ff" fill-rule="evenodd" fill-opacity="1" stroke="#000000" stroke-opacity="1" stroke-width="3.2"/>
<path clip-path="url(#clip422)" d="M338.846 1018.9 L322.846 1050.9 L354.846 1050.9 L338.846 1018.9 Z" fill="#0000ff" fill-rule="evenodd" fill-opacity="1" stroke="#000000" stroke-opacity="1" stroke-width="3.2"/>
<path clip-path="url(#clip422)" d="M460.908 781.036 L444.908 813.036 L476.908 813.036 L460.908 781.036 Z" fill="#0000ff" fill-rule="evenodd" fill-opacity="1" stroke="#000000" stroke-opacity="1" stroke-width="3.2"/>
<path clip-path="url(#clip422)" d="M664.346 478.186 L648.346 510.186 L680.346 510.186 L664.346 478.186 Z" fill="#0000ff" fill-rule="evenodd" fill-opacity="1" stroke="#000000" stroke-opacity="1" stroke-width="3.2"/>
<path clip-path="url(#clip422)" d="M867.784 288.828 L851.784 320.828 L883.784 320.828 L867.784 288.828 Z" fill="#0000ff" fill-rule="evenodd" fill-opacity="1" stroke="#000000" stroke-opacity="1" stroke-width="3.2"/>
<path clip-path="url(#clip422)" d="M1071.22 181.695 L1055.22 213.695 L1087.22 213.695 L1071.22 181.695 Z" fill="#0000ff" fill-rule="evenodd" fill-opacity="1" stroke="#000000" stroke-opacity="1" stroke-width="3.2"/>
<path clip-path="url(#clip422)" d="M1478.1 95.2297 L1462.1 127.23 L1494.1 127.23 L1478.1 95.2297 Z" fill="#0000ff" fill-rule="evenodd" fill-opacity="1" stroke="#000000" stroke-opacity="1" stroke-width="3.2"/>
<path clip-path="url(#clip422)" d="M1884.97 73.9623 L1868.97 105.962 L1900.97 105.962 L1884.97 73.9623 Z" fill="#0000ff" fill-rule="evenodd" fill-opacity="1" stroke="#000000" stroke-opacity="1" stroke-width="3.2"/>
<path clip-path="url(#clip422)" d="M2291.85 70.1857 L2275.85 102.186 L2307.85 102.186 L2291.85 70.1857 Z" fill="#0000ff" fill-rule="evenodd" fill-opacity="1" stroke="#000000" stroke-opacity="1" stroke-width="3.2"/>
<polyline clip-path="url(#clip422)" style="stroke:#ff0000; stroke-linecap:butt; stroke-linejoin:round; stroke-width:4; stroke-opacity:1; fill:none" points="
  261.539,1201.87 277.814,1165.96 298.158,1121.59 318.502,1077.87 338.846,1034.9 460.908,797.036 664.346,494.186 867.784,304.828 1071.22,197.695 1478.1,111.23 
  1884.97,89.9623 2291.85,86.1857 
  "/>
<path clip-path="url(#clip422)" d="M277.539 1185.87 L245.539 1185.87 L261.539 1217.87 L277.539 1185.87 Z" fill="#ff0000" fill-rule="evenodd" fill-opacity="1" stroke="#000000" stroke-opacity="1" stroke-width="3.2"/>
<path clip-path="url(#clip422)" d="M293.814 1149.96 L261.814 1149.96 L277.814 1181.96 L293.814 1149.96 Z" fill="#ff0000" fill-rule="evenodd" fill-opacity="1" stroke="#000000" stroke-opacity="1" stroke-width="3.2"/>
<path clip-path="url(#clip422)" d="M314.158 1105.59 L282.158 1105.59 L298.158 1137.59 L314.158 1105.59 Z" fill="#ff0000" fill-rule="evenodd" fill-opacity="1" stroke="#000000" stroke-opacity="1" stroke-width="3.2"/>
<path clip-path="url(#clip422)" d="M334.502 1061.87 L302.502 1061.87 L318.502 1093.87 L334.502 1061.87 Z" fill="#ff0000" fill-rule="evenodd" fill-opacity="1" stroke="#000000" stroke-opacity="1" stroke-width="3.2"/>
<path clip-path="url(#clip422)" d="M354.846 1018.9 L322.846 1018.9 L338.846 1050.9 L354.846 1018.9 Z" fill="#ff0000" fill-rule="evenodd" fill-opacity="1" stroke="#000000" stroke-opacity="1" stroke-width="3.2"/>
<path clip-path="url(#clip422)" d="M476.908 781.036 L444.908 781.036 L460.908 813.036 L476.908 781.036 Z" fill="#ff0000" fill-rule="evenodd" fill-opacity="1" stroke="#000000" stroke-opacity="1" stroke-width="3.2"/>
<path clip-path="url(#clip422)" d="M680.346 478.186 L648.346 478.186 L664.346 510.186 L680.346 478.186 Z" fill="#ff0000" fill-rule="evenodd" fill-opacity="1" stroke="#000000" stroke-opacity="1" stroke-width="3.2"/>
<path clip-path="url(#clip422)" d="M883.784 288.828 L851.784 288.828 L867.784 320.828 L883.784 288.828 Z" fill="#ff0000" fill-rule="evenodd" fill-opacity="1" stroke="#000000" stroke-opacity="1" stroke-width="3.2"/>
<path clip-path="url(#clip422)" d="M1087.22 181.695 L1055.22 181.695 L1071.22 213.695 L1087.22 181.695 Z" fill="#ff0000" fill-rule="evenodd" fill-opacity="1" stroke="#000000" stroke-opacity="1" stroke-width="3.2"/>
<path clip-path="url(#clip422)" d="M1494.1 95.2297 L1462.1 95.2297 L1478.1 127.23 L1494.1 95.2297 Z" fill="#ff0000" fill-rule="evenodd" fill-opacity="1" stroke="#000000" stroke-opacity="1" stroke-width="3.2"/>
<path clip-path="url(#clip422)" d="M1900.97 73.9623 L1868.97 73.9623 L1884.97 105.962 L1900.97 73.9623 Z" fill="#ff0000" fill-rule="evenodd" fill-opacity="1" stroke="#000000" stroke-opacity="1" stroke-width="3.2"/>
<path clip-path="url(#clip422)" d="M2307.85 70.1857 L2275.85 70.1857 L2291.85 102.186 L2307.85 70.1857 Z" fill="#ff0000" fill-rule="evenodd" fill-opacity="1" stroke="#000000" stroke-opacity="1" stroke-width="3.2"/>
<path clip-path="url(#clip420)" d="
M1455.28 1377.32 L2281.02 1377.32 L2281.02 1135.4 L1455.28 1135.4  Z
  " fill="#ffffff" fill-rule="evenodd" fill-opacity="1"/>
<polyline clip-path="url(#clip420)" style="stroke:#000000; stroke-linecap:butt; stroke-linejoin:round; stroke-width:4; stroke-opacity:1; fill:none" points="
  1455.28,1377.32 2281.02,1377.32 2281.02,1135.4 1455.28,1135.4 1455.28,1377.32 
  "/>
<polyline clip-path="url(#clip420)" style="stroke:#ff0000; stroke-linecap:butt; stroke-linejoin:round; stroke-width:4; stroke-opacity:1; fill:none" stroke-dasharray="16, 10" points="
  1479.19,1195.88 1622.66,1195.88 
  "/>
<path clip-path="url(#clip420)" d="M1576.53 1170.28 L1525.33 1170.28 L1550.93 1221.48 L1576.53 1170.28 Z" fill="#ff0000" fill-rule="evenodd" fill-opacity="1" stroke="#000000" stroke-opacity="1" stroke-width="5.12"/>
<path clip-path="url(#clip420)" d="M1646.58 1202.92 L1646.58 1187.23 L1650.84 1187.23 L1650.84 1202.76 Q1650.84 1206.44 1652.27 1208.29 Q1653.71 1210.12 1656.58 1210.12 Q1660.03 1210.12 1662.02 1207.92 Q1664.03 1205.72 1664.03 1201.93 L1664.03 1187.23 L1668.29 1187.23 L1668.29 1213.16 L1664.03 1213.16 L1664.03 1209.17 Q1662.48 1211.53 1660.42 1212.69 Q1658.38 1213.83 1655.67 1213.83 Q1651.21 1213.83 1648.89 1211.05 Q1646.58 1208.27 1646.58 1202.92 M1657.29 1186.6 L1657.29 1186.6 Z" fill="#000000" fill-rule="evenodd" fill-opacity="1" /><path clip-path="url(#clip420)" d="M1681.18 1209.27 L1681.18 1223.02 L1676.9 1223.02 L1676.9 1187.23 L1681.18 1187.23 L1681.18 1191.16 Q1682.53 1188.85 1684.56 1187.74 Q1686.62 1186.6 1689.47 1186.6 Q1694.19 1186.6 1697.13 1190.35 Q1700.09 1194.1 1700.09 1200.22 Q1700.09 1206.33 1697.13 1210.08 Q1694.19 1213.83 1689.47 1213.83 Q1686.62 1213.83 1684.56 1212.72 Q1682.53 1211.58 1681.18 1209.27 M1695.67 1200.22 Q1695.67 1195.52 1693.73 1192.85 Q1691.81 1190.17 1688.43 1190.17 Q1685.05 1190.17 1683.1 1192.85 Q1681.18 1195.52 1681.18 1200.22 Q1681.18 1204.91 1683.1 1207.6 Q1685.05 1210.26 1688.43 1210.26 Q1691.81 1210.26 1693.73 1207.6 Q1695.67 1204.91 1695.67 1200.22 Z" fill="#000000" fill-rule="evenodd" fill-opacity="1" /><path clip-path="url(#clip420)" d="M1711.27 1209.27 L1711.27 1223.02 L1706.99 1223.02 L1706.99 1187.23 L1711.27 1187.23 L1711.27 1191.16 Q1712.62 1188.85 1714.65 1187.74 Q1716.71 1186.6 1719.56 1186.6 Q1724.28 1186.6 1727.22 1190.35 Q1730.19 1194.1 1730.19 1200.22 Q1730.19 1206.33 1727.22 1210.08 Q1724.28 1213.83 1719.56 1213.83 Q1716.71 1213.83 1714.65 1212.72 Q1712.62 1211.58 1711.27 1209.27 M1725.77 1200.22 Q1725.77 1195.52 1723.82 1192.85 Q1721.9 1190.17 1718.52 1190.17 Q1715.14 1190.17 1713.2 1192.85 Q1711.27 1195.52 1711.27 1200.22 Q1711.27 1204.91 1713.2 1207.6 Q1715.14 1210.26 1718.52 1210.26 Q1721.9 1210.26 1723.82 1207.6 Q1725.77 1204.91 1725.77 1200.22 Z" fill="#000000" fill-rule="evenodd" fill-opacity="1" /><path clip-path="url(#clip420)" d="M1759.42 1199.13 L1759.42 1201.21 L1739.84 1201.21 Q1740.12 1205.61 1742.48 1207.92 Q1744.86 1210.22 1749.1 1210.22 Q1751.55 1210.22 1753.84 1209.61 Q1756.16 1209.01 1758.43 1207.81 L1758.43 1211.84 Q1756.14 1212.81 1753.73 1213.32 Q1751.32 1213.83 1748.84 1213.83 Q1742.64 1213.83 1739.01 1210.22 Q1735.4 1206.6 1735.4 1200.45 Q1735.4 1194.08 1738.82 1190.35 Q1742.27 1186.6 1748.1 1186.6 Q1753.33 1186.6 1756.37 1189.98 Q1759.42 1193.34 1759.42 1199.13 M1755.16 1197.88 Q1755.12 1194.38 1753.2 1192.3 Q1751.3 1190.22 1748.15 1190.22 Q1744.58 1190.22 1742.43 1192.23 Q1740.3 1194.24 1739.98 1197.9 L1755.16 1197.88 Z" fill="#000000" fill-rule="evenodd" fill-opacity="1" /><path clip-path="url(#clip420)" d="M1781.44 1191.21 Q1780.72 1190.79 1779.86 1190.61 Q1779.03 1190.4 1778.01 1190.4 Q1774.4 1190.4 1772.46 1192.76 Q1770.53 1195.1 1770.53 1199.5 L1770.53 1213.16 L1766.25 1213.16 L1766.25 1187.23 L1770.53 1187.23 L1770.53 1191.26 Q1771.88 1188.9 1774.03 1187.76 Q1776.18 1186.6 1779.26 1186.6 Q1779.7 1186.6 1780.23 1186.67 Q1780.77 1186.72 1781.41 1186.84 L1781.44 1191.21 Z" fill="#000000" fill-rule="evenodd" fill-opacity="1" /><path clip-path="url(#clip420)" d="M1819.58 1200.22 Q1819.58 1195.52 1817.64 1192.85 Q1815.72 1190.17 1812.34 1190.17 Q1808.96 1190.17 1807.02 1192.85 Q1805.09 1195.52 1805.09 1200.22 Q1805.09 1204.91 1807.02 1207.6 Q1808.96 1210.26 1812.34 1210.26 Q1815.72 1210.26 1817.64 1207.6 Q1819.58 1204.91 1819.58 1200.22 M1805.09 1191.16 Q1806.44 1188.85 1808.47 1187.74 Q1810.53 1186.6 1813.38 1186.6 Q1818.1 1186.6 1821.04 1190.35 Q1824.01 1194.1 1824.01 1200.22 Q1824.01 1206.33 1821.04 1210.08 Q1818.1 1213.83 1813.38 1213.83 Q1810.53 1213.83 1808.47 1212.72 Q1806.44 1211.58 1805.09 1209.27 L1805.09 1213.16 L1800.81 1213.16 L1800.81 1177.14 L1805.09 1177.14 L1805.09 1191.16 Z" fill="#000000" fill-rule="evenodd" fill-opacity="1" /><path clip-path="url(#clip420)" d="M1841.11 1190.22 Q1837.69 1190.22 1835.7 1192.9 Q1833.7 1195.56 1833.7 1200.22 Q1833.7 1204.87 1835.67 1207.55 Q1837.66 1210.22 1841.11 1210.22 Q1844.51 1210.22 1846.51 1207.53 Q1848.5 1204.85 1848.5 1200.22 Q1848.5 1195.61 1846.51 1192.92 Q1844.51 1190.22 1841.11 1190.22 M1841.11 1186.6 Q1846.67 1186.6 1849.84 1190.22 Q1853.01 1193.83 1853.01 1200.22 Q1853.01 1206.58 1849.84 1210.22 Q1846.67 1213.83 1841.11 1213.83 Q1835.53 1213.83 1832.36 1210.22 Q1829.21 1206.58 1829.21 1200.22 Q1829.21 1193.83 1832.36 1190.22 Q1835.53 1186.6 1841.11 1186.6 Z" fill="#000000" fill-rule="evenodd" fill-opacity="1" /><path clip-path="url(#clip420)" d="M1859.63 1202.92 L1859.63 1187.23 L1863.89 1187.23 L1863.89 1202.76 Q1863.89 1206.44 1865.32 1208.29 Q1866.76 1210.12 1869.63 1210.12 Q1873.08 1210.12 1875.07 1207.92 Q1877.08 1205.72 1877.08 1201.93 L1877.08 1187.23 L1881.34 1187.23 L1881.34 1213.16 L1877.08 1213.16 L1877.08 1209.17 Q1875.53 1211.53 1873.47 1212.69 Q1871.44 1213.83 1868.73 1213.83 Q1864.26 1213.83 1861.95 1211.05 Q1859.63 1208.27 1859.63 1202.92 M1870.35 1186.6 L1870.35 1186.6 Z" fill="#000000" fill-rule="evenodd" fill-opacity="1" /><path clip-path="url(#clip420)" d="M1911.67 1197.51 L1911.67 1213.16 L1907.41 1213.16 L1907.41 1197.65 Q1907.41 1193.97 1905.97 1192.14 Q1904.54 1190.31 1901.67 1190.31 Q1898.22 1190.31 1896.23 1192.51 Q1894.24 1194.71 1894.24 1198.5 L1894.24 1213.16 L1889.95 1213.16 L1889.95 1187.23 L1894.24 1187.23 L1894.24 1191.26 Q1895.76 1188.92 1897.82 1187.76 Q1899.91 1186.6 1902.62 1186.6 Q1907.08 1186.6 1909.38 1189.38 Q1911.67 1192.14 1911.67 1197.51 Z" fill="#000000" fill-rule="evenodd" fill-opacity="1" /><path clip-path="url(#clip420)" d="M1937.22 1191.16 L1937.22 1177.14 L1941.48 1177.14 L1941.48 1213.16 L1937.22 1213.16 L1937.22 1209.27 Q1935.88 1211.58 1933.82 1212.72 Q1931.78 1213.83 1928.91 1213.83 Q1924.21 1213.83 1921.25 1210.08 Q1918.31 1206.33 1918.31 1200.22 Q1918.31 1194.1 1921.25 1190.35 Q1924.21 1186.6 1928.91 1186.6 Q1931.78 1186.6 1933.82 1187.74 Q1935.88 1188.85 1937.22 1191.16 M1922.71 1200.22 Q1922.71 1204.91 1924.63 1207.6 Q1926.57 1210.26 1929.95 1210.26 Q1933.33 1210.26 1935.28 1207.6 Q1937.22 1204.91 1937.22 1200.22 Q1937.22 1195.52 1935.28 1192.85 Q1933.33 1190.17 1929.95 1190.17 Q1926.57 1190.17 1924.63 1192.85 Q1922.71 1195.52 1922.71 1200.22 Z" fill="#000000" fill-rule="evenodd" fill-opacity="1" /><path clip-path="url(#clip420)" d="M1975.37 1190.22 Q1971.94 1190.22 1969.95 1192.9 Q1967.96 1195.56 1967.96 1200.22 Q1967.96 1204.87 1969.93 1207.55 Q1971.92 1210.22 1975.37 1210.22 Q1978.77 1210.22 1980.76 1207.53 Q1982.75 1204.85 1982.75 1200.22 Q1982.75 1195.61 1980.76 1192.92 Q1978.77 1190.22 1975.37 1190.22 M1975.37 1186.6 Q1980.93 1186.6 1984.1 1190.22 Q1987.27 1193.83 1987.27 1200.22 Q1987.27 1206.58 1984.1 1210.22 Q1980.93 1213.83 1975.37 1213.83 Q1969.79 1213.83 1966.62 1210.22 Q1963.47 1206.58 1963.47 1200.22 Q1963.47 1193.83 1966.62 1190.22 Q1969.79 1186.6 1975.37 1186.6 Z" fill="#000000" fill-rule="evenodd" fill-opacity="1" /><path clip-path="url(#clip420)" d="M2015.88 1197.51 L2015.88 1213.16 L2011.62 1213.16 L2011.62 1197.65 Q2011.62 1193.97 2010.19 1192.14 Q2008.75 1190.31 2005.88 1190.31 Q2002.43 1190.31 2000.44 1192.51 Q1998.45 1194.71 1998.45 1198.5 L1998.45 1213.16 L1994.17 1213.16 L1994.17 1187.23 L1998.45 1187.23 L1998.45 1191.26 Q1999.98 1188.92 2002.04 1187.76 Q2004.12 1186.6 2006.83 1186.6 Q2011.3 1186.6 2013.59 1189.38 Q2015.88 1192.14 2015.88 1197.51 Z" fill="#000000" fill-rule="evenodd" fill-opacity="1" /><path clip-path="url(#clip420)" d="M2048.54 1213.16 L2035.35 1178.6 L2040.23 1178.6 L2051.18 1207.69 L2062.15 1178.6 L2067.01 1178.6 L2053.84 1213.16 L2048.54 1213.16 Z" fill="#000000" fill-rule="evenodd" fill-opacity="1" /><path clip-path="url(#clip420)" d="M2079.98 1200.12 Q2074.81 1200.12 2072.82 1201.3 Q2070.83 1202.48 2070.83 1205.33 Q2070.83 1207.6 2072.31 1208.94 Q2073.82 1210.26 2076.39 1210.26 Q2079.93 1210.26 2082.06 1207.76 Q2084.21 1205.24 2084.21 1201.07 L2084.21 1200.12 L2079.98 1200.12 M2088.47 1198.36 L2088.47 1213.16 L2084.21 1213.16 L2084.21 1209.22 Q2082.75 1211.58 2080.58 1212.72 Q2078.4 1213.83 2075.25 1213.83 Q2071.27 1213.83 2068.91 1211.6 Q2066.57 1209.36 2066.57 1205.61 Q2066.57 1201.23 2069.49 1199.01 Q2072.43 1196.79 2078.24 1196.79 L2084.21 1196.79 L2084.21 1196.37 Q2084.21 1193.43 2082.27 1191.84 Q2080.35 1190.22 2076.85 1190.22 Q2074.63 1190.22 2072.52 1190.75 Q2070.42 1191.28 2068.47 1192.35 L2068.47 1188.41 Q2070.81 1187.51 2073.01 1187.07 Q2075.21 1186.6 2077.29 1186.6 Q2082.92 1186.6 2085.69 1189.52 Q2088.47 1192.44 2088.47 1198.36 Z" fill="#000000" fill-rule="evenodd" fill-opacity="1" /><path clip-path="url(#clip420)" d="M2112.27 1191.21 Q2111.55 1190.79 2110.69 1190.61 Q2109.86 1190.4 2108.84 1190.4 Q2105.23 1190.4 2103.29 1192.76 Q2101.37 1195.1 2101.37 1199.5 L2101.37 1213.16 L2097.08 1213.16 L2097.08 1187.23 L2101.37 1187.23 L2101.37 1191.26 Q2102.71 1188.9 2104.86 1187.76 Q2107.01 1186.6 2110.09 1186.6 Q2110.53 1186.6 2111.06 1186.67 Q2111.6 1186.72 2112.24 1186.84 L2112.27 1191.21 Z" fill="#000000" fill-rule="evenodd" fill-opacity="1" /><path clip-path="url(#clip420)" d="M2116.34 1177.14 L2126.16 1177.14 L2126.16 1180.45 L2120.6 1180.45 L2120.6 1216.1 L2126.16 1216.1 L2126.16 1219.41 L2116.34 1219.41 L2116.34 1177.14 Z" fill="#000000" fill-rule="evenodd" fill-opacity="1" /><path clip-path="url(#clip420)" d="M2146.97 1183.2 L2140.62 1200.4 L2153.33 1200.4 L2146.97 1183.2 M2144.33 1178.6 L2149.63 1178.6 L2162.8 1213.16 L2157.94 1213.16 L2154.79 1204.29 L2139.21 1204.29 L2136.06 1213.16 L2131.13 1213.16 L2144.33 1178.6 Z" fill="#000000" fill-rule="evenodd" fill-opacity="1" /><path clip-path="url(#clip420)" d="M2177.89 1177.18 Q2174.79 1182.51 2173.29 1187.72 Q2171.78 1192.92 2171.78 1198.27 Q2171.78 1203.62 2173.29 1208.87 Q2174.81 1214.1 2177.89 1219.41 L2174.19 1219.41 Q2170.72 1213.97 2168.98 1208.71 Q2167.27 1203.46 2167.27 1198.27 Q2167.27 1193.11 2168.98 1187.88 Q2170.69 1182.65 2174.19 1177.18 L2177.89 1177.18 Z" fill="#000000" fill-rule="evenodd" fill-opacity="1" /><path clip-path="url(#clip420)" d="M2190.37 1179.87 L2190.37 1187.23 L2199.14 1187.23 L2199.14 1190.54 L2190.37 1190.54 L2190.37 1204.61 Q2190.37 1207.78 2191.23 1208.69 Q2192.11 1209.59 2194.77 1209.59 L2199.14 1209.59 L2199.14 1213.16 L2194.77 1213.16 Q2189.84 1213.16 2187.96 1211.33 Q2186.09 1209.47 2186.09 1204.61 L2186.09 1190.54 L2182.96 1190.54 L2182.96 1187.23 L2186.09 1187.23 L2186.09 1179.87 L2190.37 1179.87 Z" fill="#000000" fill-rule="evenodd" fill-opacity="1" /><path clip-path="url(#clip420)" d="M2204.07 1177.18 L2207.78 1177.18 Q2211.25 1182.65 2212.96 1187.88 Q2214.7 1193.11 2214.7 1198.27 Q2214.7 1203.46 2212.96 1208.71 Q2211.25 1213.97 2207.78 1219.41 L2204.07 1219.41 Q2207.15 1214.1 2208.66 1208.87 Q2210.18 1203.62 2210.18 1198.27 Q2210.18 1192.92 2208.66 1187.72 Q2207.15 1182.51 2204.07 1177.18 Z" fill="#000000" fill-rule="evenodd" fill-opacity="1" /><path clip-path="url(#clip420)" d="M2233.19 1177.14 L2233.19 1219.41 L2223.38 1219.41 L2223.38 1216.1 L2228.91 1216.1 L2228.91 1180.45 L2223.38 1180.45 L2223.38 1177.14 L2233.19 1177.14 Z" fill="#000000" fill-rule="evenodd" fill-opacity="1" /><polyline clip-path="url(#clip420)" style="stroke:#0000ff; stroke-linecap:butt; stroke-linejoin:round; stroke-width:4; stroke-opacity:1; fill:none" points="
  1479.19,1256.36 1622.66,1256.36 
  "/>
<path clip-path="url(#clip420)" d="M1550.93 1230.76 L1525.33 1281.96 L1576.53 1281.96 L1550.93 1230.76 Z" fill="#0000ff" fill-rule="evenodd" fill-opacity="1" stroke="#000000" stroke-opacity="1" stroke-width="5.12"/>
<path clip-path="url(#clip420)" d="M1646.58 1237.62 L1650.84 1237.62 L1650.84 1273.64 L1646.58 1273.64 L1646.58 1237.62 Z" fill="#000000" fill-rule="evenodd" fill-opacity="1" /><path clip-path="url(#clip420)" d="M1669.79 1250.7 Q1666.37 1250.7 1664.38 1253.38 Q1662.39 1256.04 1662.39 1260.7 Q1662.39 1265.35 1664.35 1268.03 Q1666.34 1270.7 1669.79 1270.7 Q1673.2 1270.7 1675.19 1268.01 Q1677.18 1265.33 1677.18 1260.7 Q1677.18 1256.09 1675.19 1253.4 Q1673.2 1250.7 1669.79 1250.7 M1669.79 1247.08 Q1675.35 1247.08 1678.52 1250.7 Q1681.69 1254.31 1681.69 1260.7 Q1681.69 1267.06 1678.52 1270.7 Q1675.35 1274.31 1669.79 1274.31 Q1664.21 1274.31 1661.04 1270.7 Q1657.9 1267.06 1657.9 1260.7 Q1657.9 1254.31 1661.04 1250.7 Q1664.21 1247.08 1669.79 1247.08 Z" fill="#000000" fill-rule="evenodd" fill-opacity="1" /><path clip-path="url(#clip420)" d="M1686.28 1247.71 L1690.53 1247.71 L1695.86 1267.94 L1701.16 1247.71 L1706.18 1247.71 L1711.51 1267.94 L1716.81 1247.71 L1721.07 1247.71 L1714.28 1273.64 L1709.26 1273.64 L1703.68 1252.39 L1698.08 1273.64 L1693.06 1273.64 L1686.28 1247.71 Z" fill="#000000" fill-rule="evenodd" fill-opacity="1" /><path clip-path="url(#clip420)" d="M1749.7 1259.61 L1749.7 1261.69 L1730.12 1261.69 Q1730.4 1266.09 1732.76 1268.4 Q1735.14 1270.7 1739.38 1270.7 Q1741.83 1270.7 1744.12 1270.09 Q1746.44 1269.49 1748.71 1268.29 L1748.71 1272.32 Q1746.41 1273.29 1744.01 1273.8 Q1741.6 1274.31 1739.12 1274.31 Q1732.92 1274.31 1729.28 1270.7 Q1725.67 1267.08 1725.67 1260.93 Q1725.67 1254.56 1729.1 1250.83 Q1732.55 1247.08 1738.38 1247.08 Q1743.61 1247.08 1746.65 1250.46 Q1749.7 1253.82 1749.7 1259.61 M1745.44 1258.36 Q1745.4 1254.86 1743.47 1252.78 Q1741.58 1250.7 1738.43 1250.7 Q1734.86 1250.7 1732.71 1252.71 Q1730.58 1254.72 1730.26 1258.38 L1745.44 1258.36 Z" fill="#000000" fill-rule="evenodd" fill-opacity="1" /><path clip-path="url(#clip420)" d="M1771.71 1251.69 Q1771 1251.27 1770.14 1251.09 Q1769.31 1250.88 1768.29 1250.88 Q1764.68 1250.88 1762.73 1253.24 Q1760.81 1255.58 1760.81 1259.98 L1760.81 1273.64 L1756.53 1273.64 L1756.53 1247.71 L1760.81 1247.71 L1760.81 1251.74 Q1762.15 1249.38 1764.31 1248.24 Q1766.46 1247.08 1769.54 1247.08 Q1769.98 1247.08 1770.51 1247.15 Q1771.04 1247.2 1771.69 1247.32 L1771.71 1251.69 Z" fill="#000000" fill-rule="evenodd" fill-opacity="1" /><path clip-path="url(#clip420)" d="M1809.86 1260.7 Q1809.86 1256 1807.92 1253.33 Q1806 1250.65 1802.62 1250.65 Q1799.24 1250.65 1797.29 1253.33 Q1795.37 1256 1795.37 1260.7 Q1795.37 1265.39 1797.29 1268.08 Q1799.24 1270.74 1802.62 1270.74 Q1806 1270.74 1807.92 1268.08 Q1809.86 1265.39 1809.86 1260.7 M1795.37 1251.64 Q1796.71 1249.33 1798.75 1248.22 Q1800.81 1247.08 1803.66 1247.08 Q1808.38 1247.08 1811.32 1250.83 Q1814.28 1254.58 1814.28 1260.7 Q1814.28 1266.81 1811.32 1270.56 Q1808.38 1274.31 1803.66 1274.31 Q1800.81 1274.31 1798.75 1273.2 Q1796.71 1272.06 1795.37 1269.75 L1795.37 1273.64 L1791.09 1273.64 L1791.09 1237.62 L1795.37 1237.62 L1795.37 1251.64 Z" fill="#000000" fill-rule="evenodd" fill-opacity="1" /><path clip-path="url(#clip420)" d="M1831.39 1250.7 Q1827.96 1250.7 1825.97 1253.38 Q1823.98 1256.04 1823.98 1260.7 Q1823.98 1265.35 1825.95 1268.03 Q1827.94 1270.7 1831.39 1270.7 Q1834.79 1270.7 1836.78 1268.01 Q1838.77 1265.33 1838.77 1260.7 Q1838.77 1256.09 1836.78 1253.4 Q1834.79 1250.7 1831.39 1250.7 M1831.39 1247.08 Q1836.95 1247.08 1840.12 1250.7 Q1843.29 1254.31 1843.29 1260.7 Q1843.29 1267.06 1840.12 1270.7 Q1836.95 1274.31 1831.39 1274.31 Q1825.81 1274.31 1822.64 1270.7 Q1819.49 1267.06 1819.49 1260.7 Q1819.49 1254.31 1822.64 1250.7 Q1825.81 1247.08 1831.39 1247.08 Z" fill="#000000" fill-rule="evenodd" fill-opacity="1" /><path clip-path="url(#clip420)" d="M1849.91 1263.4 L1849.91 1247.71 L1854.17 1247.71 L1854.17 1263.24 Q1854.17 1266.92 1855.6 1268.77 Q1857.04 1270.6 1859.91 1270.6 Q1863.36 1270.6 1865.35 1268.4 Q1867.36 1266.2 1867.36 1262.41 L1867.36 1247.71 L1871.62 1247.71 L1871.62 1273.64 L1867.36 1273.64 L1867.36 1269.65 Q1865.81 1272.01 1863.75 1273.17 Q1861.71 1274.31 1859.01 1274.31 Q1854.54 1274.31 1852.22 1271.53 Q1849.91 1268.75 1849.91 1263.4 M1860.63 1247.08 L1860.63 1247.08 Z" fill="#000000" fill-rule="evenodd" fill-opacity="1" /><path clip-path="url(#clip420)" d="M1901.95 1257.99 L1901.95 1273.64 L1897.69 1273.64 L1897.69 1258.13 Q1897.69 1254.45 1896.25 1252.62 Q1894.82 1250.79 1891.95 1250.79 Q1888.5 1250.79 1886.51 1252.99 Q1884.51 1255.19 1884.51 1258.98 L1884.51 1273.64 L1880.23 1273.64 L1880.23 1247.71 L1884.51 1247.71 L1884.51 1251.74 Q1886.04 1249.4 1888.1 1248.24 Q1890.19 1247.08 1892.89 1247.08 Q1897.36 1247.08 1899.65 1249.86 Q1901.95 1252.62 1901.95 1257.99 Z" fill="#000000" fill-rule="evenodd" fill-opacity="1" /><path clip-path="url(#clip420)" d="M1927.5 1251.64 L1927.5 1237.62 L1931.76 1237.62 L1931.76 1273.64 L1927.5 1273.64 L1927.5 1269.75 Q1926.16 1272.06 1924.1 1273.2 Q1922.06 1274.31 1919.19 1274.31 Q1914.49 1274.31 1911.53 1270.56 Q1908.59 1266.81 1908.59 1260.7 Q1908.59 1254.58 1911.53 1250.83 Q1914.49 1247.08 1919.19 1247.08 Q1922.06 1247.08 1924.1 1248.22 Q1926.16 1249.33 1927.5 1251.64 M1912.99 1260.7 Q1912.99 1265.39 1914.91 1268.08 Q1916.85 1270.74 1920.23 1270.74 Q1923.61 1270.74 1925.56 1268.08 Q1927.5 1265.39 1927.5 1260.7 Q1927.5 1256 1925.56 1253.33 Q1923.61 1250.65 1920.23 1250.65 Q1916.85 1250.65 1914.91 1253.33 Q1912.99 1256 1912.99 1260.7 Z" fill="#000000" fill-rule="evenodd" fill-opacity="1" /><path clip-path="url(#clip420)" d="M1965.65 1250.7 Q1962.22 1250.7 1960.23 1253.38 Q1958.24 1256.04 1958.24 1260.7 Q1958.24 1265.35 1960.21 1268.03 Q1962.2 1270.7 1965.65 1270.7 Q1969.05 1270.7 1971.04 1268.01 Q1973.03 1265.33 1973.03 1260.7 Q1973.03 1256.09 1971.04 1253.4 Q1969.05 1250.7 1965.65 1250.7 M1965.65 1247.08 Q1971.2 1247.08 1974.38 1250.7 Q1977.55 1254.31 1977.55 1260.7 Q1977.55 1267.06 1974.38 1270.7 Q1971.2 1274.31 1965.65 1274.31 Q1960.07 1274.31 1956.9 1270.7 Q1953.75 1267.06 1953.75 1260.7 Q1953.75 1254.31 1956.9 1250.7 Q1960.07 1247.08 1965.65 1247.08 Z" fill="#000000" fill-rule="evenodd" fill-opacity="1" /><path clip-path="url(#clip420)" d="M2006.16 1257.99 L2006.16 1273.64 L2001.9 1273.64 L2001.9 1258.13 Q2001.9 1254.45 2000.46 1252.62 Q1999.03 1250.79 1996.16 1250.79 Q1992.71 1250.79 1990.72 1252.99 Q1988.73 1255.19 1988.73 1258.98 L1988.73 1273.64 L1984.44 1273.64 L1984.44 1247.71 L1988.73 1247.71 L1988.73 1251.74 Q1990.25 1249.4 1992.32 1248.24 Q1994.4 1247.08 1997.11 1247.08 Q2001.57 1247.08 2003.87 1249.86 Q2006.16 1252.62 2006.16 1257.99 Z" fill="#000000" fill-rule="evenodd" fill-opacity="1" /><path clip-path="url(#clip420)" d="M2032.22 1241.39 L2032.22 1271.32 L2036.9 1271.32 L2036.9 1241.39 L2032.22 1241.39 M2029.91 1239.08 L2056.39 1239.08 L2056.39 1241.39 L2039.21 1241.39 L2039.21 1253.89 L2055.67 1253.89 L2055.67 1256.2 L2039.21 1256.2 L2039.21 1271.32 L2056.81 1271.32 L2056.81 1273.64 L2029.91 1273.64 L2029.91 1239.08 Z" fill="#000000" fill-rule="evenodd" fill-opacity="1" /><path clip-path="url(#clip420)" d="M2063.91 1237.62 L2073.73 1237.62 L2073.73 1240.93 L2068.17 1240.93 L2068.17 1276.58 L2073.73 1276.58 L2073.73 1279.89 L2063.91 1279.89 L2063.91 1237.62 Z" fill="#000000" fill-rule="evenodd" fill-opacity="1" /><path clip-path="url(#clip420)" d="M2094.54 1243.68 L2088.19 1260.88 L2100.9 1260.88 L2094.54 1243.68 M2091.9 1239.08 L2097.2 1239.08 L2110.37 1273.64 L2105.51 1273.64 L2102.36 1264.77 L2086.78 1264.77 L2083.63 1273.64 L2078.7 1273.64 L2091.9 1239.08 Z" fill="#000000" fill-rule="evenodd" fill-opacity="1" /><path clip-path="url(#clip420)" d="M2125.46 1237.66 Q2122.36 1242.99 2120.86 1248.2 Q2119.35 1253.4 2119.35 1258.75 Q2119.35 1264.1 2120.86 1269.35 Q2122.38 1274.58 2125.46 1279.89 L2121.76 1279.89 Q2118.29 1274.45 2116.55 1269.19 Q2114.84 1263.94 2114.84 1258.75 Q2114.84 1253.59 2116.55 1248.36 Q2118.26 1243.13 2121.76 1237.66 L2125.46 1237.66 Z" fill="#000000" fill-rule="evenodd" fill-opacity="1" /><path clip-path="url(#clip420)" d="M2137.94 1240.35 L2137.94 1247.71 L2146.71 1247.71 L2146.71 1251.02 L2137.94 1251.02 L2137.94 1265.09 Q2137.94 1268.26 2138.8 1269.17 Q2139.68 1270.07 2142.34 1270.07 L2146.71 1270.07 L2146.71 1273.64 L2142.34 1273.64 Q2137.41 1273.64 2135.53 1271.81 Q2133.66 1269.95 2133.66 1265.09 L2133.66 1251.02 L2130.53 1251.02 L2130.53 1247.71 L2133.66 1247.71 L2133.66 1240.35 L2137.94 1240.35 Z" fill="#000000" fill-rule="evenodd" fill-opacity="1" /><path clip-path="url(#clip420)" d="M2151.64 1237.66 L2155.35 1237.66 Q2158.82 1243.13 2160.53 1248.36 Q2162.27 1253.59 2162.27 1258.75 Q2162.27 1263.94 2160.53 1269.19 Q2158.82 1274.45 2155.35 1279.89 L2151.64 1279.89 Q2154.72 1274.58 2156.23 1269.35 Q2157.75 1264.1 2157.75 1258.75 Q2157.75 1253.4 2156.23 1248.2 Q2154.72 1242.99 2151.64 1237.66 Z" fill="#000000" fill-rule="evenodd" fill-opacity="1" /><path clip-path="url(#clip420)" d="M2180.76 1237.62 L2180.76 1279.89 L2170.95 1279.89 L2170.95 1276.58 L2176.48 1276.58 L2176.48 1240.93 L2170.95 1240.93 L2170.95 1237.62 L2180.76 1237.62 Z" fill="#000000" fill-rule="evenodd" fill-opacity="1" /><polyline clip-path="url(#clip420)" style="stroke:#ff0000; stroke-linecap:butt; stroke-linejoin:round; stroke-width:4; stroke-opacity:1; fill:none" points="
  1479.19,1316.84 1622.66,1316.84 
  "/>
<path clip-path="url(#clip420)" d="M1576.53 1291.24 L1525.33 1291.24 L1550.93 1342.44 L1576.53 1291.24 Z" fill="#ff0000" fill-rule="evenodd" fill-opacity="1" stroke="#000000" stroke-opacity="1" stroke-width="5.12"/>
<path clip-path="url(#clip420)" d="M1646.58 1323.88 L1646.58 1308.19 L1650.84 1308.19 L1650.84 1323.72 Q1650.84 1327.4 1652.27 1329.25 Q1653.71 1331.08 1656.58 1331.08 Q1660.03 1331.08 1662.02 1328.88 Q1664.03 1326.68 1664.03 1322.89 L1664.03 1308.19 L1668.29 1308.19 L1668.29 1334.12 L1664.03 1334.12 L1664.03 1330.13 Q1662.48 1332.49 1660.42 1333.65 Q1658.38 1334.79 1655.67 1334.79 Q1651.21 1334.79 1648.89 1332.01 Q1646.58 1329.23 1646.58 1323.88 M1657.29 1307.56 L1657.29 1307.56 Z" fill="#000000" fill-rule="evenodd" fill-opacity="1" /><path clip-path="url(#clip420)" d="M1681.18 1330.23 L1681.18 1343.98 L1676.9 1343.98 L1676.9 1308.19 L1681.18 1308.19 L1681.18 1312.12 Q1682.53 1309.81 1684.56 1308.7 Q1686.62 1307.56 1689.47 1307.56 Q1694.19 1307.56 1697.13 1311.31 Q1700.09 1315.06 1700.09 1321.18 Q1700.09 1327.29 1697.13 1331.04 Q1694.19 1334.79 1689.47 1334.79 Q1686.62 1334.79 1684.56 1333.68 Q1682.53 1332.54 1681.18 1330.23 M1695.67 1321.18 Q1695.67 1316.48 1693.73 1313.81 Q1691.81 1311.13 1688.43 1311.13 Q1685.05 1311.13 1683.1 1313.81 Q1681.18 1316.48 1681.18 1321.18 Q1681.18 1325.87 1683.1 1328.56 Q1685.05 1331.22 1688.43 1331.22 Q1691.81 1331.22 1693.73 1328.56 Q1695.67 1325.87 1695.67 1321.18 Z" fill="#000000" fill-rule="evenodd" fill-opacity="1" /><path clip-path="url(#clip420)" d="M1711.27 1330.23 L1711.27 1343.98 L1706.99 1343.98 L1706.99 1308.19 L1711.27 1308.19 L1711.27 1312.12 Q1712.62 1309.81 1714.65 1308.7 Q1716.71 1307.56 1719.56 1307.56 Q1724.28 1307.56 1727.22 1311.31 Q1730.19 1315.06 1730.19 1321.18 Q1730.19 1327.29 1727.22 1331.04 Q1724.28 1334.79 1719.56 1334.79 Q1716.71 1334.79 1714.65 1333.68 Q1712.62 1332.54 1711.27 1330.23 M1725.77 1321.18 Q1725.77 1316.48 1723.82 1313.81 Q1721.9 1311.13 1718.52 1311.13 Q1715.14 1311.13 1713.2 1313.81 Q1711.27 1316.48 1711.27 1321.18 Q1711.27 1325.87 1713.2 1328.56 Q1715.14 1331.22 1718.52 1331.22 Q1721.9 1331.22 1723.82 1328.56 Q1725.77 1325.87 1725.77 1321.18 Z" fill="#000000" fill-rule="evenodd" fill-opacity="1" /><path clip-path="url(#clip420)" d="M1759.42 1320.09 L1759.42 1322.17 L1739.84 1322.17 Q1740.12 1326.57 1742.48 1328.88 Q1744.86 1331.18 1749.1 1331.18 Q1751.55 1331.18 1753.84 1330.57 Q1756.16 1329.97 1758.43 1328.77 L1758.43 1332.8 Q1756.14 1333.77 1753.73 1334.28 Q1751.32 1334.79 1748.84 1334.79 Q1742.64 1334.79 1739.01 1331.18 Q1735.4 1327.56 1735.4 1321.41 Q1735.4 1315.04 1738.82 1311.31 Q1742.27 1307.56 1748.1 1307.56 Q1753.33 1307.56 1756.37 1310.94 Q1759.42 1314.3 1759.42 1320.09 M1755.16 1318.84 Q1755.12 1315.34 1753.2 1313.26 Q1751.3 1311.18 1748.15 1311.18 Q1744.58 1311.18 1742.43 1313.19 Q1740.3 1315.2 1739.98 1318.86 L1755.16 1318.84 Z" fill="#000000" fill-rule="evenodd" fill-opacity="1" /><path clip-path="url(#clip420)" d="M1781.44 1312.17 Q1780.72 1311.75 1779.86 1311.57 Q1779.03 1311.36 1778.01 1311.36 Q1774.4 1311.36 1772.46 1313.72 Q1770.53 1316.06 1770.53 1320.46 L1770.53 1334.12 L1766.25 1334.12 L1766.25 1308.19 L1770.53 1308.19 L1770.53 1312.22 Q1771.88 1309.86 1774.03 1308.72 Q1776.18 1307.56 1779.26 1307.56 Q1779.7 1307.56 1780.23 1307.63 Q1780.77 1307.68 1781.41 1307.8 L1781.44 1312.17 Z" fill="#000000" fill-rule="evenodd" fill-opacity="1" /><path clip-path="url(#clip420)" d="M1819.58 1321.18 Q1819.58 1316.48 1817.64 1313.81 Q1815.72 1311.13 1812.34 1311.13 Q1808.96 1311.13 1807.02 1313.81 Q1805.09 1316.48 1805.09 1321.18 Q1805.09 1325.87 1807.02 1328.56 Q1808.96 1331.22 1812.34 1331.22 Q1815.72 1331.22 1817.64 1328.56 Q1819.58 1325.87 1819.58 1321.18 M1805.09 1312.12 Q1806.44 1309.81 1808.47 1308.7 Q1810.53 1307.56 1813.38 1307.56 Q1818.1 1307.56 1821.04 1311.31 Q1824.01 1315.06 1824.01 1321.18 Q1824.01 1327.29 1821.04 1331.04 Q1818.1 1334.79 1813.38 1334.79 Q1810.53 1334.79 1808.47 1333.68 Q1806.44 1332.54 1805.09 1330.23 L1805.09 1334.12 L1800.81 1334.12 L1800.81 1298.1 L1805.09 1298.1 L1805.09 1312.12 Z" fill="#000000" fill-rule="evenodd" fill-opacity="1" /><path clip-path="url(#clip420)" d="M1841.11 1311.18 Q1837.69 1311.18 1835.7 1313.86 Q1833.7 1316.52 1833.7 1321.18 Q1833.7 1325.83 1835.67 1328.51 Q1837.66 1331.18 1841.11 1331.18 Q1844.51 1331.18 1846.51 1328.49 Q1848.5 1325.81 1848.5 1321.18 Q1848.5 1316.57 1846.51 1313.88 Q1844.51 1311.18 1841.11 1311.18 M1841.11 1307.56 Q1846.67 1307.56 1849.84 1311.18 Q1853.01 1314.79 1853.01 1321.18 Q1853.01 1327.54 1849.84 1331.18 Q1846.67 1334.79 1841.11 1334.79 Q1835.53 1334.79 1832.36 1331.18 Q1829.21 1327.54 1829.21 1321.18 Q1829.21 1314.79 1832.36 1311.18 Q1835.53 1307.56 1841.11 1307.56 Z" fill="#000000" fill-rule="evenodd" fill-opacity="1" /><path clip-path="url(#clip420)" d="M1859.63 1323.88 L1859.63 1308.19 L1863.89 1308.19 L1863.89 1323.72 Q1863.89 1327.4 1865.32 1329.25 Q1866.76 1331.08 1869.63 1331.08 Q1873.08 1331.08 1875.07 1328.88 Q1877.08 1326.68 1877.08 1322.89 L1877.08 1308.19 L1881.34 1308.19 L1881.34 1334.12 L1877.08 1334.12 L1877.08 1330.13 Q1875.53 1332.49 1873.47 1333.65 Q1871.44 1334.79 1868.73 1334.79 Q1864.26 1334.79 1861.95 1332.01 Q1859.63 1329.23 1859.63 1323.88 M1870.35 1307.56 L1870.35 1307.56 Z" fill="#000000" fill-rule="evenodd" fill-opacity="1" /><path clip-path="url(#clip420)" d="M1911.67 1318.47 L1911.67 1334.12 L1907.41 1334.12 L1907.41 1318.61 Q1907.41 1314.93 1905.97 1313.1 Q1904.54 1311.27 1901.67 1311.27 Q1898.22 1311.27 1896.23 1313.47 Q1894.24 1315.67 1894.24 1319.46 L1894.24 1334.12 L1889.95 1334.12 L1889.95 1308.19 L1894.24 1308.19 L1894.24 1312.22 Q1895.76 1309.88 1897.82 1308.72 Q1899.91 1307.56 1902.62 1307.56 Q1907.08 1307.56 1909.38 1310.34 Q1911.67 1313.1 1911.67 1318.47 Z" fill="#000000" fill-rule="evenodd" fill-opacity="1" /><path clip-path="url(#clip420)" d="M1937.22 1312.12 L1937.22 1298.1 L1941.48 1298.1 L1941.48 1334.12 L1937.22 1334.12 L1937.22 1330.23 Q1935.88 1332.54 1933.82 1333.68 Q1931.78 1334.79 1928.91 1334.79 Q1924.21 1334.79 1921.25 1331.04 Q1918.31 1327.29 1918.31 1321.18 Q1918.31 1315.06 1921.25 1311.31 Q1924.21 1307.56 1928.91 1307.56 Q1931.78 1307.56 1933.82 1308.7 Q1935.88 1309.81 1937.22 1312.12 M1922.71 1321.18 Q1922.71 1325.87 1924.63 1328.56 Q1926.57 1331.22 1929.95 1331.22 Q1933.33 1331.22 1935.28 1328.56 Q1937.22 1325.87 1937.22 1321.18 Q1937.22 1316.48 1935.28 1313.81 Q1933.33 1311.13 1929.95 1311.13 Q1926.57 1311.13 1924.63 1313.81 Q1922.71 1316.48 1922.71 1321.18 Z" fill="#000000" fill-rule="evenodd" fill-opacity="1" /><path clip-path="url(#clip420)" d="M1975.37 1311.18 Q1971.94 1311.18 1969.95 1313.86 Q1967.96 1316.52 1967.96 1321.18 Q1967.96 1325.83 1969.93 1328.51 Q1971.92 1331.18 1975.37 1331.18 Q1978.77 1331.18 1980.76 1328.49 Q1982.75 1325.81 1982.75 1321.18 Q1982.75 1316.57 1980.76 1313.88 Q1978.77 1311.18 1975.37 1311.18 M1975.37 1307.56 Q1980.93 1307.56 1984.1 1311.18 Q1987.27 1314.79 1987.27 1321.18 Q1987.27 1327.54 1984.1 1331.18 Q1980.93 1334.79 1975.37 1334.79 Q1969.79 1334.79 1966.62 1331.18 Q1963.47 1327.54 1963.47 1321.18 Q1963.47 1314.79 1966.62 1311.18 Q1969.79 1307.56 1975.37 1307.56 Z" fill="#000000" fill-rule="evenodd" fill-opacity="1" /><path clip-path="url(#clip420)" d="M2015.88 1318.47 L2015.88 1334.12 L2011.62 1334.12 L2011.62 1318.61 Q2011.62 1314.93 2010.19 1313.1 Q2008.75 1311.27 2005.88 1311.27 Q2002.43 1311.27 2000.44 1313.47 Q1998.45 1315.67 1998.45 1319.46 L1998.45 1334.12 L1994.17 1334.12 L1994.17 1308.19 L1998.45 1308.19 L1998.45 1312.22 Q1999.98 1309.88 2002.04 1308.72 Q2004.12 1307.56 2006.83 1307.56 Q2011.3 1307.56 2013.59 1310.34 Q2015.88 1313.1 2015.88 1318.47 Z" fill="#000000" fill-rule="evenodd" fill-opacity="1" /><path clip-path="url(#clip420)" d="M2041.94 1301.87 L2041.94 1331.8 L2046.62 1331.8 L2046.62 1301.87 L2041.94 1301.87 M2039.63 1299.56 L2066.11 1299.56 L2066.11 1301.87 L2048.94 1301.87 L2048.94 1314.37 L2065.39 1314.37 L2065.39 1316.68 L2048.94 1316.68 L2048.94 1331.8 L2066.53 1331.8 L2066.53 1334.12 L2039.63 1334.12 L2039.63 1299.56 Z" fill="#000000" fill-rule="evenodd" fill-opacity="1" /><path clip-path="url(#clip420)" d="M2073.63 1298.1 L2083.45 1298.1 L2083.45 1301.41 L2077.89 1301.41 L2077.89 1337.06 L2083.45 1337.06 L2083.45 1340.37 L2073.63 1340.37 L2073.63 1298.1 Z" fill="#000000" fill-rule="evenodd" fill-opacity="1" /><path clip-path="url(#clip420)" d="M2104.26 1304.16 L2097.92 1321.36 L2110.62 1321.36 L2104.26 1304.16 M2101.62 1299.56 L2106.92 1299.56 L2120.09 1334.12 L2115.23 1334.12 L2112.08 1325.25 L2096.5 1325.25 L2093.36 1334.12 L2088.43 1334.12 L2101.62 1299.56 Z" fill="#000000" fill-rule="evenodd" fill-opacity="1" /><path clip-path="url(#clip420)" d="M2135.18 1298.14 Q2132.08 1303.47 2130.58 1308.68 Q2129.07 1313.88 2129.07 1319.23 Q2129.07 1324.58 2130.58 1329.83 Q2132.11 1335.06 2135.18 1340.37 L2131.48 1340.37 Q2128.01 1334.93 2126.27 1329.67 Q2124.56 1324.42 2124.56 1319.23 Q2124.56 1314.07 2126.27 1308.84 Q2127.99 1303.61 2131.48 1298.14 L2135.18 1298.14 Z" fill="#000000" fill-rule="evenodd" fill-opacity="1" /><path clip-path="url(#clip420)" d="M2147.66 1300.83 L2147.66 1308.19 L2156.43 1308.19 L2156.43 1311.5 L2147.66 1311.5 L2147.66 1325.57 Q2147.66 1328.74 2148.52 1329.65 Q2149.4 1330.55 2152.06 1330.55 L2156.43 1330.55 L2156.43 1334.12 L2152.06 1334.12 Q2147.13 1334.12 2145.25 1332.29 Q2143.38 1330.43 2143.38 1325.57 L2143.38 1311.5 L2140.25 1311.5 L2140.25 1308.19 L2143.38 1308.19 L2143.38 1300.83 L2147.66 1300.83 Z" fill="#000000" fill-rule="evenodd" fill-opacity="1" /><path clip-path="url(#clip420)" d="M2161.37 1298.14 L2165.07 1298.14 Q2168.54 1303.61 2170.25 1308.84 Q2171.99 1314.07 2171.99 1319.23 Q2171.99 1324.42 2170.25 1329.67 Q2168.54 1334.93 2165.07 1340.37 L2161.37 1340.37 Q2164.44 1335.06 2165.95 1329.83 Q2167.48 1324.58 2167.48 1319.23 Q2167.48 1313.88 2165.95 1308.68 Q2164.44 1303.47 2161.37 1298.14 Z" fill="#000000" fill-rule="evenodd" fill-opacity="1" /><path clip-path="url(#clip420)" d="M2190.49 1298.1 L2190.49 1340.37 L2180.67 1340.37 L2180.67 1337.06 L2186.2 1337.06 L2186.2 1301.41 L2180.67 1301.41 L2180.67 1298.1 L2190.49 1298.1 Z" fill="#000000" fill-rule="evenodd" fill-opacity="1" /></svg>
